<?xml version="1.0" encoding="utf-8" standalone="no"?>
<!DOCTYPE svg PUBLIC "-//W3C//DTD SVG 1.1//EN"
  "http://www.w3.org/Graphics/SVG/1.1/DTD/svg11.dtd">
<svg xmlns:xlink="http://www.w3.org/1999/xlink" width="385.78125pt" height="201.197344pt" viewBox="0 0 385.78125 201.197344" xmlns="http://www.w3.org/2000/svg" version="1.1">
 <metadata>
  <rdf:RDF xmlns:dc="http://purl.org/dc/elements/1.1/" xmlns:cc="http://creativecommons.org/ns#" xmlns:rdf="http://www.w3.org/1999/02/22-rdf-syntax-ns#">
   <cc:Work>
    <dc:type rdf:resource="http://purl.org/dc/dcmitype/StillImage"/>
    <dc:date>2025-06-12T09:00:23.122127</dc:date>
    <dc:format>image/svg+xml</dc:format>
    <dc:creator>
     <cc:Agent>
      <dc:title>Matplotlib v3.9.4, https://matplotlib.org/</dc:title>
     </cc:Agent>
    </dc:creator>
   </cc:Work>
  </rdf:RDF>
 </metadata>
 <defs>
  <style type="text/css">*{stroke-linejoin: round; stroke-linecap: butt}</style>
 </defs>
 <g id="figure_1">
  <g id="patch_1">
   <path d="M 0 201.197344 
L 385.78125 201.197344 
L 385.78125 0 
L 0 0 
z
" style="fill: #ffffff"/>
  </g>
  <g id="axes_1">
   <g id="patch_2">
    <path d="M 43.78125 177.319219 
L 378.58125 177.319219 
L 378.58125 10.999219 
L 43.78125 10.999219 
z
" style="fill: #ffffff"/>
   </g>
   <g id="matplotlib.axis_1">
    <g id="xtick_1">
     <g id="line2d_1">
      <defs>
       <path id="m07432c4fd9" d="M 0 0 
L 0 3.5 
" style="stroke: #000000; stroke-width: 0.8"/>
      </defs>
      <g>
       <use xlink:href="#m07432c4fd9" x="121.90125" y="177.319219" style="stroke: #000000; stroke-width: 0.8"/>
      </g>
     </g>
     <g id="text_1">
      <!-- Recall -->
      <g transform="translate(106.984063 191.917656) scale(0.1 -0.1)">
       <defs>
        <path id="DejaVuSans-52" d="M 2841 2188 
Q 3044 2119 3236 1894 
Q 3428 1669 3622 1275 
L 4263 0 
L 3584 0 
L 2988 1197 
Q 2756 1666 2539 1819 
Q 2322 1972 1947 1972 
L 1259 1972 
L 1259 0 
L 628 0 
L 628 4666 
L 2053 4666 
Q 2853 4666 3247 4331 
Q 3641 3997 3641 3322 
Q 3641 2881 3436 2590 
Q 3231 2300 2841 2188 
z
M 1259 4147 
L 1259 2491 
L 2053 2491 
Q 2509 2491 2742 2702 
Q 2975 2913 2975 3322 
Q 2975 3731 2742 3939 
Q 2509 4147 2053 4147 
L 1259 4147 
z
" transform="scale(0.015625)"/>
        <path id="DejaVuSans-65" d="M 3597 1894 
L 3597 1613 
L 953 1613 
Q 991 1019 1311 708 
Q 1631 397 2203 397 
Q 2534 397 2845 478 
Q 3156 559 3463 722 
L 3463 178 
Q 3153 47 2828 -22 
Q 2503 -91 2169 -91 
Q 1331 -91 842 396 
Q 353 884 353 1716 
Q 353 2575 817 3079 
Q 1281 3584 2069 3584 
Q 2775 3584 3186 3129 
Q 3597 2675 3597 1894 
z
M 3022 2063 
Q 3016 2534 2758 2815 
Q 2500 3097 2075 3097 
Q 1594 3097 1305 2825 
Q 1016 2553 972 2059 
L 3022 2063 
z
" transform="scale(0.015625)"/>
        <path id="DejaVuSans-63" d="M 3122 3366 
L 3122 2828 
Q 2878 2963 2633 3030 
Q 2388 3097 2138 3097 
Q 1578 3097 1268 2742 
Q 959 2388 959 1747 
Q 959 1106 1268 751 
Q 1578 397 2138 397 
Q 2388 397 2633 464 
Q 2878 531 3122 666 
L 3122 134 
Q 2881 22 2623 -34 
Q 2366 -91 2075 -91 
Q 1284 -91 818 406 
Q 353 903 353 1747 
Q 353 2603 823 3093 
Q 1294 3584 2113 3584 
Q 2378 3584 2631 3529 
Q 2884 3475 3122 3366 
z
" transform="scale(0.015625)"/>
        <path id="DejaVuSans-61" d="M 2194 1759 
Q 1497 1759 1228 1600 
Q 959 1441 959 1056 
Q 959 750 1161 570 
Q 1363 391 1709 391 
Q 2188 391 2477 730 
Q 2766 1069 2766 1631 
L 2766 1759 
L 2194 1759 
z
M 3341 1997 
L 3341 0 
L 2766 0 
L 2766 531 
Q 2569 213 2275 61 
Q 1981 -91 1556 -91 
Q 1019 -91 701 211 
Q 384 513 384 1019 
Q 384 1609 779 1909 
Q 1175 2209 1959 2209 
L 2766 2209 
L 2766 2266 
Q 2766 2663 2505 2880 
Q 2244 3097 1772 3097 
Q 1472 3097 1187 3025 
Q 903 2953 641 2809 
L 641 3341 
Q 956 3463 1253 3523 
Q 1550 3584 1831 3584 
Q 2591 3584 2966 3190 
Q 3341 2797 3341 1997 
z
" transform="scale(0.015625)"/>
        <path id="DejaVuSans-6c" d="M 603 4863 
L 1178 4863 
L 1178 0 
L 603 0 
L 603 4863 
z
" transform="scale(0.015625)"/>
       </defs>
       <use xlink:href="#DejaVuSans-52"/>
       <use xlink:href="#DejaVuSans-65" x="64.982422"/>
       <use xlink:href="#DejaVuSans-63" x="126.505859"/>
       <use xlink:href="#DejaVuSans-61" x="181.486328"/>
       <use xlink:href="#DejaVuSans-6c" x="242.765625"/>
       <use xlink:href="#DejaVuSans-6c" x="270.548828"/>
      </g>
     </g>
    </g>
    <g id="xtick_2">
     <g id="line2d_2">
      <g>
       <use xlink:href="#m07432c4fd9" x="211.18125" y="177.319219" style="stroke: #000000; stroke-width: 0.8"/>
      </g>
     </g>
     <g id="text_2">
      <!-- Precision -->
      <g transform="translate(188.874219 191.917656) scale(0.1 -0.1)">
       <defs>
        <path id="DejaVuSans-50" d="M 1259 4147 
L 1259 2394 
L 2053 2394 
Q 2494 2394 2734 2622 
Q 2975 2850 2975 3272 
Q 2975 3691 2734 3919 
Q 2494 4147 2053 4147 
L 1259 4147 
z
M 628 4666 
L 2053 4666 
Q 2838 4666 3239 4311 
Q 3641 3956 3641 3272 
Q 3641 2581 3239 2228 
Q 2838 1875 2053 1875 
L 1259 1875 
L 1259 0 
L 628 0 
L 628 4666 
z
" transform="scale(0.015625)"/>
        <path id="DejaVuSans-72" d="M 2631 2963 
Q 2534 3019 2420 3045 
Q 2306 3072 2169 3072 
Q 1681 3072 1420 2755 
Q 1159 2438 1159 1844 
L 1159 0 
L 581 0 
L 581 3500 
L 1159 3500 
L 1159 2956 
Q 1341 3275 1631 3429 
Q 1922 3584 2338 3584 
Q 2397 3584 2469 3576 
Q 2541 3569 2628 3553 
L 2631 2963 
z
" transform="scale(0.015625)"/>
        <path id="DejaVuSans-69" d="M 603 3500 
L 1178 3500 
L 1178 0 
L 603 0 
L 603 3500 
z
M 603 4863 
L 1178 4863 
L 1178 4134 
L 603 4134 
L 603 4863 
z
" transform="scale(0.015625)"/>
        <path id="DejaVuSans-73" d="M 2834 3397 
L 2834 2853 
Q 2591 2978 2328 3040 
Q 2066 3103 1784 3103 
Q 1356 3103 1142 2972 
Q 928 2841 928 2578 
Q 928 2378 1081 2264 
Q 1234 2150 1697 2047 
L 1894 2003 
Q 2506 1872 2764 1633 
Q 3022 1394 3022 966 
Q 3022 478 2636 193 
Q 2250 -91 1575 -91 
Q 1294 -91 989 -36 
Q 684 19 347 128 
L 347 722 
Q 666 556 975 473 
Q 1284 391 1588 391 
Q 1994 391 2212 530 
Q 2431 669 2431 922 
Q 2431 1156 2273 1281 
Q 2116 1406 1581 1522 
L 1381 1569 
Q 847 1681 609 1914 
Q 372 2147 372 2553 
Q 372 3047 722 3315 
Q 1072 3584 1716 3584 
Q 2034 3584 2315 3537 
Q 2597 3491 2834 3397 
z
" transform="scale(0.015625)"/>
        <path id="DejaVuSans-6f" d="M 1959 3097 
Q 1497 3097 1228 2736 
Q 959 2375 959 1747 
Q 959 1119 1226 758 
Q 1494 397 1959 397 
Q 2419 397 2687 759 
Q 2956 1122 2956 1747 
Q 2956 2369 2687 2733 
Q 2419 3097 1959 3097 
z
M 1959 3584 
Q 2709 3584 3137 3096 
Q 3566 2609 3566 1747 
Q 3566 888 3137 398 
Q 2709 -91 1959 -91 
Q 1206 -91 779 398 
Q 353 888 353 1747 
Q 353 2609 779 3096 
Q 1206 3584 1959 3584 
z
" transform="scale(0.015625)"/>
        <path id="DejaVuSans-6e" d="M 3513 2113 
L 3513 0 
L 2938 0 
L 2938 2094 
Q 2938 2591 2744 2837 
Q 2550 3084 2163 3084 
Q 1697 3084 1428 2787 
Q 1159 2491 1159 1978 
L 1159 0 
L 581 0 
L 581 3500 
L 1159 3500 
L 1159 2956 
Q 1366 3272 1645 3428 
Q 1925 3584 2291 3584 
Q 2894 3584 3203 3211 
Q 3513 2838 3513 2113 
z
" transform="scale(0.015625)"/>
       </defs>
       <use xlink:href="#DejaVuSans-50"/>
       <use xlink:href="#DejaVuSans-72" x="58.552734"/>
       <use xlink:href="#DejaVuSans-65" x="97.416016"/>
       <use xlink:href="#DejaVuSans-63" x="158.939453"/>
       <use xlink:href="#DejaVuSans-69" x="213.919922"/>
       <use xlink:href="#DejaVuSans-73" x="241.703125"/>
       <use xlink:href="#DejaVuSans-69" x="293.802734"/>
       <use xlink:href="#DejaVuSans-6f" x="321.585938"/>
       <use xlink:href="#DejaVuSans-6e" x="382.767578"/>
      </g>
     </g>
    </g>
    <g id="xtick_3">
     <g id="line2d_3">
      <g>
       <use xlink:href="#m07432c4fd9" x="300.46125" y="177.319219" style="stroke: #000000; stroke-width: 0.8"/>
      </g>
     </g>
     <g id="text_3">
      <!-- At Least One Met. -->
      <g transform="translate(255.876094 191.917656) scale(0.1 -0.1)">
       <defs>
        <path id="DejaVuSans-41" d="M 2188 4044 
L 1331 1722 
L 3047 1722 
L 2188 4044 
z
M 1831 4666 
L 2547 4666 
L 4325 0 
L 3669 0 
L 3244 1197 
L 1141 1197 
L 716 0 
L 50 0 
L 1831 4666 
z
" transform="scale(0.015625)"/>
        <path id="DejaVuSans-74" d="M 1172 4494 
L 1172 3500 
L 2356 3500 
L 2356 3053 
L 1172 3053 
L 1172 1153 
Q 1172 725 1289 603 
Q 1406 481 1766 481 
L 2356 481 
L 2356 0 
L 1766 0 
Q 1100 0 847 248 
Q 594 497 594 1153 
L 594 3053 
L 172 3053 
L 172 3500 
L 594 3500 
L 594 4494 
L 1172 4494 
z
" transform="scale(0.015625)"/>
        <path id="DejaVuSans-20" transform="scale(0.015625)"/>
        <path id="DejaVuSans-4c" d="M 628 4666 
L 1259 4666 
L 1259 531 
L 3531 531 
L 3531 0 
L 628 0 
L 628 4666 
z
" transform="scale(0.015625)"/>
        <path id="DejaVuSans-4f" d="M 2522 4238 
Q 1834 4238 1429 3725 
Q 1025 3213 1025 2328 
Q 1025 1447 1429 934 
Q 1834 422 2522 422 
Q 3209 422 3611 934 
Q 4013 1447 4013 2328 
Q 4013 3213 3611 3725 
Q 3209 4238 2522 4238 
z
M 2522 4750 
Q 3503 4750 4090 4092 
Q 4678 3434 4678 2328 
Q 4678 1225 4090 567 
Q 3503 -91 2522 -91 
Q 1538 -91 948 565 
Q 359 1222 359 2328 
Q 359 3434 948 4092 
Q 1538 4750 2522 4750 
z
" transform="scale(0.015625)"/>
        <path id="DejaVuSans-4d" d="M 628 4666 
L 1569 4666 
L 2759 1491 
L 3956 4666 
L 4897 4666 
L 4897 0 
L 4281 0 
L 4281 4097 
L 3078 897 
L 2444 897 
L 1241 4097 
L 1241 0 
L 628 0 
L 628 4666 
z
" transform="scale(0.015625)"/>
        <path id="DejaVuSans-2e" d="M 684 794 
L 1344 794 
L 1344 0 
L 684 0 
L 684 794 
z
" transform="scale(0.015625)"/>
       </defs>
       <use xlink:href="#DejaVuSans-41"/>
       <use xlink:href="#DejaVuSans-74" x="66.658203"/>
       <use xlink:href="#DejaVuSans-20" x="105.867188"/>
       <use xlink:href="#DejaVuSans-4c" x="137.654297"/>
       <use xlink:href="#DejaVuSans-65" x="191.617188"/>
       <use xlink:href="#DejaVuSans-61" x="253.140625"/>
       <use xlink:href="#DejaVuSans-73" x="314.419922"/>
       <use xlink:href="#DejaVuSans-74" x="366.519531"/>
       <use xlink:href="#DejaVuSans-20" x="405.728516"/>
       <use xlink:href="#DejaVuSans-4f" x="437.515625"/>
       <use xlink:href="#DejaVuSans-6e" x="516.226562"/>
       <use xlink:href="#DejaVuSans-65" x="579.605469"/>
       <use xlink:href="#DejaVuSans-20" x="641.128906"/>
       <use xlink:href="#DejaVuSans-4d" x="672.916016"/>
       <use xlink:href="#DejaVuSans-65" x="759.195312"/>
       <use xlink:href="#DejaVuSans-74" x="820.71875"/>
       <use xlink:href="#DejaVuSans-2e" x="859.927734"/>
      </g>
     </g>
    </g>
   </g>
   <g id="matplotlib.axis_2">
    <g id="ytick_1">
     <g id="line2d_4">
      <path d="M 43.78125 176.491756 
L 378.58125 176.491756 
" clip-path="url(#p373f72d6ca)" style="fill: none; stroke-dasharray: 2.96,1.28; stroke-dashoffset: 0; stroke: #b0b0b0; stroke-opacity: 0.7; stroke-width: 0.8"/>
     </g>
     <g id="line2d_5">
      <defs>
       <path id="m4f79f5b583" d="M 0 0 
L -3.5 0 
" style="stroke: #000000; stroke-width: 0.8"/>
      </defs>
      <g>
       <use xlink:href="#m4f79f5b583" x="43.78125" y="176.491756" style="stroke: #000000; stroke-width: 0.8"/>
      </g>
     </g>
     <g id="text_4">
      <!-- 0.0 -->
      <g transform="translate(20.878125 180.290975) scale(0.1 -0.1)">
       <defs>
        <path id="DejaVuSans-30" d="M 2034 4250 
Q 1547 4250 1301 3770 
Q 1056 3291 1056 2328 
Q 1056 1369 1301 889 
Q 1547 409 2034 409 
Q 2525 409 2770 889 
Q 3016 1369 3016 2328 
Q 3016 3291 2770 3770 
Q 2525 4250 2034 4250 
z
M 2034 4750 
Q 2819 4750 3233 4129 
Q 3647 3509 3647 2328 
Q 3647 1150 3233 529 
Q 2819 -91 2034 -91 
Q 1250 -91 836 529 
Q 422 1150 422 2328 
Q 422 3509 836 4129 
Q 1250 4750 2034 4750 
z
" transform="scale(0.015625)"/>
       </defs>
       <use xlink:href="#DejaVuSans-30"/>
       <use xlink:href="#DejaVuSans-2e" x="63.623047"/>
       <use xlink:href="#DejaVuSans-30" x="95.410156"/>
      </g>
     </g>
    </g>
    <g id="ytick_2">
     <g id="line2d_6">
      <path d="M 43.78125 143.393249 
L 378.58125 143.393249 
" clip-path="url(#p373f72d6ca)" style="fill: none; stroke-dasharray: 2.96,1.28; stroke-dashoffset: 0; stroke: #b0b0b0; stroke-opacity: 0.7; stroke-width: 0.8"/>
     </g>
     <g id="line2d_7">
      <g>
       <use xlink:href="#m4f79f5b583" x="43.78125" y="143.393249" style="stroke: #000000; stroke-width: 0.8"/>
      </g>
     </g>
     <g id="text_5">
      <!-- 0.2 -->
      <g transform="translate(20.878125 147.192467) scale(0.1 -0.1)">
       <defs>
        <path id="DejaVuSans-32" d="M 1228 531 
L 3431 531 
L 3431 0 
L 469 0 
L 469 531 
Q 828 903 1448 1529 
Q 2069 2156 2228 2338 
Q 2531 2678 2651 2914 
Q 2772 3150 2772 3378 
Q 2772 3750 2511 3984 
Q 2250 4219 1831 4219 
Q 1534 4219 1204 4116 
Q 875 4013 500 3803 
L 500 4441 
Q 881 4594 1212 4672 
Q 1544 4750 1819 4750 
Q 2544 4750 2975 4387 
Q 3406 4025 3406 3419 
Q 3406 3131 3298 2873 
Q 3191 2616 2906 2266 
Q 2828 2175 2409 1742 
Q 1991 1309 1228 531 
z
" transform="scale(0.015625)"/>
       </defs>
       <use xlink:href="#DejaVuSans-30"/>
       <use xlink:href="#DejaVuSans-2e" x="63.623047"/>
       <use xlink:href="#DejaVuSans-32" x="95.410156"/>
      </g>
     </g>
    </g>
    <g id="ytick_3">
     <g id="line2d_8">
      <path d="M 43.78125 110.294741 
L 378.58125 110.294741 
" clip-path="url(#p373f72d6ca)" style="fill: none; stroke-dasharray: 2.96,1.28; stroke-dashoffset: 0; stroke: #b0b0b0; stroke-opacity: 0.7; stroke-width: 0.8"/>
     </g>
     <g id="line2d_9">
      <g>
       <use xlink:href="#m4f79f5b583" x="43.78125" y="110.294741" style="stroke: #000000; stroke-width: 0.8"/>
      </g>
     </g>
     <g id="text_6">
      <!-- 0.4 -->
      <g transform="translate(20.878125 114.09396) scale(0.1 -0.1)">
       <defs>
        <path id="DejaVuSans-34" d="M 2419 4116 
L 825 1625 
L 2419 1625 
L 2419 4116 
z
M 2253 4666 
L 3047 4666 
L 3047 1625 
L 3713 1625 
L 3713 1100 
L 3047 1100 
L 3047 0 
L 2419 0 
L 2419 1100 
L 313 1100 
L 313 1709 
L 2253 4666 
z
" transform="scale(0.015625)"/>
       </defs>
       <use xlink:href="#DejaVuSans-30"/>
       <use xlink:href="#DejaVuSans-2e" x="63.623047"/>
       <use xlink:href="#DejaVuSans-34" x="95.410156"/>
      </g>
     </g>
    </g>
    <g id="ytick_4">
     <g id="line2d_10">
      <path d="M 43.78125 77.196234 
L 378.58125 77.196234 
" clip-path="url(#p373f72d6ca)" style="fill: none; stroke-dasharray: 2.96,1.28; stroke-dashoffset: 0; stroke: #b0b0b0; stroke-opacity: 0.7; stroke-width: 0.8"/>
     </g>
     <g id="line2d_11">
      <g>
       <use xlink:href="#m4f79f5b583" x="43.78125" y="77.196234" style="stroke: #000000; stroke-width: 0.8"/>
      </g>
     </g>
     <g id="text_7">
      <!-- 0.6 -->
      <g transform="translate(20.878125 80.995452) scale(0.1 -0.1)">
       <defs>
        <path id="DejaVuSans-36" d="M 2113 2584 
Q 1688 2584 1439 2293 
Q 1191 2003 1191 1497 
Q 1191 994 1439 701 
Q 1688 409 2113 409 
Q 2538 409 2786 701 
Q 3034 994 3034 1497 
Q 3034 2003 2786 2293 
Q 2538 2584 2113 2584 
z
M 3366 4563 
L 3366 3988 
Q 3128 4100 2886 4159 
Q 2644 4219 2406 4219 
Q 1781 4219 1451 3797 
Q 1122 3375 1075 2522 
Q 1259 2794 1537 2939 
Q 1816 3084 2150 3084 
Q 2853 3084 3261 2657 
Q 3669 2231 3669 1497 
Q 3669 778 3244 343 
Q 2819 -91 2113 -91 
Q 1303 -91 875 529 
Q 447 1150 447 2328 
Q 447 3434 972 4092 
Q 1497 4750 2381 4750 
Q 2619 4750 2861 4703 
Q 3103 4656 3366 4563 
z
" transform="scale(0.015625)"/>
       </defs>
       <use xlink:href="#DejaVuSans-30"/>
       <use xlink:href="#DejaVuSans-2e" x="63.623047"/>
       <use xlink:href="#DejaVuSans-36" x="95.410156"/>
      </g>
     </g>
    </g>
    <g id="ytick_5">
     <g id="line2d_12">
      <path d="M 43.78125 44.097726 
L 378.58125 44.097726 
" clip-path="url(#p373f72d6ca)" style="fill: none; stroke-dasharray: 2.96,1.28; stroke-dashoffset: 0; stroke: #b0b0b0; stroke-opacity: 0.7; stroke-width: 0.8"/>
     </g>
     <g id="line2d_13">
      <g>
       <use xlink:href="#m4f79f5b583" x="43.78125" y="44.097726" style="stroke: #000000; stroke-width: 0.8"/>
      </g>
     </g>
     <g id="text_8">
      <!-- 0.8 -->
      <g transform="translate(20.878125 47.896945) scale(0.1 -0.1)">
       <defs>
        <path id="DejaVuSans-38" d="M 2034 2216 
Q 1584 2216 1326 1975 
Q 1069 1734 1069 1313 
Q 1069 891 1326 650 
Q 1584 409 2034 409 
Q 2484 409 2743 651 
Q 3003 894 3003 1313 
Q 3003 1734 2745 1975 
Q 2488 2216 2034 2216 
z
M 1403 2484 
Q 997 2584 770 2862 
Q 544 3141 544 3541 
Q 544 4100 942 4425 
Q 1341 4750 2034 4750 
Q 2731 4750 3128 4425 
Q 3525 4100 3525 3541 
Q 3525 3141 3298 2862 
Q 3072 2584 2669 2484 
Q 3125 2378 3379 2068 
Q 3634 1759 3634 1313 
Q 3634 634 3220 271 
Q 2806 -91 2034 -91 
Q 1263 -91 848 271 
Q 434 634 434 1313 
Q 434 1759 690 2068 
Q 947 2378 1403 2484 
z
M 1172 3481 
Q 1172 3119 1398 2916 
Q 1625 2713 2034 2713 
Q 2441 2713 2670 2916 
Q 2900 3119 2900 3481 
Q 2900 3844 2670 4047 
Q 2441 4250 2034 4250 
Q 1625 4250 1398 4047 
Q 1172 3844 1172 3481 
z
" transform="scale(0.015625)"/>
       </defs>
       <use xlink:href="#DejaVuSans-30"/>
       <use xlink:href="#DejaVuSans-2e" x="63.623047"/>
       <use xlink:href="#DejaVuSans-38" x="95.410156"/>
      </g>
     </g>
    </g>
    <g id="ytick_6">
     <g id="line2d_14">
      <path d="M 43.78125 10.999219 
L 378.58125 10.999219 
" clip-path="url(#p373f72d6ca)" style="fill: none; stroke-dasharray: 2.96,1.28; stroke-dashoffset: 0; stroke: #b0b0b0; stroke-opacity: 0.7; stroke-width: 0.8"/>
     </g>
     <g id="line2d_15">
      <g>
       <use xlink:href="#m4f79f5b583" x="43.78125" y="10.999219" style="stroke: #000000; stroke-width: 0.8"/>
      </g>
     </g>
     <g id="text_9">
      <!-- 1.0 -->
      <g transform="translate(20.878125 14.798438) scale(0.1 -0.1)">
       <defs>
        <path id="DejaVuSans-31" d="M 794 531 
L 1825 531 
L 1825 4091 
L 703 3866 
L 703 4441 
L 1819 4666 
L 2450 4666 
L 2450 531 
L 3481 531 
L 3481 0 
L 794 0 
L 794 531 
z
" transform="scale(0.015625)"/>
       </defs>
       <use xlink:href="#DejaVuSans-31"/>
       <use xlink:href="#DejaVuSans-2e" x="63.623047"/>
       <use xlink:href="#DejaVuSans-30" x="95.410156"/>
      </g>
     </g>
    </g>
    <g id="text_10">
     <!-- Proportion -->
     <g transform="translate(14.798438 119.955313) rotate(-90) scale(0.1 -0.1)">
      <defs>
       <path id="DejaVuSans-70" d="M 1159 525 
L 1159 -1331 
L 581 -1331 
L 581 3500 
L 1159 3500 
L 1159 2969 
Q 1341 3281 1617 3432 
Q 1894 3584 2278 3584 
Q 2916 3584 3314 3078 
Q 3713 2572 3713 1747 
Q 3713 922 3314 415 
Q 2916 -91 2278 -91 
Q 1894 -91 1617 61 
Q 1341 213 1159 525 
z
M 3116 1747 
Q 3116 2381 2855 2742 
Q 2594 3103 2138 3103 
Q 1681 3103 1420 2742 
Q 1159 2381 1159 1747 
Q 1159 1113 1420 752 
Q 1681 391 2138 391 
Q 2594 391 2855 752 
Q 3116 1113 3116 1747 
z
" transform="scale(0.015625)"/>
      </defs>
      <use xlink:href="#DejaVuSans-50"/>
      <use xlink:href="#DejaVuSans-72" x="58.552734"/>
      <use xlink:href="#DejaVuSans-6f" x="97.416016"/>
      <use xlink:href="#DejaVuSans-70" x="158.597656"/>
      <use xlink:href="#DejaVuSans-6f" x="222.074219"/>
      <use xlink:href="#DejaVuSans-72" x="283.255859"/>
      <use xlink:href="#DejaVuSans-74" x="324.369141"/>
      <use xlink:href="#DejaVuSans-69" x="363.578125"/>
      <use xlink:href="#DejaVuSans-6f" x="391.361328"/>
      <use xlink:href="#DejaVuSans-6e" x="452.542969"/>
     </g>
    </g>
   </g>
   <g id="patch_3">
    <path d="M 81.72525 104.453137 
L 95.11725 104.453137 
L 95.11725 89.720622 
L 81.72525 89.720622 
L 81.72525 104.453137 
z
" clip-path="url(#p373f72d6ca)" style="fill: #52b297; stroke: #000000; stroke-linejoin: miter"/>
   </g>
   <g id="line2d_16">
    <path d="M 88.42125 104.453137 
L 88.42125 113.303696 
" clip-path="url(#p373f72d6ca)" style="fill: none; stroke: #000000; stroke-linecap: square"/>
   </g>
   <g id="line2d_17">
    <path d="M 88.42125 89.720622 
L 88.42125 80.205189 
" clip-path="url(#p373f72d6ca)" style="fill: none; stroke: #000000; stroke-linecap: square"/>
   </g>
   <g id="line2d_18">
    <path d="M 85.07325 113.303696 
L 91.76925 113.303696 
" clip-path="url(#p373f72d6ca)" style="fill: none; stroke: #000000; stroke-linecap: square"/>
   </g>
   <g id="line2d_19">
    <path d="M 85.07325 80.205189 
L 91.76925 80.205189 
" clip-path="url(#p373f72d6ca)" style="fill: none; stroke: #000000; stroke-linecap: square"/>
   </g>
   <g id="line2d_20"/>
   <g id="patch_4">
    <path d="M 171.00525 164.40891 
L 184.39725 164.40891 
L 184.39725 160.003023 
L 171.00525 160.003023 
L 171.00525 164.40891 
z
" clip-path="url(#p373f72d6ca)" style="fill: #52b297; stroke: #000000; stroke-linejoin: miter"/>
   </g>
   <g id="line2d_21">
    <path d="M 177.70125 164.40891 
L 177.70125 167.073482 
" clip-path="url(#p373f72d6ca)" style="fill: none; stroke: #000000; stroke-linecap: square"/>
   </g>
   <g id="line2d_22">
    <path d="M 177.70125 160.003023 
L 177.70125 155.03902 
" clip-path="url(#p373f72d6ca)" style="fill: none; stroke: #000000; stroke-linecap: square"/>
   </g>
   <g id="line2d_23">
    <path d="M 174.35325 167.073482 
L 181.04925 167.073482 
" clip-path="url(#p373f72d6ca)" style="fill: none; stroke: #000000; stroke-linecap: square"/>
   </g>
   <g id="line2d_24">
    <path d="M 174.35325 155.03902 
L 181.04925 155.03902 
" clip-path="url(#p373f72d6ca)" style="fill: none; stroke: #000000; stroke-linecap: square"/>
   </g>
   <g id="line2d_25"/>
   <g id="patch_5">
    <path d="M 260.28525 87.212887 
L 273.67725 87.212887 
L 273.67725 52.16637 
L 260.28525 52.16637 
L 260.28525 87.212887 
z
" clip-path="url(#p373f72d6ca)" style="fill: #52b297; stroke: #000000; stroke-linejoin: miter"/>
   </g>
   <g id="line2d_26">
    <path d="M 266.98125 87.212887 
L 266.98125 93.745487 
" clip-path="url(#p373f72d6ca)" style="fill: none; stroke: #000000; stroke-linecap: square"/>
   </g>
   <g id="line2d_27">
    <path d="M 266.98125 52.16637 
L 266.98125 41.484686 
" clip-path="url(#p373f72d6ca)" style="fill: none; stroke: #000000; stroke-linecap: square"/>
   </g>
   <g id="line2d_28">
    <path d="M 263.63325 93.745487 
L 270.32925 93.745487 
" clip-path="url(#p373f72d6ca)" style="fill: none; stroke: #000000; stroke-linecap: square"/>
   </g>
   <g id="line2d_29">
    <path d="M 263.63325 41.484686 
L 270.32925 41.484686 
" clip-path="url(#p373f72d6ca)" style="fill: none; stroke: #000000; stroke-linecap: square"/>
   </g>
   <g id="line2d_30"/>
   <g id="patch_6">
    <path d="M 95.11725 103.640917 
L 108.50925 103.640917 
L 108.50925 89.173286 
L 95.11725 89.173286 
L 95.11725 103.640917 
z
" clip-path="url(#p373f72d6ca)" style="fill: #8e4a93; stroke: #000000; stroke-linejoin: miter"/>
   </g>
   <g id="line2d_31">
    <path d="M 101.81325 103.640917 
L 101.81325 110.294741 
" clip-path="url(#p373f72d6ca)" style="fill: none; stroke: #000000; stroke-linecap: square"/>
   </g>
   <g id="line2d_32">
    <path d="M 101.81325 89.173286 
L 101.81325 83.214144 
" clip-path="url(#p373f72d6ca)" style="fill: none; stroke: #000000; stroke-linecap: square"/>
   </g>
   <g id="line2d_33">
    <path d="M 98.46525 110.294741 
L 105.16125 110.294741 
" clip-path="url(#p373f72d6ca)" style="fill: none; stroke: #000000; stroke-linecap: square"/>
   </g>
   <g id="line2d_34">
    <path d="M 98.46525 83.214144 
L 105.16125 83.214144 
" clip-path="url(#p373f72d6ca)" style="fill: none; stroke: #000000; stroke-linecap: square"/>
   </g>
   <g id="line2d_35"/>
   <g id="patch_7">
    <path d="M 184.39725 153.028459 
L 197.78925 153.028459 
L 197.78925 145.177 
L 184.39725 145.177 
L 184.39725 153.028459 
z
" clip-path="url(#p373f72d6ca)" style="fill: #8e4a93; stroke: #000000; stroke-linejoin: miter"/>
   </g>
   <g id="line2d_36">
    <path d="M 191.09325 153.028459 
L 191.09325 159.557636 
" clip-path="url(#p373f72d6ca)" style="fill: none; stroke: #000000; stroke-linecap: square"/>
   </g>
   <g id="line2d_37">
    <path d="M 191.09325 145.177 
L 191.09325 143.393249 
" clip-path="url(#p373f72d6ca)" style="fill: none; stroke: #000000; stroke-linecap: square"/>
   </g>
   <g id="line2d_38">
    <path d="M 187.74525 159.557636 
L 194.44125 159.557636 
" clip-path="url(#p373f72d6ca)" style="fill: none; stroke: #000000; stroke-linecap: square"/>
   </g>
   <g id="line2d_39">
    <path d="M 187.74525 143.393249 
L 194.44125 143.393249 
" clip-path="url(#p373f72d6ca)" style="fill: none; stroke: #000000; stroke-linecap: square"/>
   </g>
   <g id="line2d_40"/>
   <g id="patch_8">
    <path d="M 273.67725 75.236454 
L 287.06925 75.236454 
L 287.06925 52.607762 
L 273.67725 52.607762 
L 273.67725 75.236454 
z
" clip-path="url(#p373f72d6ca)" style="fill: #8e4a93; stroke: #000000; stroke-linejoin: miter"/>
   </g>
   <g id="line2d_41">
    <path d="M 280.37325 75.236454 
L 280.37325 85.035354 
" clip-path="url(#p373f72d6ca)" style="fill: none; stroke: #000000; stroke-linecap: square"/>
   </g>
   <g id="line2d_42">
    <path d="M 280.37325 52.607762 
L 280.37325 46.781389 
" clip-path="url(#p373f72d6ca)" style="fill: none; stroke: #000000; stroke-linecap: square"/>
   </g>
   <g id="line2d_43">
    <path d="M 277.02525 85.035354 
L 283.72125 85.035354 
" clip-path="url(#p373f72d6ca)" style="fill: none; stroke: #000000; stroke-linecap: square"/>
   </g>
   <g id="line2d_44">
    <path d="M 277.02525 46.781389 
L 283.72125 46.781389 
" clip-path="url(#p373f72d6ca)" style="fill: none; stroke: #000000; stroke-linecap: square"/>
   </g>
   <g id="line2d_45"/>
   <g id="patch_9">
    <path d="M 108.50925 99.822167 
L 121.90125 99.822167 
L 121.90125 90.023069 
L 108.50925 90.023069 
L 108.50925 99.822167 
z
" clip-path="url(#p373f72d6ca)" style="fill: #009ee7; stroke: #000000; stroke-linejoin: miter"/>
   </g>
   <g id="line2d_46">
    <path d="M 115.20525 99.822167 
L 115.20525 110.294741 
" clip-path="url(#p373f72d6ca)" style="fill: none; stroke: #000000; stroke-linecap: square"/>
   </g>
   <g id="line2d_47">
    <path d="M 115.20525 90.023069 
L 115.20525 90.023069 
" clip-path="url(#p373f72d6ca)" style="fill: none; stroke: #000000; stroke-linecap: square"/>
   </g>
   <g id="line2d_48">
    <path d="M 111.85725 110.294741 
L 118.55325 110.294741 
" clip-path="url(#p373f72d6ca)" style="fill: none; stroke: #000000; stroke-linecap: square"/>
   </g>
   <g id="line2d_49">
    <path d="M 111.85725 90.023069 
L 118.55325 90.023069 
" clip-path="url(#p373f72d6ca)" style="fill: none; stroke: #000000; stroke-linecap: square"/>
   </g>
   <g id="line2d_50">
    <defs>
     <path id="m11b9fa3f03" d="M 0 3 
C 0.795609 3 1.55874 2.683901 2.12132 2.12132 
C 2.683901 1.55874 3 0.795609 3 0 
C 3 -0.795609 2.683901 -1.55874 2.12132 -2.12132 
C 1.55874 -2.683901 0.795609 -3 0 -3 
C -0.795609 -3 -1.55874 -2.683901 -2.12132 -2.12132 
C -2.683901 -1.55874 -3 -0.795609 -3 0 
C -3 0.795609 -2.683901 1.55874 -2.12132 2.12132 
C -1.55874 2.683901 -0.795609 3 0 3 
z
" style="stroke: #000000"/>
    </defs>
    <g clip-path="url(#p373f72d6ca)">
     <use xlink:href="#m11b9fa3f03" x="115.20525" y="71.178323" style="fill-opacity: 0; stroke: #000000"/>
    </g>
   </g>
   <g id="patch_10">
    <path d="M 197.78925 163.432003 
L 211.18125 163.432003 
L 211.18125 159.137791 
L 197.78925 159.137791 
L 197.78925 163.432003 
z
" clip-path="url(#p373f72d6ca)" style="fill: #009ee7; stroke: #000000; stroke-linejoin: miter"/>
   </g>
   <g id="line2d_51">
    <path d="M 204.48525 163.432003 
L 204.48525 166.651659 
" clip-path="url(#p373f72d6ca)" style="fill: none; stroke: #000000; stroke-linecap: square"/>
   </g>
   <g id="line2d_52">
    <path d="M 204.48525 159.137791 
L 204.48525 154.945636 
" clip-path="url(#p373f72d6ca)" style="fill: none; stroke: #000000; stroke-linecap: square"/>
   </g>
   <g id="line2d_53">
    <path d="M 201.13725 166.651659 
L 207.83325 166.651659 
" clip-path="url(#p373f72d6ca)" style="fill: none; stroke: #000000; stroke-linecap: square"/>
   </g>
   <g id="line2d_54">
    <path d="M 201.13725 154.945636 
L 207.83325 154.945636 
" clip-path="url(#p373f72d6ca)" style="fill: none; stroke: #000000; stroke-linecap: square"/>
   </g>
   <g id="line2d_55"/>
   <g id="patch_11">
    <path d="M 287.06925 89.390421 
L 300.46125 89.390421 
L 300.46125 44.956969 
L 287.06925 44.956969 
L 287.06925 89.390421 
z
" clip-path="url(#p373f72d6ca)" style="fill: #009ee7; stroke: #000000; stroke-linejoin: miter"/>
   </g>
   <g id="line2d_56">
    <path d="M 293.76525 89.390421 
L 293.76525 89.390421 
" clip-path="url(#p373f72d6ca)" style="fill: none; stroke: #000000; stroke-linecap: square"/>
   </g>
   <g id="line2d_57">
    <path d="M 293.76525 44.956969 
L 293.76525 42.308618 
" clip-path="url(#p373f72d6ca)" style="fill: none; stroke: #000000; stroke-linecap: square"/>
   </g>
   <g id="line2d_58">
    <path d="M 290.41725 89.390421 
L 297.11325 89.390421 
" clip-path="url(#p373f72d6ca)" style="fill: none; stroke: #000000; stroke-linecap: square"/>
   </g>
   <g id="line2d_59">
    <path d="M 290.41725 42.308618 
L 297.11325 42.308618 
" clip-path="url(#p373f72d6ca)" style="fill: none; stroke: #000000; stroke-linecap: square"/>
   </g>
   <g id="line2d_60"/>
   <g id="patch_12">
    <path d="M 121.90125 97.56545 
L 135.29325 97.56545 
L 135.29325 91.752442 
L 121.90125 91.752442 
L 121.90125 97.56545 
z
" clip-path="url(#p373f72d6ca)" style="fill: #ef766e; stroke: #000000; stroke-linejoin: miter"/>
   </g>
   <g id="line2d_61">
    <path d="M 128.59725 97.56545 
L 128.59725 101.267875 
" clip-path="url(#p373f72d6ca)" style="fill: none; stroke: #000000; stroke-linecap: square"/>
   </g>
   <g id="line2d_62">
    <path d="M 128.59725 91.752442 
L 128.59725 83.214144 
" clip-path="url(#p373f72d6ca)" style="fill: none; stroke: #000000; stroke-linecap: square"/>
   </g>
   <g id="line2d_63">
    <path d="M 125.24925 101.267875 
L 131.94525 101.267875 
" clip-path="url(#p373f72d6ca)" style="fill: none; stroke: #000000; stroke-linecap: square"/>
   </g>
   <g id="line2d_64">
    <path d="M 125.24925 83.214144 
L 131.94525 83.214144 
" clip-path="url(#p373f72d6ca)" style="fill: none; stroke: #000000; stroke-linecap: square"/>
   </g>
   <g id="line2d_65"/>
   <g id="patch_13">
    <path d="M 211.18125 163.212074 
L 224.57325 163.212074 
L 224.57325 160.611585 
L 211.18125 160.611585 
L 211.18125 163.212074 
z
" clip-path="url(#p373f72d6ca)" style="fill: #ef766e; stroke: #000000; stroke-linejoin: miter"/>
   </g>
   <g id="line2d_66">
    <path d="M 217.87725 163.212074 
L 217.87725 165.309828 
" clip-path="url(#p373f72d6ca)" style="fill: none; stroke: #000000; stroke-linecap: square"/>
   </g>
   <g id="line2d_67">
    <path d="M 217.87725 160.611585 
L 217.87725 160.611585 
" clip-path="url(#p373f72d6ca)" style="fill: none; stroke: #000000; stroke-linecap: square"/>
   </g>
   <g id="line2d_68">
    <path d="M 214.52925 165.309828 
L 221.22525 165.309828 
" clip-path="url(#p373f72d6ca)" style="fill: none; stroke: #000000; stroke-linecap: square"/>
   </g>
   <g id="line2d_69">
    <path d="M 214.52925 160.611585 
L 221.22525 160.611585 
" clip-path="url(#p373f72d6ca)" style="fill: none; stroke: #000000; stroke-linecap: square"/>
   </g>
   <g id="line2d_70">
    <g clip-path="url(#p373f72d6ca)">
     <use xlink:href="#m11b9fa3f03" x="217.87725" y="155.022454" style="fill-opacity: 0; stroke: #000000"/>
    </g>
   </g>
   <g id="patch_14">
    <path d="M 300.46125 78.502754 
L 313.85325 78.502754 
L 313.85325 47.723025 
L 300.46125 47.723025 
L 300.46125 78.502754 
z
" clip-path="url(#p373f72d6ca)" style="fill: #ef766e; stroke: #000000; stroke-linejoin: miter"/>
   </g>
   <g id="line2d_71">
    <path d="M 307.15725 78.502754 
L 307.15725 85.035354 
" clip-path="url(#p373f72d6ca)" style="fill: none; stroke: #000000; stroke-linecap: square"/>
   </g>
   <g id="line2d_72">
    <path d="M 307.15725 47.723025 
L 307.15725 37.129619 
" clip-path="url(#p373f72d6ca)" style="fill: none; stroke: #000000; stroke-linecap: square"/>
   </g>
   <g id="line2d_73">
    <path d="M 303.80925 85.035354 
L 310.50525 85.035354 
" clip-path="url(#p373f72d6ca)" style="fill: none; stroke: #000000; stroke-linecap: square"/>
   </g>
   <g id="line2d_74">
    <path d="M 303.80925 37.129619 
L 310.50525 37.129619 
" clip-path="url(#p373f72d6ca)" style="fill: none; stroke: #000000; stroke-linecap: square"/>
   </g>
   <g id="line2d_75"/>
   <g id="patch_15">
    <path d="M 135.29325 103.26601 
L 148.68525 103.26601 
L 148.68525 98.19688 
L 135.29325 98.19688 
L 135.29325 103.26601 
z
" clip-path="url(#p373f72d6ca)" style="fill: #b9dfd5; stroke: #000000; stroke-linejoin: miter"/>
   </g>
   <g id="line2d_76">
    <path d="M 141.98925 103.26601 
L 141.98925 103.26601 
" clip-path="url(#p373f72d6ca)" style="fill: none; stroke: #000000; stroke-linecap: square"/>
   </g>
   <g id="line2d_77">
    <path d="M 141.98925 98.19688 
L 141.98925 98.010759 
" clip-path="url(#p373f72d6ca)" style="fill: none; stroke: #000000; stroke-linecap: square"/>
   </g>
   <g id="line2d_78">
    <path d="M 138.64125 103.26601 
L 145.33725 103.26601 
" clip-path="url(#p373f72d6ca)" style="fill: none; stroke: #000000; stroke-linecap: square"/>
   </g>
   <g id="line2d_79">
    <path d="M 138.64125 98.010759 
L 145.33725 98.010759 
" clip-path="url(#p373f72d6ca)" style="fill: none; stroke: #000000; stroke-linecap: square"/>
   </g>
   <g id="line2d_80">
    <g clip-path="url(#p373f72d6ca)">
     <use xlink:href="#m11b9fa3f03" x="141.98925" y="116.312652" style="fill-opacity: 0; stroke: #000000"/>
    </g>
   </g>
   <g id="patch_16">
    <path d="M 224.57325 165.210477 
L 237.96525 165.210477 
L 237.96525 161.226674 
L 224.57325 161.226674 
L 224.57325 165.210477 
z
" clip-path="url(#p373f72d6ca)" style="fill: #b9dfd5; stroke: #000000; stroke-linejoin: miter"/>
   </g>
   <g id="line2d_81">
    <path d="M 231.26925 165.210477 
L 231.26925 167.423672 
" clip-path="url(#p373f72d6ca)" style="fill: none; stroke: #000000; stroke-linecap: square"/>
   </g>
   <g id="line2d_82">
    <path d="M 231.26925 161.226674 
L 231.26925 155.577864 
" clip-path="url(#p373f72d6ca)" style="fill: none; stroke: #000000; stroke-linecap: square"/>
   </g>
   <g id="line2d_83">
    <path d="M 227.92125 167.423672 
L 234.61725 167.423672 
" clip-path="url(#p373f72d6ca)" style="fill: none; stroke: #000000; stroke-linecap: square"/>
   </g>
   <g id="line2d_84">
    <path d="M 227.92125 155.577864 
L 234.61725 155.577864 
" clip-path="url(#p373f72d6ca)" style="fill: none; stroke: #000000; stroke-linecap: square"/>
   </g>
   <g id="line2d_85"/>
   <g id="patch_17">
    <path d="M 313.85325 87.212887 
L 327.24525 87.212887 
L 327.24525 63.230594 
L 313.85325 63.230594 
L 313.85325 87.212887 
z
" clip-path="url(#p373f72d6ca)" style="fill: #b9dfd5; stroke: #000000; stroke-linejoin: miter"/>
   </g>
   <g id="line2d_86">
    <path d="M 320.54925 87.212887 
L 320.54925 93.745487 
" clip-path="url(#p373f72d6ca)" style="fill: none; stroke: #000000; stroke-linecap: square"/>
   </g>
   <g id="line2d_87">
    <path d="M 320.54925 63.230594 
L 320.54925 58.904953 
" clip-path="url(#p373f72d6ca)" style="fill: none; stroke: #000000; stroke-linecap: square"/>
   </g>
   <g id="line2d_88">
    <path d="M 317.20125 93.745487 
L 323.89725 93.745487 
" clip-path="url(#p373f72d6ca)" style="fill: none; stroke: #000000; stroke-linecap: square"/>
   </g>
   <g id="line2d_89">
    <path d="M 317.20125 58.904953 
L 323.89725 58.904953 
" clip-path="url(#p373f72d6ca)" style="fill: none; stroke: #000000; stroke-linecap: square"/>
   </g>
   <g id="line2d_90"/>
   <g id="patch_18">
    <path d="M 148.68525 113.575123 
L 162.07725 113.575123 
L 162.07725 105.005562 
L 148.68525 105.005562 
L 148.68525 113.575123 
z
" clip-path="url(#p373f72d6ca)" style="fill: #cca0cf; stroke: #000000; stroke-linejoin: miter"/>
   </g>
   <g id="line2d_91">
    <path d="M 155.38125 113.575123 
L 155.38125 119.321607 
" clip-path="url(#p373f72d6ca)" style="fill: none; stroke: #000000; stroke-linecap: square"/>
   </g>
   <g id="line2d_92">
    <path d="M 155.38125 105.005562 
L 155.38125 92.24101 
" clip-path="url(#p373f72d6ca)" style="fill: none; stroke: #000000; stroke-linecap: square"/>
   </g>
   <g id="line2d_93">
    <path d="M 152.03325 119.321607 
L 158.72925 119.321607 
" clip-path="url(#p373f72d6ca)" style="fill: none; stroke: #000000; stroke-linecap: square"/>
   </g>
   <g id="line2d_94">
    <path d="M 152.03325 92.24101 
L 158.72925 92.24101 
" clip-path="url(#p373f72d6ca)" style="fill: none; stroke: #000000; stroke-linecap: square"/>
   </g>
   <g id="line2d_95"/>
   <g id="patch_19">
    <path d="M 237.96525 165.544917 
L 251.35725 165.544917 
L 251.35725 162.683439 
L 237.96525 162.683439 
L 237.96525 165.544917 
z
" clip-path="url(#p373f72d6ca)" style="fill: #cca0cf; stroke: #000000; stroke-linejoin: miter"/>
   </g>
   <g id="line2d_96">
    <path d="M 244.66125 165.544917 
L 244.66125 167.781623 
" clip-path="url(#p373f72d6ca)" style="fill: none; stroke: #000000; stroke-linecap: square"/>
   </g>
   <g id="line2d_97">
    <path d="M 244.66125 162.683439 
L 244.66125 159.766446 
" clip-path="url(#p373f72d6ca)" style="fill: none; stroke: #000000; stroke-linecap: square"/>
   </g>
   <g id="line2d_98">
    <path d="M 241.31325 167.781623 
L 248.00925 167.781623 
" clip-path="url(#p373f72d6ca)" style="fill: none; stroke: #000000; stroke-linecap: square"/>
   </g>
   <g id="line2d_99">
    <path d="M 241.31325 159.766446 
L 248.00925 159.766446 
" clip-path="url(#p373f72d6ca)" style="fill: none; stroke: #000000; stroke-linecap: square"/>
   </g>
   <g id="line2d_100"/>
   <g id="patch_20">
    <path d="M 327.24525 98.100554 
L 340.63725 98.100554 
L 340.63725 65.761241 
L 327.24525 65.761241 
L 327.24525 98.100554 
z
" clip-path="url(#p373f72d6ca)" style="fill: #cca0cf; stroke: #000000; stroke-linejoin: miter"/>
   </g>
   <g id="line2d_101">
    <path d="M 333.94125 98.100554 
L 333.94125 98.100554 
" clip-path="url(#p373f72d6ca)" style="fill: none; stroke: #000000; stroke-linecap: square"/>
   </g>
   <g id="line2d_102">
    <path d="M 333.94125 65.761241 
L 333.94125 60.199703 
" clip-path="url(#p373f72d6ca)" style="fill: none; stroke: #000000; stroke-linecap: square"/>
   </g>
   <g id="line2d_103">
    <path d="M 330.59325 98.100554 
L 337.28925 98.100554 
" clip-path="url(#p373f72d6ca)" style="fill: none; stroke: #000000; stroke-linecap: square"/>
   </g>
   <g id="line2d_104">
    <path d="M 330.59325 60.199703 
L 337.28925 60.199703 
" clip-path="url(#p373f72d6ca)" style="fill: none; stroke: #000000; stroke-linecap: square"/>
   </g>
   <g id="line2d_105"/>
   <g id="line2d_106">
    <path d="M 81.72525 97.197692 
L 95.11725 97.197692 
" clip-path="url(#p373f72d6ca)" style="fill: none; stroke: #000000"/>
   </g>
   <g id="line2d_107">
    <path d="M 81.72525 96.976067 
L 95.11725 96.976067 
" clip-path="url(#p373f72d6ca)" style="fill: none; stroke: #000000; stroke-opacity: 0"/>
   </g>
   <g id="line2d_108">
    <path d="M 171.00525 162.589205 
L 184.39725 162.589205 
" clip-path="url(#p373f72d6ca)" style="fill: none; stroke: #000000"/>
   </g>
   <g id="line2d_109">
    <path d="M 171.00525 161.822728 
L 184.39725 161.822728 
" clip-path="url(#p373f72d6ca)" style="fill: none; stroke: #000000; stroke-opacity: 0"/>
   </g>
   <g id="line2d_110">
    <path d="M 260.28525 70.381143 
L 273.67725 70.381143 
" clip-path="url(#p373f72d6ca)" style="fill: none; stroke: #000000"/>
   </g>
   <g id="line2d_111">
    <path d="M 260.28525 68.998115 
L 273.67725 68.998115 
" clip-path="url(#p373f72d6ca)" style="fill: none; stroke: #000000; stroke-opacity: 0"/>
   </g>
   <g id="line2d_112">
    <path d="M 95.11725 96.291321 
L 108.50925 96.291321 
" clip-path="url(#p373f72d6ca)" style="fill: none; stroke: #000000"/>
   </g>
   <g id="line2d_113">
    <path d="M 95.11725 96.522882 
L 108.50925 96.522882 
" clip-path="url(#p373f72d6ca)" style="fill: none; stroke: #000000; stroke-opacity: 0"/>
   </g>
   <g id="line2d_114">
    <path d="M 184.39725 148.311826 
L 197.78925 148.311826 
" clip-path="url(#p373f72d6ca)" style="fill: none; stroke: #000000"/>
   </g>
   <g id="line2d_115">
    <path d="M 184.39725 149.893634 
L 197.78925 149.893634 
" clip-path="url(#p373f72d6ca)" style="fill: none; stroke: #000000; stroke-opacity: 0"/>
   </g>
   <g id="line2d_116">
    <path d="M 273.67725 63.26002 
L 287.06925 63.26002 
" clip-path="url(#p373f72d6ca)" style="fill: none; stroke: #000000"/>
   </g>
   <g id="line2d_117">
    <path d="M 273.67725 64.584196 
L 287.06925 64.584196 
" clip-path="url(#p373f72d6ca)" style="fill: none; stroke: #000000; stroke-opacity: 0"/>
   </g>
   <g id="line2d_118">
    <path d="M 108.50925 96.317979 
L 121.90125 96.317979 
" clip-path="url(#p373f72d6ca)" style="fill: none; stroke: #000000"/>
   </g>
   <g id="line2d_119">
    <path d="M 108.50925 93.527256 
L 121.90125 93.527256 
" clip-path="url(#p373f72d6ca)" style="fill: none; stroke: #000000; stroke-opacity: 0"/>
   </g>
   <g id="line2d_120">
    <path d="M 197.78925 161.44698 
L 211.18125 161.44698 
" clip-path="url(#p373f72d6ca)" style="fill: none; stroke: #000000"/>
   </g>
   <g id="line2d_121">
    <path d="M 197.78925 161.122814 
L 211.18125 161.122814 
" clip-path="url(#p373f72d6ca)" style="fill: none; stroke: #000000; stroke-opacity: 0"/>
   </g>
   <g id="line2d_122">
    <path d="M 287.06925 67.615087 
L 300.46125 67.615087 
" clip-path="url(#p373f72d6ca)" style="fill: none; stroke: #000000"/>
   </g>
   <g id="line2d_123">
    <path d="M 287.06925 66.732303 
L 300.46125 66.732303 
" clip-path="url(#p373f72d6ca)" style="fill: none; stroke: #000000; stroke-opacity: 0"/>
   </g>
   <g id="line2d_124">
    <path d="M 121.90125 95.464925 
L 135.29325 95.464925 
" clip-path="url(#p373f72d6ca)" style="fill: none; stroke: #000000"/>
   </g>
   <g id="line2d_125">
    <path d="M 121.90125 93.852967 
L 135.29325 93.852967 
" clip-path="url(#p373f72d6ca)" style="fill: none; stroke: #000000; stroke-opacity: 0"/>
   </g>
   <g id="line2d_126">
    <path d="M 211.18125 162.493725 
L 224.57325 162.493725 
" clip-path="url(#p373f72d6ca)" style="fill: none; stroke: #000000"/>
   </g>
   <g id="line2d_127">
    <path d="M 211.18125 161.329933 
L 224.57325 161.329933 
" clip-path="url(#p373f72d6ca)" style="fill: none; stroke: #000000; stroke-opacity: 0"/>
   </g>
   <g id="line2d_128">
    <path d="M 300.46125 63.78969 
L 313.85325 63.78969 
" clip-path="url(#p373f72d6ca)" style="fill: none; stroke: #000000"/>
   </g>
   <g id="line2d_129">
    <path d="M 300.46125 62.436088 
L 313.85325 62.436088 
" clip-path="url(#p373f72d6ca)" style="fill: none; stroke: #000000; stroke-opacity: 0"/>
   </g>
   <g id="line2d_130">
    <path d="M 135.29325 98.588025 
L 148.68525 98.588025 
" clip-path="url(#p373f72d6ca)" style="fill: none; stroke: #000000"/>
   </g>
   <g id="line2d_131">
    <path d="M 135.29325 102.874865 
L 148.68525 102.874865 
" clip-path="url(#p373f72d6ca)" style="fill: none; stroke: #000000; stroke-opacity: 0"/>
   </g>
   <g id="line2d_132">
    <path d="M 224.57325 163.791178 
L 237.96525 163.791178 
" clip-path="url(#p373f72d6ca)" style="fill: none; stroke: #000000"/>
   </g>
   <g id="line2d_133">
    <path d="M 224.57325 162.645973 
L 237.96525 162.645973 
" clip-path="url(#p373f72d6ca)" style="fill: none; stroke: #000000; stroke-opacity: 0"/>
   </g>
   <g id="line2d_134">
    <path d="M 313.85325 74.853914 
L 327.24525 74.853914 
" clip-path="url(#p373f72d6ca)" style="fill: none; stroke: #000000"/>
   </g>
   <g id="line2d_135">
    <path d="M 313.85325 75.589567 
L 327.24525 75.589567 
" clip-path="url(#p373f72d6ca)" style="fill: none; stroke: #000000; stroke-opacity: 0"/>
   </g>
   <g id="line2d_136">
    <path d="M 148.68525 110.46002 
L 162.07725 110.46002 
" clip-path="url(#p373f72d6ca)" style="fill: none; stroke: #000000"/>
   </g>
   <g id="line2d_137">
    <path d="M 148.68525 108.120664 
L 162.07725 108.120664 
" clip-path="url(#p373f72d6ca)" style="fill: none; stroke: #000000; stroke-opacity: 0"/>
   </g>
   <g id="line2d_138">
    <path d="M 237.96525 164.227559 
L 251.35725 164.227559 
" clip-path="url(#p373f72d6ca)" style="fill: none; stroke: #000000"/>
   </g>
   <g id="line2d_139">
    <path d="M 237.96525 164.000797 
L 251.35725 164.000797 
" clip-path="url(#p373f72d6ca)" style="fill: none; stroke: #000000; stroke-opacity: 0"/>
   </g>
   <g id="line2d_140">
    <path d="M 327.24525 82.85782 
L 340.63725 82.85782 
" clip-path="url(#p373f72d6ca)" style="fill: none; stroke: #000000"/>
   </g>
   <g id="line2d_141">
    <path d="M 327.24525 81.003974 
L 340.63725 81.003974 
" clip-path="url(#p373f72d6ca)" style="fill: none; stroke: #000000; stroke-opacity: 0"/>
   </g>
   <g id="patch_21">
    <path d="M 43.78125 177.319219 
L 43.78125 10.999219 
" style="fill: none; stroke: #000000; stroke-width: 0.8; stroke-linejoin: miter; stroke-linecap: square"/>
   </g>
   <g id="patch_22">
    <path d="M 378.58125 177.319219 
L 378.58125 10.999219 
" style="fill: none; stroke: #000000; stroke-width: 0.8; stroke-linejoin: miter; stroke-linecap: square"/>
   </g>
   <g id="patch_23">
    <path d="M 43.78125 177.319219 
L 378.58125 177.319219 
" style="fill: none; stroke: #000000; stroke-width: 0.8; stroke-linejoin: miter; stroke-linecap: square"/>
   </g>
   <g id="patch_24">
    <path d="M 43.78125 10.999219 
L 378.58125 10.999219 
" style="fill: none; stroke: #000000; stroke-width: 0.8; stroke-linejoin: miter; stroke-linecap: square"/>
   </g>
   <g id="legend_1">
    <g id="patch_25">
     <path d="M 175.053906 107.067969 
L 247.308594 107.067969 
Q 249.308594 107.067969 249.308594 105.067969 
L 249.308594 17.999219 
Q 249.308594 15.999219 247.308594 15.999219 
L 175.053906 15.999219 
Q 173.053906 15.999219 173.053906 17.999219 
L 173.053906 105.067969 
Q 173.053906 107.067969 175.053906 107.067969 
z
" style="fill: #ffffff; opacity: 0.8; stroke: #cccccc; stroke-linejoin: miter"/>
    </g>
    <g id="patch_26">
     <path d="M 177.053906 27.597656 
L 197.053906 27.597656 
L 197.053906 20.597656 
L 177.053906 20.597656 
z
" style="fill: #52b297; stroke: #000000; stroke-linejoin: miter"/>
    </g>
    <g id="text_11">
     <!-- Base 0 -->
     <g transform="translate(205.053906 27.597656) scale(0.1 -0.1)">
      <defs>
       <path id="DejaVuSans-42" d="M 1259 2228 
L 1259 519 
L 2272 519 
Q 2781 519 3026 730 
Q 3272 941 3272 1375 
Q 3272 1813 3026 2020 
Q 2781 2228 2272 2228 
L 1259 2228 
z
M 1259 4147 
L 1259 2741 
L 2194 2741 
Q 2656 2741 2882 2914 
Q 3109 3088 3109 3444 
Q 3109 3797 2882 3972 
Q 2656 4147 2194 4147 
L 1259 4147 
z
M 628 4666 
L 2241 4666 
Q 2963 4666 3353 4366 
Q 3744 4066 3744 3513 
Q 3744 3084 3544 2831 
Q 3344 2578 2956 2516 
Q 3422 2416 3680 2098 
Q 3938 1781 3938 1306 
Q 3938 681 3513 340 
Q 3088 0 2303 0 
L 628 0 
L 628 4666 
z
" transform="scale(0.015625)"/>
      </defs>
      <use xlink:href="#DejaVuSans-42"/>
      <use xlink:href="#DejaVuSans-61" x="68.603516"/>
      <use xlink:href="#DejaVuSans-73" x="129.882812"/>
      <use xlink:href="#DejaVuSans-65" x="181.982422"/>
      <use xlink:href="#DejaVuSans-20" x="243.505859"/>
      <use xlink:href="#DejaVuSans-30" x="275.292969"/>
     </g>
    </g>
    <g id="patch_27">
     <path d="M 177.053906 42.275781 
L 197.053906 42.275781 
L 197.053906 35.275781 
L 177.053906 35.275781 
z
" style="fill: #8e4a93; stroke: #000000; stroke-linejoin: miter"/>
    </g>
    <g id="text_12">
     <!-- Base 05 -->
     <g transform="translate(205.053906 42.275781) scale(0.1 -0.1)">
      <defs>
       <path id="DejaVuSans-35" d="M 691 4666 
L 3169 4666 
L 3169 4134 
L 1269 4134 
L 1269 2991 
Q 1406 3038 1543 3061 
Q 1681 3084 1819 3084 
Q 2600 3084 3056 2656 
Q 3513 2228 3513 1497 
Q 3513 744 3044 326 
Q 2575 -91 1722 -91 
Q 1428 -91 1123 -41 
Q 819 9 494 109 
L 494 744 
Q 775 591 1075 516 
Q 1375 441 1709 441 
Q 2250 441 2565 725 
Q 2881 1009 2881 1497 
Q 2881 1984 2565 2268 
Q 2250 2553 1709 2553 
Q 1456 2553 1204 2497 
Q 953 2441 691 2322 
L 691 4666 
z
" transform="scale(0.015625)"/>
      </defs>
      <use xlink:href="#DejaVuSans-42"/>
      <use xlink:href="#DejaVuSans-61" x="68.603516"/>
      <use xlink:href="#DejaVuSans-73" x="129.882812"/>
      <use xlink:href="#DejaVuSans-65" x="181.982422"/>
      <use xlink:href="#DejaVuSans-20" x="243.505859"/>
      <use xlink:href="#DejaVuSans-30" x="275.292969"/>
      <use xlink:href="#DejaVuSans-35" x="338.916016"/>
     </g>
    </g>
    <g id="patch_28">
     <path d="M 177.053906 56.953906 
L 197.053906 56.953906 
L 197.053906 49.953906 
L 177.053906 49.953906 
z
" style="fill: #009ee7; stroke: #000000; stroke-linejoin: miter"/>
    </g>
    <g id="text_13">
     <!-- PP 0 -->
     <g transform="translate(205.053906 56.953906) scale(0.1 -0.1)">
      <use xlink:href="#DejaVuSans-50"/>
      <use xlink:href="#DejaVuSans-50" x="60.302734"/>
      <use xlink:href="#DejaVuSans-20" x="120.605469"/>
      <use xlink:href="#DejaVuSans-30" x="152.392578"/>
     </g>
    </g>
    <g id="patch_29">
     <path d="M 177.053906 71.632031 
L 197.053906 71.632031 
L 197.053906 64.632031 
L 177.053906 64.632031 
z
" style="fill: #ef766e; stroke: #000000; stroke-linejoin: miter"/>
    </g>
    <g id="text_14">
     <!-- PG 0 -->
     <g transform="translate(205.053906 71.632031) scale(0.1 -0.1)">
      <defs>
       <path id="DejaVuSans-47" d="M 3809 666 
L 3809 1919 
L 2778 1919 
L 2778 2438 
L 4434 2438 
L 4434 434 
Q 4069 175 3628 42 
Q 3188 -91 2688 -91 
Q 1594 -91 976 548 
Q 359 1188 359 2328 
Q 359 3472 976 4111 
Q 1594 4750 2688 4750 
Q 3144 4750 3555 4637 
Q 3966 4525 4313 4306 
L 4313 3634 
Q 3963 3931 3569 4081 
Q 3175 4231 2741 4231 
Q 1884 4231 1454 3753 
Q 1025 3275 1025 2328 
Q 1025 1384 1454 906 
Q 1884 428 2741 428 
Q 3075 428 3337 486 
Q 3600 544 3809 666 
z
" transform="scale(0.015625)"/>
      </defs>
      <use xlink:href="#DejaVuSans-50"/>
      <use xlink:href="#DejaVuSans-47" x="60.302734"/>
      <use xlink:href="#DejaVuSans-20" x="137.792969"/>
      <use xlink:href="#DejaVuSans-30" x="169.580078"/>
     </g>
    </g>
    <g id="patch_30">
     <path d="M 177.053906 86.310156 
L 197.053906 86.310156 
L 197.053906 79.310156 
L 177.053906 79.310156 
z
" style="fill: #b9dfd5; stroke: #000000; stroke-linejoin: miter"/>
    </g>
    <g id="text_15">
     <!-- Csp3 0 -->
     <g transform="translate(205.053906 86.310156) scale(0.1 -0.1)">
      <defs>
       <path id="DejaVuSans-43" d="M 4122 4306 
L 4122 3641 
Q 3803 3938 3442 4084 
Q 3081 4231 2675 4231 
Q 1875 4231 1450 3742 
Q 1025 3253 1025 2328 
Q 1025 1406 1450 917 
Q 1875 428 2675 428 
Q 3081 428 3442 575 
Q 3803 722 4122 1019 
L 4122 359 
Q 3791 134 3420 21 
Q 3050 -91 2638 -91 
Q 1578 -91 968 557 
Q 359 1206 359 2328 
Q 359 3453 968 4101 
Q 1578 4750 2638 4750 
Q 3056 4750 3426 4639 
Q 3797 4528 4122 4306 
z
" transform="scale(0.015625)"/>
       <path id="DejaVuSans-33" d="M 2597 2516 
Q 3050 2419 3304 2112 
Q 3559 1806 3559 1356 
Q 3559 666 3084 287 
Q 2609 -91 1734 -91 
Q 1441 -91 1130 -33 
Q 819 25 488 141 
L 488 750 
Q 750 597 1062 519 
Q 1375 441 1716 441 
Q 2309 441 2620 675 
Q 2931 909 2931 1356 
Q 2931 1769 2642 2001 
Q 2353 2234 1838 2234 
L 1294 2234 
L 1294 2753 
L 1863 2753 
Q 2328 2753 2575 2939 
Q 2822 3125 2822 3475 
Q 2822 3834 2567 4026 
Q 2313 4219 1838 4219 
Q 1578 4219 1281 4162 
Q 984 4106 628 3988 
L 628 4550 
Q 988 4650 1302 4700 
Q 1616 4750 1894 4750 
Q 2613 4750 3031 4423 
Q 3450 4097 3450 3541 
Q 3450 3153 3228 2886 
Q 3006 2619 2597 2516 
z
" transform="scale(0.015625)"/>
      </defs>
      <use xlink:href="#DejaVuSans-43"/>
      <use xlink:href="#DejaVuSans-73" x="69.824219"/>
      <use xlink:href="#DejaVuSans-70" x="121.923828"/>
      <use xlink:href="#DejaVuSans-33" x="185.400391"/>
      <use xlink:href="#DejaVuSans-20" x="249.023438"/>
      <use xlink:href="#DejaVuSans-30" x="280.810547"/>
     </g>
    </g>
    <g id="patch_31">
     <path d="M 177.053906 100.988281 
L 197.053906 100.988281 
L 197.053906 93.988281 
L 177.053906 93.988281 
z
" style="fill: #cca0cf; stroke: #000000; stroke-linejoin: miter"/>
    </g>
    <g id="text_16">
     <!-- LogP 0 -->
     <g transform="translate(205.053906 100.988281) scale(0.1 -0.1)">
      <defs>
       <path id="DejaVuSans-67" d="M 2906 1791 
Q 2906 2416 2648 2759 
Q 2391 3103 1925 3103 
Q 1463 3103 1205 2759 
Q 947 2416 947 1791 
Q 947 1169 1205 825 
Q 1463 481 1925 481 
Q 2391 481 2648 825 
Q 2906 1169 2906 1791 
z
M 3481 434 
Q 3481 -459 3084 -895 
Q 2688 -1331 1869 -1331 
Q 1566 -1331 1297 -1286 
Q 1028 -1241 775 -1147 
L 775 -588 
Q 1028 -725 1275 -790 
Q 1522 -856 1778 -856 
Q 2344 -856 2625 -561 
Q 2906 -266 2906 331 
L 2906 616 
Q 2728 306 2450 153 
Q 2172 0 1784 0 
Q 1141 0 747 490 
Q 353 981 353 1791 
Q 353 2603 747 3093 
Q 1141 3584 1784 3584 
Q 2172 3584 2450 3431 
Q 2728 3278 2906 2969 
L 2906 3500 
L 3481 3500 
L 3481 434 
z
" transform="scale(0.015625)"/>
      </defs>
      <use xlink:href="#DejaVuSans-4c"/>
      <use xlink:href="#DejaVuSans-6f" x="53.962891"/>
      <use xlink:href="#DejaVuSans-67" x="115.144531"/>
      <use xlink:href="#DejaVuSans-50" x="178.621094"/>
      <use xlink:href="#DejaVuSans-20" x="238.923828"/>
      <use xlink:href="#DejaVuSans-30" x="270.710938"/>
     </g>
    </g>
   </g>
  </g>
 </g>
 <defs>
  <clipPath id="p373f72d6ca">
   <rect x="43.78125" y="10.999219" width="334.8" height="166.32"/>
  </clipPath>
 </defs>
</svg>
