<?xml version="1.0" encoding="utf-8" standalone="no"?>
<!DOCTYPE svg PUBLIC "-//W3C//DTD SVG 1.1//EN"
  "http://www.w3.org/Graphics/SVG/1.1/DTD/svg11.dtd">
<svg xmlns:xlink="http://www.w3.org/1999/xlink" width="385.78125pt" height="201.197344pt" viewBox="0 0 385.78125 201.197344" xmlns="http://www.w3.org/2000/svg" version="1.1">
 <metadata>
  <rdf:RDF xmlns:dc="http://purl.org/dc/elements/1.1/" xmlns:cc="http://creativecommons.org/ns#" xmlns:rdf="http://www.w3.org/1999/02/22-rdf-syntax-ns#">
   <cc:Work>
    <dc:type rdf:resource="http://purl.org/dc/dcmitype/StillImage"/>
    <dc:date>2025-06-12T09:07:47.143513</dc:date>
    <dc:format>image/svg+xml</dc:format>
    <dc:creator>
     <cc:Agent>
      <dc:title>Matplotlib v3.9.4, https://matplotlib.org/</dc:title>
     </cc:Agent>
    </dc:creator>
   </cc:Work>
  </rdf:RDF>
 </metadata>
 <defs>
  <style type="text/css">*{stroke-linejoin: round; stroke-linecap: butt}</style>
 </defs>
 <g id="figure_1">
  <g id="patch_1">
   <path d="M 0 201.197344 
L 385.78125 201.197344 
L 385.78125 0 
L 0 0 
z
" style="fill: #ffffff"/>
  </g>
  <g id="axes_1">
   <g id="patch_2">
    <path d="M 43.78125 177.319219 
L 378.58125 177.319219 
L 378.58125 10.999219 
L 43.78125 10.999219 
z
" style="fill: #ffffff"/>
   </g>
   <g id="matplotlib.axis_1">
    <g id="xtick_1">
     <g id="line2d_1">
      <defs>
       <path id="mb875f142e6" d="M 0 0 
L 0 3.5 
" style="stroke: #000000; stroke-width: 0.8"/>
      </defs>
      <g>
       <use xlink:href="#mb875f142e6" x="114.137772" y="177.319219" style="stroke: #000000; stroke-width: 0.8"/>
      </g>
     </g>
     <g id="text_1">
      <!-- Recall -->
      <g transform="translate(99.220584 191.917656) scale(0.1 -0.1)">
       <defs>
        <path id="DejaVuSans-52" d="M 2841 2188 
Q 3044 2119 3236 1894 
Q 3428 1669 3622 1275 
L 4263 0 
L 3584 0 
L 2988 1197 
Q 2756 1666 2539 1819 
Q 2322 1972 1947 1972 
L 1259 1972 
L 1259 0 
L 628 0 
L 628 4666 
L 2053 4666 
Q 2853 4666 3247 4331 
Q 3641 3997 3641 3322 
Q 3641 2881 3436 2590 
Q 3231 2300 2841 2188 
z
M 1259 4147 
L 1259 2491 
L 2053 2491 
Q 2509 2491 2742 2702 
Q 2975 2913 2975 3322 
Q 2975 3731 2742 3939 
Q 2509 4147 2053 4147 
L 1259 4147 
z
" transform="scale(0.015625)"/>
        <path id="DejaVuSans-65" d="M 3597 1894 
L 3597 1613 
L 953 1613 
Q 991 1019 1311 708 
Q 1631 397 2203 397 
Q 2534 397 2845 478 
Q 3156 559 3463 722 
L 3463 178 
Q 3153 47 2828 -22 
Q 2503 -91 2169 -91 
Q 1331 -91 842 396 
Q 353 884 353 1716 
Q 353 2575 817 3079 
Q 1281 3584 2069 3584 
Q 2775 3584 3186 3129 
Q 3597 2675 3597 1894 
z
M 3022 2063 
Q 3016 2534 2758 2815 
Q 2500 3097 2075 3097 
Q 1594 3097 1305 2825 
Q 1016 2553 972 2059 
L 3022 2063 
z
" transform="scale(0.015625)"/>
        <path id="DejaVuSans-63" d="M 3122 3366 
L 3122 2828 
Q 2878 2963 2633 3030 
Q 2388 3097 2138 3097 
Q 1578 3097 1268 2742 
Q 959 2388 959 1747 
Q 959 1106 1268 751 
Q 1578 397 2138 397 
Q 2388 397 2633 464 
Q 2878 531 3122 666 
L 3122 134 
Q 2881 22 2623 -34 
Q 2366 -91 2075 -91 
Q 1284 -91 818 406 
Q 353 903 353 1747 
Q 353 2603 823 3093 
Q 1294 3584 2113 3584 
Q 2378 3584 2631 3529 
Q 2884 3475 3122 3366 
z
" transform="scale(0.015625)"/>
        <path id="DejaVuSans-61" d="M 2194 1759 
Q 1497 1759 1228 1600 
Q 959 1441 959 1056 
Q 959 750 1161 570 
Q 1363 391 1709 391 
Q 2188 391 2477 730 
Q 2766 1069 2766 1631 
L 2766 1759 
L 2194 1759 
z
M 3341 1997 
L 3341 0 
L 2766 0 
L 2766 531 
Q 2569 213 2275 61 
Q 1981 -91 1556 -91 
Q 1019 -91 701 211 
Q 384 513 384 1019 
Q 384 1609 779 1909 
Q 1175 2209 1959 2209 
L 2766 2209 
L 2766 2266 
Q 2766 2663 2505 2880 
Q 2244 3097 1772 3097 
Q 1472 3097 1187 3025 
Q 903 2953 641 2809 
L 641 3341 
Q 956 3463 1253 3523 
Q 1550 3584 1831 3584 
Q 2591 3584 2966 3190 
Q 3341 2797 3341 1997 
z
" transform="scale(0.015625)"/>
        <path id="DejaVuSans-6c" d="M 603 4863 
L 1178 4863 
L 1178 0 
L 603 0 
L 603 4863 
z
" transform="scale(0.015625)"/>
       </defs>
       <use xlink:href="#DejaVuSans-52"/>
       <use xlink:href="#DejaVuSans-65" x="64.982422"/>
       <use xlink:href="#DejaVuSans-63" x="126.505859"/>
       <use xlink:href="#DejaVuSans-61" x="181.486328"/>
       <use xlink:href="#DejaVuSans-6c" x="242.765625"/>
       <use xlink:href="#DejaVuSans-6c" x="270.548828"/>
      </g>
     </g>
    </g>
    <g id="xtick_2">
     <g id="line2d_2">
      <g>
       <use xlink:href="#mb875f142e6" x="211.18125" y="177.319219" style="stroke: #000000; stroke-width: 0.8"/>
      </g>
     </g>
     <g id="text_2">
      <!-- Precision -->
      <g transform="translate(188.874219 191.917656) scale(0.1 -0.1)">
       <defs>
        <path id="DejaVuSans-50" d="M 1259 4147 
L 1259 2394 
L 2053 2394 
Q 2494 2394 2734 2622 
Q 2975 2850 2975 3272 
Q 2975 3691 2734 3919 
Q 2494 4147 2053 4147 
L 1259 4147 
z
M 628 4666 
L 2053 4666 
Q 2838 4666 3239 4311 
Q 3641 3956 3641 3272 
Q 3641 2581 3239 2228 
Q 2838 1875 2053 1875 
L 1259 1875 
L 1259 0 
L 628 0 
L 628 4666 
z
" transform="scale(0.015625)"/>
        <path id="DejaVuSans-72" d="M 2631 2963 
Q 2534 3019 2420 3045 
Q 2306 3072 2169 3072 
Q 1681 3072 1420 2755 
Q 1159 2438 1159 1844 
L 1159 0 
L 581 0 
L 581 3500 
L 1159 3500 
L 1159 2956 
Q 1341 3275 1631 3429 
Q 1922 3584 2338 3584 
Q 2397 3584 2469 3576 
Q 2541 3569 2628 3553 
L 2631 2963 
z
" transform="scale(0.015625)"/>
        <path id="DejaVuSans-69" d="M 603 3500 
L 1178 3500 
L 1178 0 
L 603 0 
L 603 3500 
z
M 603 4863 
L 1178 4863 
L 1178 4134 
L 603 4134 
L 603 4863 
z
" transform="scale(0.015625)"/>
        <path id="DejaVuSans-73" d="M 2834 3397 
L 2834 2853 
Q 2591 2978 2328 3040 
Q 2066 3103 1784 3103 
Q 1356 3103 1142 2972 
Q 928 2841 928 2578 
Q 928 2378 1081 2264 
Q 1234 2150 1697 2047 
L 1894 2003 
Q 2506 1872 2764 1633 
Q 3022 1394 3022 966 
Q 3022 478 2636 193 
Q 2250 -91 1575 -91 
Q 1294 -91 989 -36 
Q 684 19 347 128 
L 347 722 
Q 666 556 975 473 
Q 1284 391 1588 391 
Q 1994 391 2212 530 
Q 2431 669 2431 922 
Q 2431 1156 2273 1281 
Q 2116 1406 1581 1522 
L 1381 1569 
Q 847 1681 609 1914 
Q 372 2147 372 2553 
Q 372 3047 722 3315 
Q 1072 3584 1716 3584 
Q 2034 3584 2315 3537 
Q 2597 3491 2834 3397 
z
" transform="scale(0.015625)"/>
        <path id="DejaVuSans-6f" d="M 1959 3097 
Q 1497 3097 1228 2736 
Q 959 2375 959 1747 
Q 959 1119 1226 758 
Q 1494 397 1959 397 
Q 2419 397 2687 759 
Q 2956 1122 2956 1747 
Q 2956 2369 2687 2733 
Q 2419 3097 1959 3097 
z
M 1959 3584 
Q 2709 3584 3137 3096 
Q 3566 2609 3566 1747 
Q 3566 888 3137 398 
Q 2709 -91 1959 -91 
Q 1206 -91 779 398 
Q 353 888 353 1747 
Q 353 2609 779 3096 
Q 1206 3584 1959 3584 
z
" transform="scale(0.015625)"/>
        <path id="DejaVuSans-6e" d="M 3513 2113 
L 3513 0 
L 2938 0 
L 2938 2094 
Q 2938 2591 2744 2837 
Q 2550 3084 2163 3084 
Q 1697 3084 1428 2787 
Q 1159 2491 1159 1978 
L 1159 0 
L 581 0 
L 581 3500 
L 1159 3500 
L 1159 2956 
Q 1366 3272 1645 3428 
Q 1925 3584 2291 3584 
Q 2894 3584 3203 3211 
Q 3513 2838 3513 2113 
z
" transform="scale(0.015625)"/>
       </defs>
       <use xlink:href="#DejaVuSans-50"/>
       <use xlink:href="#DejaVuSans-72" x="58.552734"/>
       <use xlink:href="#DejaVuSans-65" x="97.416016"/>
       <use xlink:href="#DejaVuSans-63" x="158.939453"/>
       <use xlink:href="#DejaVuSans-69" x="213.919922"/>
       <use xlink:href="#DejaVuSans-73" x="241.703125"/>
       <use xlink:href="#DejaVuSans-69" x="293.802734"/>
       <use xlink:href="#DejaVuSans-6f" x="321.585938"/>
       <use xlink:href="#DejaVuSans-6e" x="382.767578"/>
      </g>
     </g>
    </g>
    <g id="xtick_3">
     <g id="line2d_3">
      <g>
       <use xlink:href="#mb875f142e6" x="308.224728" y="177.319219" style="stroke: #000000; stroke-width: 0.8"/>
      </g>
     </g>
     <g id="text_3">
      <!-- At Least One Met. -->
      <g transform="translate(263.639572 191.917656) scale(0.1 -0.1)">
       <defs>
        <path id="DejaVuSans-41" d="M 2188 4044 
L 1331 1722 
L 3047 1722 
L 2188 4044 
z
M 1831 4666 
L 2547 4666 
L 4325 0 
L 3669 0 
L 3244 1197 
L 1141 1197 
L 716 0 
L 50 0 
L 1831 4666 
z
" transform="scale(0.015625)"/>
        <path id="DejaVuSans-74" d="M 1172 4494 
L 1172 3500 
L 2356 3500 
L 2356 3053 
L 1172 3053 
L 1172 1153 
Q 1172 725 1289 603 
Q 1406 481 1766 481 
L 2356 481 
L 2356 0 
L 1766 0 
Q 1100 0 847 248 
Q 594 497 594 1153 
L 594 3053 
L 172 3053 
L 172 3500 
L 594 3500 
L 594 4494 
L 1172 4494 
z
" transform="scale(0.015625)"/>
        <path id="DejaVuSans-20" transform="scale(0.015625)"/>
        <path id="DejaVuSans-4c" d="M 628 4666 
L 1259 4666 
L 1259 531 
L 3531 531 
L 3531 0 
L 628 0 
L 628 4666 
z
" transform="scale(0.015625)"/>
        <path id="DejaVuSans-4f" d="M 2522 4238 
Q 1834 4238 1429 3725 
Q 1025 3213 1025 2328 
Q 1025 1447 1429 934 
Q 1834 422 2522 422 
Q 3209 422 3611 934 
Q 4013 1447 4013 2328 
Q 4013 3213 3611 3725 
Q 3209 4238 2522 4238 
z
M 2522 4750 
Q 3503 4750 4090 4092 
Q 4678 3434 4678 2328 
Q 4678 1225 4090 567 
Q 3503 -91 2522 -91 
Q 1538 -91 948 565 
Q 359 1222 359 2328 
Q 359 3434 948 4092 
Q 1538 4750 2522 4750 
z
" transform="scale(0.015625)"/>
        <path id="DejaVuSans-4d" d="M 628 4666 
L 1569 4666 
L 2759 1491 
L 3956 4666 
L 4897 4666 
L 4897 0 
L 4281 0 
L 4281 4097 
L 3078 897 
L 2444 897 
L 1241 4097 
L 1241 0 
L 628 0 
L 628 4666 
z
" transform="scale(0.015625)"/>
        <path id="DejaVuSans-2e" d="M 684 794 
L 1344 794 
L 1344 0 
L 684 0 
L 684 794 
z
" transform="scale(0.015625)"/>
       </defs>
       <use xlink:href="#DejaVuSans-41"/>
       <use xlink:href="#DejaVuSans-74" x="66.658203"/>
       <use xlink:href="#DejaVuSans-20" x="105.867188"/>
       <use xlink:href="#DejaVuSans-4c" x="137.654297"/>
       <use xlink:href="#DejaVuSans-65" x="191.617188"/>
       <use xlink:href="#DejaVuSans-61" x="253.140625"/>
       <use xlink:href="#DejaVuSans-73" x="314.419922"/>
       <use xlink:href="#DejaVuSans-74" x="366.519531"/>
       <use xlink:href="#DejaVuSans-20" x="405.728516"/>
       <use xlink:href="#DejaVuSans-4f" x="437.515625"/>
       <use xlink:href="#DejaVuSans-6e" x="516.226562"/>
       <use xlink:href="#DejaVuSans-65" x="579.605469"/>
       <use xlink:href="#DejaVuSans-20" x="641.128906"/>
       <use xlink:href="#DejaVuSans-4d" x="672.916016"/>
       <use xlink:href="#DejaVuSans-65" x="759.195312"/>
       <use xlink:href="#DejaVuSans-74" x="820.71875"/>
       <use xlink:href="#DejaVuSans-2e" x="859.927734"/>
      </g>
     </g>
    </g>
   </g>
   <g id="matplotlib.axis_2">
    <g id="ytick_1">
     <g id="line2d_4">
      <path d="M 43.78125 176.491756 
L 378.58125 176.491756 
" clip-path="url(#p2631413cf6)" style="fill: none; stroke-dasharray: 2.96,1.28; stroke-dashoffset: 0; stroke: #b0b0b0; stroke-opacity: 0.7; stroke-width: 0.8"/>
     </g>
     <g id="line2d_5">
      <defs>
       <path id="m9c7c24b07d" d="M 0 0 
L -3.5 0 
" style="stroke: #000000; stroke-width: 0.8"/>
      </defs>
      <g>
       <use xlink:href="#m9c7c24b07d" x="43.78125" y="176.491756" style="stroke: #000000; stroke-width: 0.8"/>
      </g>
     </g>
     <g id="text_4">
      <!-- 0.0 -->
      <g transform="translate(20.878125 180.290975) scale(0.1 -0.1)">
       <defs>
        <path id="DejaVuSans-30" d="M 2034 4250 
Q 1547 4250 1301 3770 
Q 1056 3291 1056 2328 
Q 1056 1369 1301 889 
Q 1547 409 2034 409 
Q 2525 409 2770 889 
Q 3016 1369 3016 2328 
Q 3016 3291 2770 3770 
Q 2525 4250 2034 4250 
z
M 2034 4750 
Q 2819 4750 3233 4129 
Q 3647 3509 3647 2328 
Q 3647 1150 3233 529 
Q 2819 -91 2034 -91 
Q 1250 -91 836 529 
Q 422 1150 422 2328 
Q 422 3509 836 4129 
Q 1250 4750 2034 4750 
z
" transform="scale(0.015625)"/>
       </defs>
       <use xlink:href="#DejaVuSans-30"/>
       <use xlink:href="#DejaVuSans-2e" x="63.623047"/>
       <use xlink:href="#DejaVuSans-30" x="95.410156"/>
      </g>
     </g>
    </g>
    <g id="ytick_2">
     <g id="line2d_6">
      <path d="M 43.78125 143.393249 
L 378.58125 143.393249 
" clip-path="url(#p2631413cf6)" style="fill: none; stroke-dasharray: 2.96,1.28; stroke-dashoffset: 0; stroke: #b0b0b0; stroke-opacity: 0.7; stroke-width: 0.8"/>
     </g>
     <g id="line2d_7">
      <g>
       <use xlink:href="#m9c7c24b07d" x="43.78125" y="143.393249" style="stroke: #000000; stroke-width: 0.8"/>
      </g>
     </g>
     <g id="text_5">
      <!-- 0.2 -->
      <g transform="translate(20.878125 147.192467) scale(0.1 -0.1)">
       <defs>
        <path id="DejaVuSans-32" d="M 1228 531 
L 3431 531 
L 3431 0 
L 469 0 
L 469 531 
Q 828 903 1448 1529 
Q 2069 2156 2228 2338 
Q 2531 2678 2651 2914 
Q 2772 3150 2772 3378 
Q 2772 3750 2511 3984 
Q 2250 4219 1831 4219 
Q 1534 4219 1204 4116 
Q 875 4013 500 3803 
L 500 4441 
Q 881 4594 1212 4672 
Q 1544 4750 1819 4750 
Q 2544 4750 2975 4387 
Q 3406 4025 3406 3419 
Q 3406 3131 3298 2873 
Q 3191 2616 2906 2266 
Q 2828 2175 2409 1742 
Q 1991 1309 1228 531 
z
" transform="scale(0.015625)"/>
       </defs>
       <use xlink:href="#DejaVuSans-30"/>
       <use xlink:href="#DejaVuSans-2e" x="63.623047"/>
       <use xlink:href="#DejaVuSans-32" x="95.410156"/>
      </g>
     </g>
    </g>
    <g id="ytick_3">
     <g id="line2d_8">
      <path d="M 43.78125 110.294741 
L 378.58125 110.294741 
" clip-path="url(#p2631413cf6)" style="fill: none; stroke-dasharray: 2.96,1.28; stroke-dashoffset: 0; stroke: #b0b0b0; stroke-opacity: 0.7; stroke-width: 0.8"/>
     </g>
     <g id="line2d_9">
      <g>
       <use xlink:href="#m9c7c24b07d" x="43.78125" y="110.294741" style="stroke: #000000; stroke-width: 0.8"/>
      </g>
     </g>
     <g id="text_6">
      <!-- 0.4 -->
      <g transform="translate(20.878125 114.09396) scale(0.1 -0.1)">
       <defs>
        <path id="DejaVuSans-34" d="M 2419 4116 
L 825 1625 
L 2419 1625 
L 2419 4116 
z
M 2253 4666 
L 3047 4666 
L 3047 1625 
L 3713 1625 
L 3713 1100 
L 3047 1100 
L 3047 0 
L 2419 0 
L 2419 1100 
L 313 1100 
L 313 1709 
L 2253 4666 
z
" transform="scale(0.015625)"/>
       </defs>
       <use xlink:href="#DejaVuSans-30"/>
       <use xlink:href="#DejaVuSans-2e" x="63.623047"/>
       <use xlink:href="#DejaVuSans-34" x="95.410156"/>
      </g>
     </g>
    </g>
    <g id="ytick_4">
     <g id="line2d_10">
      <path d="M 43.78125 77.196234 
L 378.58125 77.196234 
" clip-path="url(#p2631413cf6)" style="fill: none; stroke-dasharray: 2.96,1.28; stroke-dashoffset: 0; stroke: #b0b0b0; stroke-opacity: 0.7; stroke-width: 0.8"/>
     </g>
     <g id="line2d_11">
      <g>
       <use xlink:href="#m9c7c24b07d" x="43.78125" y="77.196234" style="stroke: #000000; stroke-width: 0.8"/>
      </g>
     </g>
     <g id="text_7">
      <!-- 0.6 -->
      <g transform="translate(20.878125 80.995452) scale(0.1 -0.1)">
       <defs>
        <path id="DejaVuSans-36" d="M 2113 2584 
Q 1688 2584 1439 2293 
Q 1191 2003 1191 1497 
Q 1191 994 1439 701 
Q 1688 409 2113 409 
Q 2538 409 2786 701 
Q 3034 994 3034 1497 
Q 3034 2003 2786 2293 
Q 2538 2584 2113 2584 
z
M 3366 4563 
L 3366 3988 
Q 3128 4100 2886 4159 
Q 2644 4219 2406 4219 
Q 1781 4219 1451 3797 
Q 1122 3375 1075 2522 
Q 1259 2794 1537 2939 
Q 1816 3084 2150 3084 
Q 2853 3084 3261 2657 
Q 3669 2231 3669 1497 
Q 3669 778 3244 343 
Q 2819 -91 2113 -91 
Q 1303 -91 875 529 
Q 447 1150 447 2328 
Q 447 3434 972 4092 
Q 1497 4750 2381 4750 
Q 2619 4750 2861 4703 
Q 3103 4656 3366 4563 
z
" transform="scale(0.015625)"/>
       </defs>
       <use xlink:href="#DejaVuSans-30"/>
       <use xlink:href="#DejaVuSans-2e" x="63.623047"/>
       <use xlink:href="#DejaVuSans-36" x="95.410156"/>
      </g>
     </g>
    </g>
    <g id="ytick_5">
     <g id="line2d_12">
      <path d="M 43.78125 44.097726 
L 378.58125 44.097726 
" clip-path="url(#p2631413cf6)" style="fill: none; stroke-dasharray: 2.96,1.28; stroke-dashoffset: 0; stroke: #b0b0b0; stroke-opacity: 0.7; stroke-width: 0.8"/>
     </g>
     <g id="line2d_13">
      <g>
       <use xlink:href="#m9c7c24b07d" x="43.78125" y="44.097726" style="stroke: #000000; stroke-width: 0.8"/>
      </g>
     </g>
     <g id="text_8">
      <!-- 0.8 -->
      <g transform="translate(20.878125 47.896945) scale(0.1 -0.1)">
       <defs>
        <path id="DejaVuSans-38" d="M 2034 2216 
Q 1584 2216 1326 1975 
Q 1069 1734 1069 1313 
Q 1069 891 1326 650 
Q 1584 409 2034 409 
Q 2484 409 2743 651 
Q 3003 894 3003 1313 
Q 3003 1734 2745 1975 
Q 2488 2216 2034 2216 
z
M 1403 2484 
Q 997 2584 770 2862 
Q 544 3141 544 3541 
Q 544 4100 942 4425 
Q 1341 4750 2034 4750 
Q 2731 4750 3128 4425 
Q 3525 4100 3525 3541 
Q 3525 3141 3298 2862 
Q 3072 2584 2669 2484 
Q 3125 2378 3379 2068 
Q 3634 1759 3634 1313 
Q 3634 634 3220 271 
Q 2806 -91 2034 -91 
Q 1263 -91 848 271 
Q 434 634 434 1313 
Q 434 1759 690 2068 
Q 947 2378 1403 2484 
z
M 1172 3481 
Q 1172 3119 1398 2916 
Q 1625 2713 2034 2713 
Q 2441 2713 2670 2916 
Q 2900 3119 2900 3481 
Q 2900 3844 2670 4047 
Q 2441 4250 2034 4250 
Q 1625 4250 1398 4047 
Q 1172 3844 1172 3481 
z
" transform="scale(0.015625)"/>
       </defs>
       <use xlink:href="#DejaVuSans-30"/>
       <use xlink:href="#DejaVuSans-2e" x="63.623047"/>
       <use xlink:href="#DejaVuSans-38" x="95.410156"/>
      </g>
     </g>
    </g>
    <g id="ytick_6">
     <g id="line2d_14">
      <path d="M 43.78125 10.999219 
L 378.58125 10.999219 
" clip-path="url(#p2631413cf6)" style="fill: none; stroke-dasharray: 2.96,1.28; stroke-dashoffset: 0; stroke: #b0b0b0; stroke-opacity: 0.7; stroke-width: 0.8"/>
     </g>
     <g id="line2d_15">
      <g>
       <use xlink:href="#m9c7c24b07d" x="43.78125" y="10.999219" style="stroke: #000000; stroke-width: 0.8"/>
      </g>
     </g>
     <g id="text_9">
      <!-- 1.0 -->
      <g transform="translate(20.878125 14.798438) scale(0.1 -0.1)">
       <defs>
        <path id="DejaVuSans-31" d="M 794 531 
L 1825 531 
L 1825 4091 
L 703 3866 
L 703 4441 
L 1819 4666 
L 2450 4666 
L 2450 531 
L 3481 531 
L 3481 0 
L 794 0 
L 794 531 
z
" transform="scale(0.015625)"/>
       </defs>
       <use xlink:href="#DejaVuSans-31"/>
       <use xlink:href="#DejaVuSans-2e" x="63.623047"/>
       <use xlink:href="#DejaVuSans-30" x="95.410156"/>
      </g>
     </g>
    </g>
    <g id="text_10">
     <!-- Proportion -->
     <g transform="translate(14.798438 119.955313) rotate(-90) scale(0.1 -0.1)">
      <defs>
       <path id="DejaVuSans-70" d="M 1159 525 
L 1159 -1331 
L 581 -1331 
L 581 3500 
L 1159 3500 
L 1159 2969 
Q 1341 3281 1617 3432 
Q 1894 3584 2278 3584 
Q 2916 3584 3314 3078 
Q 3713 2572 3713 1747 
Q 3713 922 3314 415 
Q 2916 -91 2278 -91 
Q 1894 -91 1617 61 
Q 1341 213 1159 525 
z
M 3116 1747 
Q 3116 2381 2855 2742 
Q 2594 3103 2138 3103 
Q 1681 3103 1420 2742 
Q 1159 2381 1159 1747 
Q 1159 1113 1420 752 
Q 1681 391 2138 391 
Q 2594 391 2855 752 
Q 3116 1113 3116 1747 
z
" transform="scale(0.015625)"/>
      </defs>
      <use xlink:href="#DejaVuSans-50"/>
      <use xlink:href="#DejaVuSans-72" x="58.552734"/>
      <use xlink:href="#DejaVuSans-6f" x="97.416016"/>
      <use xlink:href="#DejaVuSans-70" x="158.597656"/>
      <use xlink:href="#DejaVuSans-6f" x="222.074219"/>
      <use xlink:href="#DejaVuSans-72" x="283.255859"/>
      <use xlink:href="#DejaVuSans-74" x="324.369141"/>
      <use xlink:href="#DejaVuSans-69" x="363.578125"/>
      <use xlink:href="#DejaVuSans-6f" x="391.361328"/>
      <use xlink:href="#DejaVuSans-6e" x="452.542969"/>
     </g>
    </g>
   </g>
   <g id="patch_3">
    <path d="M 85.024728 103.640917 
L 99.58125 103.640917 
L 99.58125 89.173286 
L 85.024728 89.173286 
L 85.024728 103.640917 
z
" clip-path="url(#p2631413cf6)" style="fill: #52b297; stroke: #000000; stroke-linejoin: miter"/>
   </g>
   <g id="line2d_16">
    <path d="M 92.302989 103.640917 
L 92.302989 110.294741 
" clip-path="url(#p2631413cf6)" style="fill: none; stroke: #000000; stroke-linecap: square"/>
   </g>
   <g id="line2d_17">
    <path d="M 92.302989 89.173286 
L 92.302989 83.214144 
" clip-path="url(#p2631413cf6)" style="fill: none; stroke: #000000; stroke-linecap: square"/>
   </g>
   <g id="line2d_18">
    <path d="M 88.663859 110.294741 
L 95.94212 110.294741 
" clip-path="url(#p2631413cf6)" style="fill: none; stroke: #000000; stroke-linecap: square"/>
   </g>
   <g id="line2d_19">
    <path d="M 88.663859 83.214144 
L 95.94212 83.214144 
" clip-path="url(#p2631413cf6)" style="fill: none; stroke: #000000; stroke-linecap: square"/>
   </g>
   <g id="line2d_20"/>
   <g id="patch_4">
    <path d="M 182.068207 153.028459 
L 196.624728 153.028459 
L 196.624728 145.177 
L 182.068207 145.177 
L 182.068207 153.028459 
z
" clip-path="url(#p2631413cf6)" style="fill: #52b297; stroke: #000000; stroke-linejoin: miter"/>
   </g>
   <g id="line2d_21">
    <path d="M 189.346467 153.028459 
L 189.346467 159.557636 
" clip-path="url(#p2631413cf6)" style="fill: none; stroke: #000000; stroke-linecap: square"/>
   </g>
   <g id="line2d_22">
    <path d="M 189.346467 145.177 
L 189.346467 143.393249 
" clip-path="url(#p2631413cf6)" style="fill: none; stroke: #000000; stroke-linecap: square"/>
   </g>
   <g id="line2d_23">
    <path d="M 185.707337 159.557636 
L 192.985598 159.557636 
" clip-path="url(#p2631413cf6)" style="fill: none; stroke: #000000; stroke-linecap: square"/>
   </g>
   <g id="line2d_24">
    <path d="M 185.707337 143.393249 
L 192.985598 143.393249 
" clip-path="url(#p2631413cf6)" style="fill: none; stroke: #000000; stroke-linecap: square"/>
   </g>
   <g id="line2d_25"/>
   <g id="patch_5">
    <path d="M 279.111685 75.236454 
L 293.668207 75.236454 
L 293.668207 52.607762 
L 279.111685 52.607762 
L 279.111685 75.236454 
z
" clip-path="url(#p2631413cf6)" style="fill: #52b297; stroke: #000000; stroke-linejoin: miter"/>
   </g>
   <g id="line2d_26">
    <path d="M 286.389946 75.236454 
L 286.389946 85.035354 
" clip-path="url(#p2631413cf6)" style="fill: none; stroke: #000000; stroke-linecap: square"/>
   </g>
   <g id="line2d_27">
    <path d="M 286.389946 52.607762 
L 286.389946 46.781389 
" clip-path="url(#p2631413cf6)" style="fill: none; stroke: #000000; stroke-linecap: square"/>
   </g>
   <g id="line2d_28">
    <path d="M 282.750815 85.035354 
L 290.029076 85.035354 
" clip-path="url(#p2631413cf6)" style="fill: none; stroke: #000000; stroke-linecap: square"/>
   </g>
   <g id="line2d_29">
    <path d="M 282.750815 46.781389 
L 290.029076 46.781389 
" clip-path="url(#p2631413cf6)" style="fill: none; stroke: #000000; stroke-linecap: square"/>
   </g>
   <g id="line2d_30"/>
   <g id="patch_6">
    <path d="M 99.58125 90.736532 
L 114.137772 90.736532 
L 114.137772 80.91635 
L 99.58125 80.91635 
L 99.58125 90.736532 
z
" clip-path="url(#p2631413cf6)" style="fill: #8e4a93; stroke: #000000; stroke-linejoin: miter"/>
   </g>
   <g id="line2d_31">
    <path d="M 106.859511 90.736532 
L 106.859511 104.276831 
" clip-path="url(#p2631413cf6)" style="fill: none; stroke: #000000; stroke-linecap: square"/>
   </g>
   <g id="line2d_32">
    <path d="M 106.859511 80.91635 
L 106.859511 80.816383 
" clip-path="url(#p2631413cf6)" style="fill: none; stroke: #000000; stroke-linecap: square"/>
   </g>
   <g id="line2d_33">
    <path d="M 103.22038 104.276831 
L 110.498641 104.276831 
" clip-path="url(#p2631413cf6)" style="fill: none; stroke: #000000; stroke-linecap: square"/>
   </g>
   <g id="line2d_34">
    <path d="M 103.22038 80.816383 
L 110.498641 80.816383 
" clip-path="url(#p2631413cf6)" style="fill: none; stroke: #000000; stroke-linecap: square"/>
   </g>
   <g id="line2d_35"/>
   <g id="patch_7">
    <path d="M 196.624728 164.274031 
L 211.18125 164.274031 
L 211.18125 159.027284 
L 196.624728 159.027284 
L 196.624728 164.274031 
z
" clip-path="url(#p2631413cf6)" style="fill: #8e4a93; stroke: #000000; stroke-linejoin: miter"/>
   </g>
   <g id="line2d_36">
    <path d="M 203.902989 164.274031 
L 203.902989 167.233432 
" clip-path="url(#p2631413cf6)" style="fill: none; stroke: #000000; stroke-linecap: square"/>
   </g>
   <g id="line2d_37">
    <path d="M 203.902989 159.027284 
L 203.902989 153.495274 
" clip-path="url(#p2631413cf6)" style="fill: none; stroke: #000000; stroke-linecap: square"/>
   </g>
   <g id="line2d_38">
    <path d="M 200.263859 167.233432 
L 207.54212 167.233432 
" clip-path="url(#p2631413cf6)" style="fill: none; stroke: #000000; stroke-linecap: square"/>
   </g>
   <g id="line2d_39">
    <path d="M 200.263859 153.495274 
L 207.54212 153.495274 
" clip-path="url(#p2631413cf6)" style="fill: none; stroke: #000000; stroke-linecap: square"/>
   </g>
   <g id="line2d_40"/>
   <g id="patch_8">
    <path d="M 293.668207 78.502754 
L 308.224728 78.502754 
L 308.224728 55.609227 
L 293.668207 55.609227 
L 293.668207 78.502754 
z
" clip-path="url(#p2631413cf6)" style="fill: #8e4a93; stroke: #000000; stroke-linejoin: miter"/>
   </g>
   <g id="line2d_41">
    <path d="M 300.946467 78.502754 
L 300.946467 85.035354 
" clip-path="url(#p2631413cf6)" style="fill: none; stroke: #000000; stroke-linecap: square"/>
   </g>
   <g id="line2d_42">
    <path d="M 300.946467 55.609227 
L 300.946467 28.419486 
" clip-path="url(#p2631413cf6)" style="fill: none; stroke: #000000; stroke-linecap: square"/>
   </g>
   <g id="line2d_43">
    <path d="M 297.307337 85.035354 
L 304.585598 85.035354 
" clip-path="url(#p2631413cf6)" style="fill: none; stroke: #000000; stroke-linecap: square"/>
   </g>
   <g id="line2d_44">
    <path d="M 297.307337 28.419486 
L 304.585598 28.419486 
" clip-path="url(#p2631413cf6)" style="fill: none; stroke: #000000; stroke-linecap: square"/>
   </g>
   <g id="line2d_45"/>
   <g id="patch_9">
    <path d="M 114.137772 91.372445 
L 128.694293 91.372445 
L 128.694293 82.285599 
L 114.137772 82.285599 
L 114.137772 91.372445 
z
" clip-path="url(#p2631413cf6)" style="fill: #009ee7; stroke: #000000; stroke-linejoin: miter"/>
   </g>
   <g id="line2d_46">
    <path d="M 121.416033 91.372445 
L 121.416033 91.372445 
" clip-path="url(#p2631413cf6)" style="fill: none; stroke: #000000; stroke-linecap: square"/>
   </g>
   <g id="line2d_47">
    <path d="M 121.416033 82.285599 
L 121.416033 71.178323 
" clip-path="url(#p2631413cf6)" style="fill: none; stroke: #000000; stroke-linecap: square"/>
   </g>
   <g id="line2d_48">
    <path d="M 117.776902 91.372445 
L 125.055163 91.372445 
" clip-path="url(#p2631413cf6)" style="fill: none; stroke: #000000; stroke-linecap: square"/>
   </g>
   <g id="line2d_49">
    <path d="M 117.776902 71.178323 
L 125.055163 71.178323 
" clip-path="url(#p2631413cf6)" style="fill: none; stroke: #000000; stroke-linecap: square"/>
   </g>
   <g id="line2d_50">
    <defs>
     <path id="m1d27e34af6" d="M 0 3 
C 0.795609 3 1.55874 2.683901 2.12132 2.12132 
C 2.683901 1.55874 3 0.795609 3 0 
C 3 -0.795609 2.683901 -1.55874 2.12132 -2.12132 
C 1.55874 -2.683901 0.795609 -3 0 -3 
C -0.795609 -3 -1.55874 -2.683901 -2.12132 -2.12132 
C -2.683901 -1.55874 -3 -0.795609 -3 0 
C -3 0.795609 -2.683901 1.55874 -2.12132 2.12132 
C -1.55874 2.683901 -0.795609 3 0 3 
z
" style="stroke: #000000"/>
    </defs>
    <g clip-path="url(#p2631413cf6)">
     <use xlink:href="#m1d27e34af6" x="121.416033" y="107.285786" style="fill-opacity: 0; stroke: #000000"/>
    </g>
   </g>
   <g id="patch_10">
    <path d="M 211.18125 160.663769 
L 225.737772 160.663769 
L 225.737772 155.955573 
L 211.18125 155.955573 
L 211.18125 160.663769 
z
" clip-path="url(#p2631413cf6)" style="fill: #009ee7; stroke: #000000; stroke-linejoin: miter"/>
   </g>
   <g id="line2d_51">
    <path d="M 218.459511 160.663769 
L 218.459511 165.362141 
" clip-path="url(#p2631413cf6)" style="fill: none; stroke: #000000; stroke-linecap: square"/>
   </g>
   <g id="line2d_52">
    <path d="M 218.459511 155.955573 
L 218.459511 149.336634 
" clip-path="url(#p2631413cf6)" style="fill: none; stroke: #000000; stroke-linecap: square"/>
   </g>
   <g id="line2d_53">
    <path d="M 214.82038 165.362141 
L 222.098641 165.362141 
" clip-path="url(#p2631413cf6)" style="fill: none; stroke: #000000; stroke-linecap: square"/>
   </g>
   <g id="line2d_54">
    <path d="M 214.82038 149.336634 
L 222.098641 149.336634 
" clip-path="url(#p2631413cf6)" style="fill: none; stroke: #000000; stroke-linecap: square"/>
   </g>
   <g id="line2d_55"/>
   <g id="patch_11">
    <path d="M 308.224728 70.881387 
L 322.78125 70.881387 
L 322.78125 39.925101 
L 308.224728 39.925101 
L 308.224728 70.881387 
z
" clip-path="url(#p2631413cf6)" style="fill: #009ee7; stroke: #000000; stroke-linejoin: miter"/>
   </g>
   <g id="line2d_56">
    <path d="M 315.502989 70.881387 
L 315.502989 80.680287 
" clip-path="url(#p2631413cf6)" style="fill: none; stroke: #000000; stroke-linecap: square"/>
   </g>
   <g id="line2d_57">
    <path d="M 315.502989 39.925101 
L 315.502989 32.774553 
" clip-path="url(#p2631413cf6)" style="fill: none; stroke: #000000; stroke-linecap: square"/>
   </g>
   <g id="line2d_58">
    <path d="M 311.863859 80.680287 
L 319.14212 80.680287 
" clip-path="url(#p2631413cf6)" style="fill: none; stroke: #000000; stroke-linecap: square"/>
   </g>
   <g id="line2d_59">
    <path d="M 311.863859 32.774553 
L 319.14212 32.774553 
" clip-path="url(#p2631413cf6)" style="fill: none; stroke: #000000; stroke-linecap: square"/>
   </g>
   <g id="line2d_60"/>
   <g id="patch_12">
    <path d="M 128.694293 88.36349 
L 143.250815 88.36349 
L 143.250815 81.850711 
L 128.694293 81.850711 
L 128.694293 88.36349 
z
" clip-path="url(#p2631413cf6)" style="fill: #ef766e; stroke: #000000; stroke-linejoin: miter"/>
   </g>
   <g id="line2d_61">
    <path d="M 135.972554 88.36349 
L 135.972554 95.249965 
" clip-path="url(#p2631413cf6)" style="fill: none; stroke: #000000; stroke-linecap: square"/>
   </g>
   <g id="line2d_62">
    <path d="M 135.972554 81.850711 
L 135.972554 77.196234 
" clip-path="url(#p2631413cf6)" style="fill: none; stroke: #000000; stroke-linecap: square"/>
   </g>
   <g id="line2d_63">
    <path d="M 132.333424 95.249965 
L 139.611685 95.249965 
" clip-path="url(#p2631413cf6)" style="fill: none; stroke: #000000; stroke-linecap: square"/>
   </g>
   <g id="line2d_64">
    <path d="M 132.333424 77.196234 
L 139.611685 77.196234 
" clip-path="url(#p2631413cf6)" style="fill: none; stroke: #000000; stroke-linecap: square"/>
   </g>
   <g id="line2d_65"/>
   <g id="patch_13">
    <path d="M 225.737772 161.420435 
L 240.294293 161.420435 
L 240.294293 158.414959 
L 225.737772 158.414959 
L 225.737772 161.420435 
z
" clip-path="url(#p2631413cf6)" style="fill: #ef766e; stroke: #000000; stroke-linejoin: miter"/>
   </g>
   <g id="line2d_66">
    <path d="M 233.016033 161.420435 
L 233.016033 164.512403 
" clip-path="url(#p2631413cf6)" style="fill: none; stroke: #000000; stroke-linecap: square"/>
   </g>
   <g id="line2d_67">
    <path d="M 233.016033 158.414959 
L 233.016033 158.414959 
" clip-path="url(#p2631413cf6)" style="fill: none; stroke: #000000; stroke-linecap: square"/>
   </g>
   <g id="line2d_68">
    <path d="M 229.376902 164.512403 
L 236.655163 164.512403 
" clip-path="url(#p2631413cf6)" style="fill: none; stroke: #000000; stroke-linecap: square"/>
   </g>
   <g id="line2d_69">
    <path d="M 229.376902 158.414959 
L 236.655163 158.414959 
" clip-path="url(#p2631413cf6)" style="fill: none; stroke: #000000; stroke-linecap: square"/>
   </g>
   <g id="line2d_70">
    <g clip-path="url(#p2631413cf6)">
     <use xlink:href="#m1d27e34af6" x="233.016033" y="152.657233" style="fill-opacity: 0; stroke: #000000"/>
    </g>
   </g>
   <g id="patch_14">
    <path d="M 322.78125 68.703853 
L 337.337772 68.703853 
L 337.337772 44.368447 
L 322.78125 44.368447 
L 322.78125 68.703853 
z
" clip-path="url(#p2631413cf6)" style="fill: #ef766e; stroke: #000000; stroke-linejoin: miter"/>
   </g>
   <g id="line2d_71">
    <path d="M 330.059511 68.703853 
L 330.059511 71.970154 
" clip-path="url(#p2631413cf6)" style="fill: none; stroke: #000000; stroke-linecap: square"/>
   </g>
   <g id="line2d_72">
    <path d="M 330.059511 44.368447 
L 330.059511 37.129619 
" clip-path="url(#p2631413cf6)" style="fill: none; stroke: #000000; stroke-linecap: square"/>
   </g>
   <g id="line2d_73">
    <path d="M 326.42038 71.970154 
L 333.698641 71.970154 
" clip-path="url(#p2631413cf6)" style="fill: none; stroke: #000000; stroke-linecap: square"/>
   </g>
   <g id="line2d_74">
    <path d="M 326.42038 37.129619 
L 333.698641 37.129619 
" clip-path="url(#p2631413cf6)" style="fill: none; stroke: #000000; stroke-linecap: square"/>
   </g>
   <g id="line2d_75"/>
   <g id="line2d_76">
    <path d="M 85.024728 96.291321 
L 99.58125 96.291321 
" clip-path="url(#p2631413cf6)" style="fill: none; stroke: #000000"/>
   </g>
   <g id="line2d_77">
    <path d="M 85.024728 96.522882 
L 99.58125 96.522882 
" clip-path="url(#p2631413cf6)" style="fill: none; stroke: #000000; stroke-opacity: 0"/>
   </g>
   <g id="line2d_78">
    <path d="M 182.068207 148.311826 
L 196.624728 148.311826 
" clip-path="url(#p2631413cf6)" style="fill: none; stroke: #000000"/>
   </g>
   <g id="line2d_79">
    <path d="M 182.068207 149.893634 
L 196.624728 149.893634 
" clip-path="url(#p2631413cf6)" style="fill: none; stroke: #000000; stroke-opacity: 0"/>
   </g>
   <g id="line2d_80">
    <path d="M 279.111685 63.26002 
L 293.668207 63.26002 
" clip-path="url(#p2631413cf6)" style="fill: none; stroke: #000000"/>
   </g>
   <g id="line2d_81">
    <path d="M 279.111685 64.584196 
L 293.668207 64.584196 
" clip-path="url(#p2631413cf6)" style="fill: none; stroke: #000000; stroke-opacity: 0"/>
   </g>
   <g id="line2d_82">
    <path d="M 99.58125 83.586386 
L 114.137772 83.586386 
" clip-path="url(#p2631413cf6)" style="fill: none; stroke: #000000"/>
   </g>
   <g id="line2d_83">
    <path d="M 99.58125 88.066496 
L 114.137772 88.066496 
" clip-path="url(#p2631413cf6)" style="fill: none; stroke: #000000; stroke-opacity: 0"/>
   </g>
   <g id="line2d_84">
    <path d="M 196.624728 162.079426 
L 211.18125 162.079426 
" clip-path="url(#p2631413cf6)" style="fill: none; stroke: #000000"/>
   </g>
   <g id="line2d_85">
    <path d="M 196.624728 161.221889 
L 211.18125 161.221889 
" clip-path="url(#p2631413cf6)" style="fill: none; stroke: #000000; stroke-opacity: 0"/>
   </g>
   <g id="line2d_86">
    <path d="M 293.668207 70.498847 
L 308.224728 70.498847 
" clip-path="url(#p2631413cf6)" style="fill: none; stroke: #000000"/>
   </g>
   <g id="line2d_87">
    <path d="M 293.668207 63.613134 
L 308.224728 63.613134 
" clip-path="url(#p2631413cf6)" style="fill: none; stroke: #000000; stroke-opacity: 0"/>
   </g>
   <g id="line2d_88">
    <path d="M 114.137772 86.028012 
L 128.694293 86.028012 
" clip-path="url(#p2631413cf6)" style="fill: none; stroke: #000000"/>
   </g>
   <g id="line2d_89">
    <path d="M 114.137772 87.630033 
L 128.694293 87.630033 
" clip-path="url(#p2631413cf6)" style="fill: none; stroke: #000000; stroke-opacity: 0"/>
   </g>
   <g id="line2d_90">
    <path d="M 211.18125 158.629766 
L 225.737772 158.629766 
" clip-path="url(#p2631413cf6)" style="fill: none; stroke: #000000"/>
   </g>
   <g id="line2d_91">
    <path d="M 211.18125 157.989577 
L 225.737772 157.989577 
" clip-path="url(#p2631413cf6)" style="fill: none; stroke: #000000; stroke-opacity: 0"/>
   </g>
   <g id="line2d_92">
    <path d="M 308.224728 54.961852 
L 322.78125 54.961852 
" clip-path="url(#p2631413cf6)" style="fill: none; stroke: #000000"/>
   </g>
   <g id="line2d_93">
    <path d="M 308.224728 55.844636 
L 322.78125 55.844636 
" clip-path="url(#p2631413cf6)" style="fill: none; stroke: #000000; stroke-opacity: 0"/>
   </g>
   <g id="line2d_94">
    <path d="M 128.694293 84.735101 
L 143.250815 84.735101 
" clip-path="url(#p2631413cf6)" style="fill: none; stroke: #000000"/>
   </g>
   <g id="line2d_95">
    <path d="M 128.694293 85.4791 
L 143.250815 85.4791 
" clip-path="url(#p2631413cf6)" style="fill: none; stroke: #000000; stroke-opacity: 0"/>
   </g>
   <g id="line2d_96">
    <path d="M 225.737772 160.36199 
L 240.294293 160.36199 
" clip-path="url(#p2631413cf6)" style="fill: none; stroke: #000000"/>
   </g>
   <g id="line2d_97">
    <path d="M 225.737772 159.473404 
L 240.294293 159.473404 
" clip-path="url(#p2631413cf6)" style="fill: none; stroke: #000000; stroke-opacity: 0"/>
   </g>
   <g id="line2d_98">
    <path d="M 322.78125 57.198238 
L 337.337772 57.198238 
" clip-path="url(#p2631413cf6)" style="fill: none; stroke: #000000"/>
   </g>
   <g id="line2d_99">
    <path d="M 322.78125 55.874062 
L 337.337772 55.874062 
" clip-path="url(#p2631413cf6)" style="fill: none; stroke: #000000; stroke-opacity: 0"/>
   </g>
   <g id="patch_15">
    <path d="M 43.78125 177.319219 
L 43.78125 10.999219 
" style="fill: none; stroke: #000000; stroke-width: 0.8; stroke-linejoin: miter; stroke-linecap: square"/>
   </g>
   <g id="patch_16">
    <path d="M 378.58125 177.319219 
L 378.58125 10.999219 
" style="fill: none; stroke: #000000; stroke-width: 0.8; stroke-linejoin: miter; stroke-linecap: square"/>
   </g>
   <g id="patch_17">
    <path d="M 43.78125 177.319219 
L 378.58125 177.319219 
" style="fill: none; stroke: #000000; stroke-width: 0.8; stroke-linejoin: miter; stroke-linecap: square"/>
   </g>
   <g id="patch_18">
    <path d="M 43.78125 10.999219 
L 378.58125 10.999219 
" style="fill: none; stroke: #000000; stroke-width: 0.8; stroke-linejoin: miter; stroke-linecap: square"/>
   </g>
   <g id="legend_1">
    <g id="patch_19">
     <path d="M 161.616406 77.711719 
L 260.746094 77.711719 
Q 262.746094 77.711719 262.746094 75.711719 
L 262.746094 17.999219 
Q 262.746094 15.999219 260.746094 15.999219 
L 161.616406 15.999219 
Q 159.616406 15.999219 159.616406 17.999219 
L 159.616406 75.711719 
Q 159.616406 77.711719 161.616406 77.711719 
z
" style="fill: #ffffff; opacity: 0.8; stroke: #cccccc; stroke-linejoin: miter"/>
    </g>
    <g id="patch_20">
     <path d="M 163.616406 27.597656 
L 183.616406 27.597656 
L 183.616406 20.597656 
L 163.616406 20.597656 
z
" style="fill: #52b297; stroke: #000000; stroke-linejoin: miter"/>
    </g>
    <g id="text_11">
     <!-- Single Top-10 -->
     <g transform="translate(191.616406 27.597656) scale(0.1 -0.1)">
      <defs>
       <path id="DejaVuSans-53" d="M 3425 4513 
L 3425 3897 
Q 3066 4069 2747 4153 
Q 2428 4238 2131 4238 
Q 1616 4238 1336 4038 
Q 1056 3838 1056 3469 
Q 1056 3159 1242 3001 
Q 1428 2844 1947 2747 
L 2328 2669 
Q 3034 2534 3370 2195 
Q 3706 1856 3706 1288 
Q 3706 609 3251 259 
Q 2797 -91 1919 -91 
Q 1588 -91 1214 -16 
Q 841 59 441 206 
L 441 856 
Q 825 641 1194 531 
Q 1563 422 1919 422 
Q 2459 422 2753 634 
Q 3047 847 3047 1241 
Q 3047 1584 2836 1778 
Q 2625 1972 2144 2069 
L 1759 2144 
Q 1053 2284 737 2584 
Q 422 2884 422 3419 
Q 422 4038 858 4394 
Q 1294 4750 2059 4750 
Q 2388 4750 2728 4690 
Q 3069 4631 3425 4513 
z
" transform="scale(0.015625)"/>
       <path id="DejaVuSans-67" d="M 2906 1791 
Q 2906 2416 2648 2759 
Q 2391 3103 1925 3103 
Q 1463 3103 1205 2759 
Q 947 2416 947 1791 
Q 947 1169 1205 825 
Q 1463 481 1925 481 
Q 2391 481 2648 825 
Q 2906 1169 2906 1791 
z
M 3481 434 
Q 3481 -459 3084 -895 
Q 2688 -1331 1869 -1331 
Q 1566 -1331 1297 -1286 
Q 1028 -1241 775 -1147 
L 775 -588 
Q 1028 -725 1275 -790 
Q 1522 -856 1778 -856 
Q 2344 -856 2625 -561 
Q 2906 -266 2906 331 
L 2906 616 
Q 2728 306 2450 153 
Q 2172 0 1784 0 
Q 1141 0 747 490 
Q 353 981 353 1791 
Q 353 2603 747 3093 
Q 1141 3584 1784 3584 
Q 2172 3584 2450 3431 
Q 2728 3278 2906 2969 
L 2906 3500 
L 3481 3500 
L 3481 434 
z
" transform="scale(0.015625)"/>
       <path id="DejaVuSans-54" d="M -19 4666 
L 3928 4666 
L 3928 4134 
L 2272 4134 
L 2272 0 
L 1638 0 
L 1638 4134 
L -19 4134 
L -19 4666 
z
" transform="scale(0.015625)"/>
       <path id="DejaVuSans-2d" d="M 313 2009 
L 1997 2009 
L 1997 1497 
L 313 1497 
L 313 2009 
z
" transform="scale(0.015625)"/>
      </defs>
      <use xlink:href="#DejaVuSans-53"/>
      <use xlink:href="#DejaVuSans-69" x="63.476562"/>
      <use xlink:href="#DejaVuSans-6e" x="91.259766"/>
      <use xlink:href="#DejaVuSans-67" x="154.638672"/>
      <use xlink:href="#DejaVuSans-6c" x="218.115234"/>
      <use xlink:href="#DejaVuSans-65" x="245.898438"/>
      <use xlink:href="#DejaVuSans-20" x="307.421875"/>
      <use xlink:href="#DejaVuSans-54" x="339.208984"/>
      <use xlink:href="#DejaVuSans-6f" x="383.292969"/>
      <use xlink:href="#DejaVuSans-70" x="444.474609"/>
      <use xlink:href="#DejaVuSans-2d" x="507.951172"/>
      <use xlink:href="#DejaVuSans-31" x="544.035156"/>
      <use xlink:href="#DejaVuSans-30" x="607.658203"/>
     </g>
    </g>
    <g id="patch_21">
     <path d="M 163.616406 42.275781 
L 183.616406 42.275781 
L 183.616406 35.275781 
L 163.616406 35.275781 
z
" style="fill: #8e4a93; stroke: #000000; stroke-linejoin: miter"/>
    </g>
    <g id="text_12">
     <!-- Parent Split -->
     <g transform="translate(191.616406 42.275781) scale(0.1 -0.1)">
      <use xlink:href="#DejaVuSans-50"/>
      <use xlink:href="#DejaVuSans-61" x="55.802734"/>
      <use xlink:href="#DejaVuSans-72" x="117.082031"/>
      <use xlink:href="#DejaVuSans-65" x="155.945312"/>
      <use xlink:href="#DejaVuSans-6e" x="217.46875"/>
      <use xlink:href="#DejaVuSans-74" x="280.847656"/>
      <use xlink:href="#DejaVuSans-20" x="320.056641"/>
      <use xlink:href="#DejaVuSans-53" x="351.84375"/>
      <use xlink:href="#DejaVuSans-70" x="415.320312"/>
      <use xlink:href="#DejaVuSans-6c" x="478.796875"/>
      <use xlink:href="#DejaVuSans-69" x="506.580078"/>
      <use xlink:href="#DejaVuSans-74" x="534.363281"/>
     </g>
    </g>
    <g id="patch_22">
     <path d="M 163.616406 56.953906 
L 183.616406 56.953906 
L 183.616406 49.953906 
L 163.616406 49.953906 
z
" style="fill: #009ee7; stroke: #000000; stroke-linejoin: miter"/>
    </g>
    <g id="text_13">
     <!-- Child Split -->
     <g transform="translate(191.616406 56.953906) scale(0.1 -0.1)">
      <defs>
       <path id="DejaVuSans-43" d="M 4122 4306 
L 4122 3641 
Q 3803 3938 3442 4084 
Q 3081 4231 2675 4231 
Q 1875 4231 1450 3742 
Q 1025 3253 1025 2328 
Q 1025 1406 1450 917 
Q 1875 428 2675 428 
Q 3081 428 3442 575 
Q 3803 722 4122 1019 
L 4122 359 
Q 3791 134 3420 21 
Q 3050 -91 2638 -91 
Q 1578 -91 968 557 
Q 359 1206 359 2328 
Q 359 3453 968 4101 
Q 1578 4750 2638 4750 
Q 3056 4750 3426 4639 
Q 3797 4528 4122 4306 
z
" transform="scale(0.015625)"/>
       <path id="DejaVuSans-68" d="M 3513 2113 
L 3513 0 
L 2938 0 
L 2938 2094 
Q 2938 2591 2744 2837 
Q 2550 3084 2163 3084 
Q 1697 3084 1428 2787 
Q 1159 2491 1159 1978 
L 1159 0 
L 581 0 
L 581 4863 
L 1159 4863 
L 1159 2956 
Q 1366 3272 1645 3428 
Q 1925 3584 2291 3584 
Q 2894 3584 3203 3211 
Q 3513 2838 3513 2113 
z
" transform="scale(0.015625)"/>
       <path id="DejaVuSans-64" d="M 2906 2969 
L 2906 4863 
L 3481 4863 
L 3481 0 
L 2906 0 
L 2906 525 
Q 2725 213 2448 61 
Q 2172 -91 1784 -91 
Q 1150 -91 751 415 
Q 353 922 353 1747 
Q 353 2572 751 3078 
Q 1150 3584 1784 3584 
Q 2172 3584 2448 3432 
Q 2725 3281 2906 2969 
z
M 947 1747 
Q 947 1113 1208 752 
Q 1469 391 1925 391 
Q 2381 391 2643 752 
Q 2906 1113 2906 1747 
Q 2906 2381 2643 2742 
Q 2381 3103 1925 3103 
Q 1469 3103 1208 2742 
Q 947 2381 947 1747 
z
" transform="scale(0.015625)"/>
      </defs>
      <use xlink:href="#DejaVuSans-43"/>
      <use xlink:href="#DejaVuSans-68" x="69.824219"/>
      <use xlink:href="#DejaVuSans-69" x="133.203125"/>
      <use xlink:href="#DejaVuSans-6c" x="160.986328"/>
      <use xlink:href="#DejaVuSans-64" x="188.769531"/>
      <use xlink:href="#DejaVuSans-20" x="252.246094"/>
      <use xlink:href="#DejaVuSans-53" x="284.033203"/>
      <use xlink:href="#DejaVuSans-70" x="347.509766"/>
      <use xlink:href="#DejaVuSans-6c" x="410.986328"/>
      <use xlink:href="#DejaVuSans-69" x="438.769531"/>
      <use xlink:href="#DejaVuSans-74" x="466.552734"/>
     </g>
    </g>
    <g id="patch_23">
     <path d="M 163.616406 71.632031 
L 183.616406 71.632031 
L 183.616406 64.632031 
L 163.616406 64.632031 
z
" style="fill: #ef766e; stroke: #000000; stroke-linejoin: miter"/>
    </g>
    <g id="text_14">
     <!-- Random Split -->
     <g transform="translate(191.616406 71.632031) scale(0.1 -0.1)">
      <defs>
       <path id="DejaVuSans-6d" d="M 3328 2828 
Q 3544 3216 3844 3400 
Q 4144 3584 4550 3584 
Q 5097 3584 5394 3201 
Q 5691 2819 5691 2113 
L 5691 0 
L 5113 0 
L 5113 2094 
Q 5113 2597 4934 2840 
Q 4756 3084 4391 3084 
Q 3944 3084 3684 2787 
Q 3425 2491 3425 1978 
L 3425 0 
L 2847 0 
L 2847 2094 
Q 2847 2600 2669 2842 
Q 2491 3084 2119 3084 
Q 1678 3084 1418 2786 
Q 1159 2488 1159 1978 
L 1159 0 
L 581 0 
L 581 3500 
L 1159 3500 
L 1159 2956 
Q 1356 3278 1631 3431 
Q 1906 3584 2284 3584 
Q 2666 3584 2933 3390 
Q 3200 3197 3328 2828 
z
" transform="scale(0.015625)"/>
      </defs>
      <use xlink:href="#DejaVuSans-52"/>
      <use xlink:href="#DejaVuSans-61" x="67.232422"/>
      <use xlink:href="#DejaVuSans-6e" x="128.511719"/>
      <use xlink:href="#DejaVuSans-64" x="191.890625"/>
      <use xlink:href="#DejaVuSans-6f" x="255.367188"/>
      <use xlink:href="#DejaVuSans-6d" x="316.548828"/>
      <use xlink:href="#DejaVuSans-20" x="413.960938"/>
      <use xlink:href="#DejaVuSans-53" x="445.748047"/>
      <use xlink:href="#DejaVuSans-70" x="509.224609"/>
      <use xlink:href="#DejaVuSans-6c" x="572.701172"/>
      <use xlink:href="#DejaVuSans-69" x="600.484375"/>
      <use xlink:href="#DejaVuSans-74" x="628.267578"/>
     </g>
    </g>
   </g>
  </g>
 </g>
 <defs>
  <clipPath id="p2631413cf6">
   <rect x="43.78125" y="10.999219" width="334.8" height="166.32"/>
  </clipPath>
 </defs>
</svg>
