<?xml version="1.0" encoding="utf-8" standalone="no"?>
<!DOCTYPE svg PUBLIC "-//W3C//DTD SVG 1.1//EN"
  "http://www.w3.org/Graphics/SVG/1.1/DTD/svg11.dtd">
<svg xmlns:xlink="http://www.w3.org/1999/xlink" width="424.817187pt" height="266.51625pt" viewBox="0 0 424.817187 266.51625" xmlns="http://www.w3.org/2000/svg" version="1.1">
 <metadata>
  <rdf:RDF xmlns:dc="http://purl.org/dc/elements/1.1/" xmlns:cc="http://creativecommons.org/ns#" xmlns:rdf="http://www.w3.org/1999/02/22-rdf-syntax-ns#">
   <cc:Work>
    <dc:type rdf:resource="http://purl.org/dc/dcmitype/StillImage"/>
    <dc:date>2025-06-16T08:04:47.567380</dc:date>
    <dc:format>image/svg+xml</dc:format>
    <dc:creator>
     <cc:Agent>
      <dc:title>Matplotlib v3.9.4, https://matplotlib.org/</dc:title>
     </cc:Agent>
    </dc:creator>
   </cc:Work>
  </rdf:RDF>
 </metadata>
 <defs>
  <style type="text/css">*{stroke-linejoin: round; stroke-linecap: butt}</style>
 </defs>
 <g id="figure_1">
  <g id="patch_1">
   <path d="M 0 266.51625 
L 424.817187 266.51625 
L 424.817187 0 
L 0 0 
z
" style="fill: #ffffff"/>
  </g>
  <g id="axes_1">
   <g id="patch_2">
    <path d="M 46.965625 228.96 
L 409.665625 228.96 
L 409.665625 7.2 
L 46.965625 7.2 
z
" style="fill: #ffffff"/>
   </g>
   <g id="patch_3">
    <path d="M 46.965625 228.96 
L 50.592625 228.96 
L 50.592625 189.247179 
L 46.965625 189.247179 
z
" clip-path="url(#pe252a29235)" style="fill: #cca0cf"/>
   </g>
   <g id="patch_4">
    <path d="M 50.592625 228.96 
L 54.219625 228.96 
L 54.219625 228.96 
L 50.592625 228.96 
z
" clip-path="url(#pe252a29235)" style="fill: #cca0cf"/>
   </g>
   <g id="patch_5">
    <path d="M 54.219625 228.96 
L 57.846625 228.96 
L 57.846625 223.544615 
L 54.219625 223.544615 
z
" clip-path="url(#pe252a29235)" style="fill: #cca0cf"/>
   </g>
   <g id="patch_6">
    <path d="M 57.846625 228.96 
L 61.473625 228.96 
L 61.473625 223.544615 
L 57.846625 223.544615 
z
" clip-path="url(#pe252a29235)" style="fill: #cca0cf"/>
   </g>
   <g id="patch_7">
    <path d="M 61.473625 228.96 
L 65.100625 228.96 
L 65.100625 212.713846 
L 61.473625 212.713846 
z
" clip-path="url(#pe252a29235)" style="fill: #cca0cf"/>
   </g>
   <g id="patch_8">
    <path d="M 65.100625 228.96 
L 68.727625 228.96 
L 68.727625 219.934359 
L 65.100625 219.934359 
z
" clip-path="url(#pe252a29235)" style="fill: #cca0cf"/>
   </g>
   <g id="patch_9">
    <path d="M 68.727625 228.96 
L 72.354625 228.96 
L 72.354625 210.908718 
L 68.727625 210.908718 
z
" clip-path="url(#pe252a29235)" style="fill: #cca0cf"/>
   </g>
   <g id="patch_10">
    <path d="M 72.354625 228.96 
L 75.981625 228.96 
L 75.981625 216.324103 
L 72.354625 216.324103 
z
" clip-path="url(#pe252a29235)" style="fill: #cca0cf"/>
   </g>
   <g id="patch_11">
    <path d="M 75.981625 228.96 
L 79.608625 228.96 
L 79.608625 210.908718 
L 75.981625 210.908718 
z
" clip-path="url(#pe252a29235)" style="fill: #cca0cf"/>
   </g>
   <g id="patch_12">
    <path d="M 79.608625 228.96 
L 83.235625 228.96 
L 83.235625 214.518974 
L 79.608625 214.518974 
z
" clip-path="url(#pe252a29235)" style="fill: #cca0cf"/>
   </g>
   <g id="patch_13">
    <path d="M 83.235625 228.96 
L 86.862625 228.96 
L 86.862625 209.10359 
L 83.235625 209.10359 
z
" clip-path="url(#pe252a29235)" style="fill: #cca0cf"/>
   </g>
   <g id="patch_14">
    <path d="M 86.862625 228.96 
L 90.489625 228.96 
L 90.489625 210.908718 
L 86.862625 210.908718 
z
" clip-path="url(#pe252a29235)" style="fill: #cca0cf"/>
   </g>
   <g id="patch_15">
    <path d="M 90.489625 228.96 
L 94.116625 228.96 
L 94.116625 212.713846 
L 90.489625 212.713846 
z
" clip-path="url(#pe252a29235)" style="fill: #cca0cf"/>
   </g>
   <g id="patch_16">
    <path d="M 94.116625 228.96 
L 97.743625 228.96 
L 97.743625 210.908718 
L 94.116625 210.908718 
z
" clip-path="url(#pe252a29235)" style="fill: #cca0cf"/>
   </g>
   <g id="patch_17">
    <path d="M 97.743625 228.96 
L 101.370625 228.96 
L 101.370625 210.908718 
L 97.743625 210.908718 
z
" clip-path="url(#pe252a29235)" style="fill: #cca0cf"/>
   </g>
   <g id="patch_18">
    <path d="M 101.370625 228.96 
L 104.997625 228.96 
L 104.997625 207.298462 
L 101.370625 207.298462 
z
" clip-path="url(#pe252a29235)" style="fill: #cca0cf"/>
   </g>
   <g id="patch_19">
    <path d="M 104.997625 228.96 
L 108.624625 228.96 
L 108.624625 203.688205 
L 104.997625 203.688205 
z
" clip-path="url(#pe252a29235)" style="fill: #cca0cf"/>
   </g>
   <g id="patch_20">
    <path d="M 108.624625 228.96 
L 112.251625 228.96 
L 112.251625 212.713846 
L 108.624625 212.713846 
z
" clip-path="url(#pe252a29235)" style="fill: #cca0cf"/>
   </g>
   <g id="patch_21">
    <path d="M 112.251625 228.96 
L 115.878625 228.96 
L 115.878625 207.298462 
L 112.251625 207.298462 
z
" clip-path="url(#pe252a29235)" style="fill: #cca0cf"/>
   </g>
   <g id="patch_22">
    <path d="M 115.878625 228.96 
L 119.505625 228.96 
L 119.505625 214.518974 
L 115.878625 214.518974 
z
" clip-path="url(#pe252a29235)" style="fill: #cca0cf"/>
   </g>
   <g id="patch_23">
    <path d="M 119.505625 228.96 
L 123.132625 228.96 
L 123.132625 187.442051 
L 119.505625 187.442051 
z
" clip-path="url(#pe252a29235)" style="fill: #cca0cf"/>
   </g>
   <g id="patch_24">
    <path d="M 123.132625 228.96 
L 126.759625 228.96 
L 126.759625 196.467692 
L 123.132625 196.467692 
z
" clip-path="url(#pe252a29235)" style="fill: #cca0cf"/>
   </g>
   <g id="patch_25">
    <path d="M 126.759625 228.96 
L 130.386625 228.96 
L 130.386625 191.052308 
L 126.759625 191.052308 
z
" clip-path="url(#pe252a29235)" style="fill: #cca0cf"/>
   </g>
   <g id="patch_26">
    <path d="M 130.386625 228.96 
L 134.013625 228.96 
L 134.013625 200.077949 
L 130.386625 200.077949 
z
" clip-path="url(#pe252a29235)" style="fill: #cca0cf"/>
   </g>
   <g id="patch_27">
    <path d="M 134.013625 228.96 
L 137.640625 228.96 
L 137.640625 194.662564 
L 134.013625 194.662564 
z
" clip-path="url(#pe252a29235)" style="fill: #cca0cf"/>
   </g>
   <g id="patch_28">
    <path d="M 137.640625 228.96 
L 141.267625 228.96 
L 141.267625 198.272821 
L 137.640625 198.272821 
z
" clip-path="url(#pe252a29235)" style="fill: #cca0cf"/>
   </g>
   <g id="patch_29">
    <path d="M 141.267625 228.96 
L 144.894625 228.96 
L 144.894625 192.857436 
L 141.267625 192.857436 
z
" clip-path="url(#pe252a29235)" style="fill: #cca0cf"/>
   </g>
   <g id="patch_30">
    <path d="M 144.894625 228.96 
L 148.521625 228.96 
L 148.521625 198.272821 
L 144.894625 198.272821 
z
" clip-path="url(#pe252a29235)" style="fill: #cca0cf"/>
   </g>
   <g id="patch_31">
    <path d="M 148.521625 228.96 
L 152.148625 228.96 
L 152.148625 174.806154 
L 148.521625 174.806154 
z
" clip-path="url(#pe252a29235)" style="fill: #cca0cf"/>
   </g>
   <g id="patch_32">
    <path d="M 152.148625 228.96 
L 155.775625 228.96 
L 155.775625 189.247179 
L 152.148625 189.247179 
z
" clip-path="url(#pe252a29235)" style="fill: #cca0cf"/>
   </g>
   <g id="patch_33">
    <path d="M 155.775625 228.96 
L 159.402625 228.96 
L 159.402625 185.636923 
L 155.775625 185.636923 
z
" clip-path="url(#pe252a29235)" style="fill: #cca0cf"/>
   </g>
   <g id="patch_34">
    <path d="M 159.402625 228.96 
L 163.029625 228.96 
L 163.029625 187.442051 
L 159.402625 187.442051 
z
" clip-path="url(#pe252a29235)" style="fill: #cca0cf"/>
   </g>
   <g id="patch_35">
    <path d="M 163.029625 228.96 
L 166.656625 228.96 
L 166.656625 200.077949 
L 163.029625 200.077949 
z
" clip-path="url(#pe252a29235)" style="fill: #cca0cf"/>
   </g>
   <g id="patch_36">
    <path d="M 166.656625 228.96 
L 170.283625 228.96 
L 170.283625 185.636923 
L 166.656625 185.636923 
z
" clip-path="url(#pe252a29235)" style="fill: #cca0cf"/>
   </g>
   <g id="patch_37">
    <path d="M 170.283625 228.96 
L 173.910625 228.96 
L 173.910625 173.001026 
L 170.283625 173.001026 
z
" clip-path="url(#pe252a29235)" style="fill: #cca0cf"/>
   </g>
   <g id="patch_38">
    <path d="M 173.910625 228.96 
L 177.537625 228.96 
L 177.537625 187.442051 
L 173.910625 187.442051 
z
" clip-path="url(#pe252a29235)" style="fill: #cca0cf"/>
   </g>
   <g id="patch_39">
    <path d="M 177.537625 228.96 
L 181.164625 228.96 
L 181.164625 173.001026 
L 177.537625 173.001026 
z
" clip-path="url(#pe252a29235)" style="fill: #cca0cf"/>
   </g>
   <g id="patch_40">
    <path d="M 181.164625 228.96 
L 184.791625 228.96 
L 184.791625 178.41641 
L 181.164625 178.41641 
z
" clip-path="url(#pe252a29235)" style="fill: #cca0cf"/>
   </g>
   <g id="patch_41">
    <path d="M 184.791625 228.96 
L 188.418625 228.96 
L 188.418625 174.806154 
L 184.791625 174.806154 
z
" clip-path="url(#pe252a29235)" style="fill: #cca0cf"/>
   </g>
   <g id="patch_42">
    <path d="M 188.418625 228.96 
L 192.045625 228.96 
L 192.045625 182.026667 
L 188.418625 182.026667 
z
" clip-path="url(#pe252a29235)" style="fill: #cca0cf"/>
   </g>
   <g id="patch_43">
    <path d="M 192.045625 228.96 
L 195.672625 228.96 
L 195.672625 131.483077 
L 192.045625 131.483077 
z
" clip-path="url(#pe252a29235)" style="fill: #cca0cf"/>
   </g>
   <g id="patch_44">
    <path d="M 195.672625 228.96 
L 199.299625 228.96 
L 199.299625 151.339487 
L 195.672625 151.339487 
z
" clip-path="url(#pe252a29235)" style="fill: #cca0cf"/>
   </g>
   <g id="patch_45">
    <path d="M 199.299625 228.96 
L 202.926625 228.96 
L 202.926625 144.118974 
L 199.299625 144.118974 
z
" clip-path="url(#pe252a29235)" style="fill: #cca0cf"/>
   </g>
   <g id="patch_46">
    <path d="M 202.926625 228.96 
L 206.553625 228.96 
L 206.553625 145.924103 
L 202.926625 145.924103 
z
" clip-path="url(#pe252a29235)" style="fill: #cca0cf"/>
   </g>
   <g id="patch_47">
    <path d="M 206.553625 228.96 
L 210.180625 228.96 
L 210.180625 156.754872 
L 206.553625 156.754872 
z
" clip-path="url(#pe252a29235)" style="fill: #cca0cf"/>
   </g>
   <g id="patch_48">
    <path d="M 210.180625 228.96 
L 213.807625 228.96 
L 213.807625 142.313846 
L 210.180625 142.313846 
z
" clip-path="url(#pe252a29235)" style="fill: #cca0cf"/>
   </g>
   <g id="patch_49">
    <path d="M 213.807625 228.96 
L 217.434625 228.96 
L 217.434625 129.677949 
L 213.807625 129.677949 
z
" clip-path="url(#pe252a29235)" style="fill: #cca0cf"/>
   </g>
   <g id="patch_50">
    <path d="M 217.434625 228.96 
L 221.061625 228.96 
L 221.061625 153.144615 
L 217.434625 153.144615 
z
" clip-path="url(#pe252a29235)" style="fill: #cca0cf"/>
   </g>
   <g id="patch_51">
    <path d="M 221.061625 228.96 
L 224.688625 228.96 
L 224.688625 104.406154 
L 221.061625 104.406154 
z
" clip-path="url(#pe252a29235)" style="fill: #cca0cf"/>
   </g>
   <g id="patch_52">
    <path d="M 224.688625 228.96 
L 228.315625 228.96 
L 228.315625 191.052308 
L 224.688625 191.052308 
z
" clip-path="url(#pe252a29235)" style="fill: #cca0cf"/>
   </g>
   <g id="patch_53">
    <path d="M 228.315625 228.96 
L 231.942625 228.96 
L 231.942625 75.524103 
L 228.315625 75.524103 
z
" clip-path="url(#pe252a29235)" style="fill: #cca0cf"/>
   </g>
   <g id="patch_54">
    <path d="M 231.942625 228.96 
L 235.569625 228.96 
L 235.569625 102.601026 
L 231.942625 102.601026 
z
" clip-path="url(#pe252a29235)" style="fill: #cca0cf"/>
   </g>
   <g id="patch_55">
    <path d="M 235.569625 228.96 
L 239.196625 228.96 
L 239.196625 86.354872 
L 235.569625 86.354872 
z
" clip-path="url(#pe252a29235)" style="fill: #cca0cf"/>
   </g>
   <g id="patch_56">
    <path d="M 239.196625 228.96 
L 242.823625 228.96 
L 242.823625 108.01641 
L 239.196625 108.01641 
z
" clip-path="url(#pe252a29235)" style="fill: #cca0cf"/>
   </g>
   <g id="patch_57">
    <path d="M 242.823625 228.96 
L 246.450625 228.96 
L 246.450625 64.693333 
L 242.823625 64.693333 
z
" clip-path="url(#pe252a29235)" style="fill: #cca0cf"/>
   </g>
   <g id="patch_58">
    <path d="M 246.450625 228.96 
L 250.077625 228.96 
L 250.077625 73.718974 
L 246.450625 73.718974 
z
" clip-path="url(#pe252a29235)" style="fill: #cca0cf"/>
   </g>
   <g id="patch_59">
    <path d="M 250.077625 228.96 
L 253.704625 228.96 
L 253.704625 39.421538 
L 250.077625 39.421538 
z
" clip-path="url(#pe252a29235)" style="fill: #cca0cf"/>
   </g>
   <g id="patch_60">
    <path d="M 253.704625 228.96 
L 257.331625 228.96 
L 257.331625 89.965128 
L 253.704625 89.965128 
z
" clip-path="url(#pe252a29235)" style="fill: #cca0cf"/>
   </g>
   <g id="patch_61">
    <path d="M 257.331625 228.96 
L 260.958625 228.96 
L 260.958625 53.862564 
L 257.331625 53.862564 
z
" clip-path="url(#pe252a29235)" style="fill: #cca0cf"/>
   </g>
   <g id="patch_62">
    <path d="M 260.958625 228.96 
L 264.585625 228.96 
L 264.585625 95.380513 
L 260.958625 95.380513 
z
" clip-path="url(#pe252a29235)" style="fill: #cca0cf"/>
   </g>
   <g id="patch_63">
    <path d="M 264.585625 228.96 
L 268.212625 228.96 
L 268.212625 17.76 
L 264.585625 17.76 
z
" clip-path="url(#pe252a29235)" style="fill: #cca0cf"/>
   </g>
   <g id="patch_64">
    <path d="M 268.212625 228.96 
L 271.839625 228.96 
L 271.839625 59.277949 
L 268.212625 59.277949 
z
" clip-path="url(#pe252a29235)" style="fill: #cca0cf"/>
   </g>
   <g id="patch_65">
    <path d="M 271.839625 228.96 
L 275.466625 228.96 
L 275.466625 66.498462 
L 271.839625 66.498462 
z
" clip-path="url(#pe252a29235)" style="fill: #cca0cf"/>
   </g>
   <g id="patch_66">
    <path d="M 275.466625 228.96 
L 279.093625 228.96 
L 279.093625 80.939487 
L 275.466625 80.939487 
z
" clip-path="url(#pe252a29235)" style="fill: #cca0cf"/>
   </g>
   <g id="patch_67">
    <path d="M 279.093625 228.96 
L 282.720625 228.96 
L 282.720625 32.201026 
L 279.093625 32.201026 
z
" clip-path="url(#pe252a29235)" style="fill: #cca0cf"/>
   </g>
   <g id="patch_68">
    <path d="M 282.720625 228.96 
L 286.347625 228.96 
L 286.347625 52.057436 
L 282.720625 52.057436 
z
" clip-path="url(#pe252a29235)" style="fill: #cca0cf"/>
   </g>
   <g id="patch_69">
    <path d="M 286.347625 228.96 
L 289.974625 228.96 
L 289.974625 35.811282 
L 286.347625 35.811282 
z
" clip-path="url(#pe252a29235)" style="fill: #cca0cf"/>
   </g>
   <g id="patch_70">
    <path d="M 289.974625 228.96 
L 293.601625 228.96 
L 293.601625 50.252308 
L 289.974625 50.252308 
z
" clip-path="url(#pe252a29235)" style="fill: #cca0cf"/>
   </g>
   <g id="patch_71">
    <path d="M 293.601625 228.96 
L 297.228625 228.96 
L 297.228625 48.447179 
L 293.601625 48.447179 
z
" clip-path="url(#pe252a29235)" style="fill: #cca0cf"/>
   </g>
   <g id="patch_72">
    <path d="M 297.228625 228.96 
L 300.855625 228.96 
L 300.855625 50.252308 
L 297.228625 50.252308 
z
" clip-path="url(#pe252a29235)" style="fill: #cca0cf"/>
   </g>
   <g id="patch_73">
    <path d="M 300.855625 228.96 
L 304.482625 228.96 
L 304.482625 43.031795 
L 300.855625 43.031795 
z
" clip-path="url(#pe252a29235)" style="fill: #cca0cf"/>
   </g>
   <g id="patch_74">
    <path d="M 304.482625 228.96 
L 308.109625 228.96 
L 308.109625 44.836923 
L 304.482625 44.836923 
z
" clip-path="url(#pe252a29235)" style="fill: #cca0cf"/>
   </g>
   <g id="patch_75">
    <path d="M 308.109625 228.96 
L 311.736625 228.96 
L 311.736625 44.836923 
L 308.109625 44.836923 
z
" clip-path="url(#pe252a29235)" style="fill: #cca0cf"/>
   </g>
   <g id="patch_76">
    <path d="M 311.736625 228.96 
L 315.363625 228.96 
L 315.363625 44.836923 
L 311.736625 44.836923 
z
" clip-path="url(#pe252a29235)" style="fill: #cca0cf"/>
   </g>
   <g id="patch_77">
    <path d="M 315.363625 228.96 
L 318.990625 228.96 
L 318.990625 84.549744 
L 315.363625 84.549744 
z
" clip-path="url(#pe252a29235)" style="fill: #cca0cf"/>
   </g>
   <g id="patch_78">
    <path d="M 318.990625 228.96 
L 322.617625 228.96 
L 322.617625 17.76 
L 318.990625 17.76 
z
" clip-path="url(#pe252a29235)" style="fill: #cca0cf"/>
   </g>
   <g id="patch_79">
    <path d="M 322.617625 228.96 
L 326.244625 228.96 
L 326.244625 46.642051 
L 322.617625 46.642051 
z
" clip-path="url(#pe252a29235)" style="fill: #cca0cf"/>
   </g>
   <g id="patch_80">
    <path d="M 326.244625 228.96 
L 329.871625 228.96 
L 329.871625 41.226667 
L 326.244625 41.226667 
z
" clip-path="url(#pe252a29235)" style="fill: #cca0cf"/>
   </g>
   <g id="patch_81">
    <path d="M 329.871625 228.96 
L 333.498625 228.96 
L 333.498625 55.667692 
L 329.871625 55.667692 
z
" clip-path="url(#pe252a29235)" style="fill: #cca0cf"/>
   </g>
   <g id="patch_82">
    <path d="M 333.498625 228.96 
L 337.125625 228.96 
L 337.125625 117.042051 
L 333.498625 117.042051 
z
" clip-path="url(#pe252a29235)" style="fill: #cca0cf"/>
   </g>
   <g id="patch_83">
    <path d="M 337.125625 228.96 
L 340.752625 228.96 
L 340.752625 102.601026 
L 337.125625 102.601026 
z
" clip-path="url(#pe252a29235)" style="fill: #cca0cf"/>
   </g>
   <g id="patch_84">
    <path d="M 340.752625 228.96 
L 344.379625 228.96 
L 344.379625 120.652308 
L 340.752625 120.652308 
z
" clip-path="url(#pe252a29235)" style="fill: #cca0cf"/>
   </g>
   <g id="patch_85">
    <path d="M 344.379625 228.96 
L 348.006625 228.96 
L 348.006625 135.093333 
L 344.379625 135.093333 
z
" clip-path="url(#pe252a29235)" style="fill: #cca0cf"/>
   </g>
   <g id="patch_86">
    <path d="M 348.006625 228.96 
L 351.633625 228.96 
L 351.633625 145.924103 
L 348.006625 145.924103 
z
" clip-path="url(#pe252a29235)" style="fill: #cca0cf"/>
   </g>
   <g id="patch_87">
    <path d="M 351.633625 228.96 
L 355.260625 228.96 
L 355.260625 147.729231 
L 351.633625 147.729231 
z
" clip-path="url(#pe252a29235)" style="fill: #cca0cf"/>
   </g>
   <g id="patch_88">
    <path d="M 355.260625 228.96 
L 358.887625 228.96 
L 358.887625 173.001026 
L 355.260625 173.001026 
z
" clip-path="url(#pe252a29235)" style="fill: #cca0cf"/>
   </g>
   <g id="patch_89">
    <path d="M 358.887625 228.96 
L 362.514625 228.96 
L 362.514625 169.390769 
L 358.887625 169.390769 
z
" clip-path="url(#pe252a29235)" style="fill: #cca0cf"/>
   </g>
   <g id="patch_90">
    <path d="M 362.514625 228.96 
L 366.141625 228.96 
L 366.141625 194.662564 
L 362.514625 194.662564 
z
" clip-path="url(#pe252a29235)" style="fill: #cca0cf"/>
   </g>
   <g id="patch_91">
    <path d="M 366.141625 228.96 
L 369.768625 228.96 
L 369.768625 182.026667 
L 366.141625 182.026667 
z
" clip-path="url(#pe252a29235)" style="fill: #cca0cf"/>
   </g>
   <g id="patch_92">
    <path d="M 369.768625 228.96 
L 373.395625 228.96 
L 373.395625 185.636923 
L 369.768625 185.636923 
z
" clip-path="url(#pe252a29235)" style="fill: #cca0cf"/>
   </g>
   <g id="patch_93">
    <path d="M 373.395625 228.96 
L 377.022625 228.96 
L 377.022625 196.467692 
L 373.395625 196.467692 
z
" clip-path="url(#pe252a29235)" style="fill: #cca0cf"/>
   </g>
   <g id="patch_94">
    <path d="M 377.022625 228.96 
L 380.649625 228.96 
L 380.649625 207.298462 
L 377.022625 207.298462 
z
" clip-path="url(#pe252a29235)" style="fill: #cca0cf"/>
   </g>
   <g id="patch_95">
    <path d="M 380.649625 228.96 
L 384.276625 228.96 
L 384.276625 223.544615 
L 380.649625 223.544615 
z
" clip-path="url(#pe252a29235)" style="fill: #cca0cf"/>
   </g>
   <g id="patch_96">
    <path d="M 384.276625 228.96 
L 387.903625 228.96 
L 387.903625 218.129231 
L 384.276625 218.129231 
z
" clip-path="url(#pe252a29235)" style="fill: #cca0cf"/>
   </g>
   <g id="patch_97">
    <path d="M 387.903625 228.96 
L 391.530625 228.96 
L 391.530625 221.739487 
L 387.903625 221.739487 
z
" clip-path="url(#pe252a29235)" style="fill: #cca0cf"/>
   </g>
   <g id="patch_98">
    <path d="M 391.530625 228.96 
L 395.157625 228.96 
L 395.157625 221.739487 
L 391.530625 221.739487 
z
" clip-path="url(#pe252a29235)" style="fill: #cca0cf"/>
   </g>
   <g id="patch_99">
    <path d="M 395.157625 228.96 
L 398.784625 228.96 
L 398.784625 210.908718 
L 395.157625 210.908718 
z
" clip-path="url(#pe252a29235)" style="fill: #cca0cf"/>
   </g>
   <g id="patch_100">
    <path d="M 398.784625 228.96 
L 402.411625 228.96 
L 402.411625 227.154872 
L 398.784625 227.154872 
z
" clip-path="url(#pe252a29235)" style="fill: #cca0cf"/>
   </g>
   <g id="patch_101">
    <path d="M 402.411625 228.96 
L 406.038625 228.96 
L 406.038625 227.154872 
L 402.411625 227.154872 
z
" clip-path="url(#pe252a29235)" style="fill: #cca0cf"/>
   </g>
   <g id="patch_102">
    <path d="M 406.038625 228.96 
L 409.665625 228.96 
L 409.665625 223.544615 
L 406.038625 223.544615 
z
" clip-path="url(#pe252a29235)" style="fill: #cca0cf"/>
   </g>
   <g id="patch_103">
    <path d="M 46.965625 228.96 
L 50.592625 228.96 
L 50.592625 228.96 
L 46.965625 228.96 
z
" clip-path="url(#pe252a29235)" style="fill: #8e4a93"/>
   </g>
   <g id="patch_104">
    <path d="M 50.592625 228.96 
L 54.219625 228.96 
L 54.219625 228.96 
L 50.592625 228.96 
z
" clip-path="url(#pe252a29235)" style="fill: #8e4a93"/>
   </g>
   <g id="patch_105">
    <path d="M 54.219625 228.96 
L 57.846625 228.96 
L 57.846625 228.96 
L 54.219625 228.96 
z
" clip-path="url(#pe252a29235)" style="fill: #8e4a93"/>
   </g>
   <g id="patch_106">
    <path d="M 57.846625 228.96 
L 61.473625 228.96 
L 61.473625 228.96 
L 57.846625 228.96 
z
" clip-path="url(#pe252a29235)" style="fill: #8e4a93"/>
   </g>
   <g id="patch_107">
    <path d="M 61.473625 228.96 
L 65.100625 228.96 
L 65.100625 228.96 
L 61.473625 228.96 
z
" clip-path="url(#pe252a29235)" style="fill: #8e4a93"/>
   </g>
   <g id="patch_108">
    <path d="M 65.100625 228.96 
L 68.727625 228.96 
L 68.727625 228.96 
L 65.100625 228.96 
z
" clip-path="url(#pe252a29235)" style="fill: #8e4a93"/>
   </g>
   <g id="patch_109">
    <path d="M 68.727625 228.96 
L 72.354625 228.96 
L 72.354625 228.96 
L 68.727625 228.96 
z
" clip-path="url(#pe252a29235)" style="fill: #8e4a93"/>
   </g>
   <g id="patch_110">
    <path d="M 72.354625 228.96 
L 75.981625 228.96 
L 75.981625 228.96 
L 72.354625 228.96 
z
" clip-path="url(#pe252a29235)" style="fill: #8e4a93"/>
   </g>
   <g id="patch_111">
    <path d="M 75.981625 228.96 
L 79.608625 228.96 
L 79.608625 228.96 
L 75.981625 228.96 
z
" clip-path="url(#pe252a29235)" style="fill: #8e4a93"/>
   </g>
   <g id="patch_112">
    <path d="M 79.608625 228.96 
L 83.235625 228.96 
L 83.235625 228.96 
L 79.608625 228.96 
z
" clip-path="url(#pe252a29235)" style="fill: #8e4a93"/>
   </g>
   <g id="patch_113">
    <path d="M 83.235625 228.96 
L 86.862625 228.96 
L 86.862625 228.96 
L 83.235625 228.96 
z
" clip-path="url(#pe252a29235)" style="fill: #8e4a93"/>
   </g>
   <g id="patch_114">
    <path d="M 86.862625 228.96 
L 90.489625 228.96 
L 90.489625 228.96 
L 86.862625 228.96 
z
" clip-path="url(#pe252a29235)" style="fill: #8e4a93"/>
   </g>
   <g id="patch_115">
    <path d="M 90.489625 228.96 
L 94.116625 228.96 
L 94.116625 228.96 
L 90.489625 228.96 
z
" clip-path="url(#pe252a29235)" style="fill: #8e4a93"/>
   </g>
   <g id="patch_116">
    <path d="M 94.116625 228.96 
L 97.743625 228.96 
L 97.743625 228.96 
L 94.116625 228.96 
z
" clip-path="url(#pe252a29235)" style="fill: #8e4a93"/>
   </g>
   <g id="patch_117">
    <path d="M 97.743625 228.96 
L 101.370625 228.96 
L 101.370625 228.96 
L 97.743625 228.96 
z
" clip-path="url(#pe252a29235)" style="fill: #8e4a93"/>
   </g>
   <g id="patch_118">
    <path d="M 101.370625 228.96 
L 104.997625 228.96 
L 104.997625 228.96 
L 101.370625 228.96 
z
" clip-path="url(#pe252a29235)" style="fill: #8e4a93"/>
   </g>
   <g id="patch_119">
    <path d="M 104.997625 228.96 
L 108.624625 228.96 
L 108.624625 228.96 
L 104.997625 228.96 
z
" clip-path="url(#pe252a29235)" style="fill: #8e4a93"/>
   </g>
   <g id="patch_120">
    <path d="M 108.624625 228.96 
L 112.251625 228.96 
L 112.251625 228.96 
L 108.624625 228.96 
z
" clip-path="url(#pe252a29235)" style="fill: #8e4a93"/>
   </g>
   <g id="patch_121">
    <path d="M 112.251625 228.96 
L 115.878625 228.96 
L 115.878625 228.96 
L 112.251625 228.96 
z
" clip-path="url(#pe252a29235)" style="fill: #8e4a93"/>
   </g>
   <g id="patch_122">
    <path d="M 115.878625 228.96 
L 119.505625 228.96 
L 119.505625 228.96 
L 115.878625 228.96 
z
" clip-path="url(#pe252a29235)" style="fill: #8e4a93"/>
   </g>
   <g id="patch_123">
    <path d="M 119.505625 228.96 
L 123.132625 228.96 
L 123.132625 194.662564 
L 119.505625 194.662564 
z
" clip-path="url(#pe252a29235)" style="fill: #8e4a93"/>
   </g>
   <g id="patch_124">
    <path d="M 123.132625 228.96 
L 126.759625 228.96 
L 126.759625 205.493333 
L 123.132625 205.493333 
z
" clip-path="url(#pe252a29235)" style="fill: #8e4a93"/>
   </g>
   <g id="patch_125">
    <path d="M 126.759625 228.96 
L 130.386625 228.96 
L 130.386625 192.857436 
L 126.759625 192.857436 
z
" clip-path="url(#pe252a29235)" style="fill: #8e4a93"/>
   </g>
   <g id="patch_126">
    <path d="M 130.386625 228.96 
L 134.013625 228.96 
L 134.013625 203.688205 
L 130.386625 203.688205 
z
" clip-path="url(#pe252a29235)" style="fill: #8e4a93"/>
   </g>
   <g id="patch_127">
    <path d="M 134.013625 228.96 
L 137.640625 228.96 
L 137.640625 194.662564 
L 134.013625 194.662564 
z
" clip-path="url(#pe252a29235)" style="fill: #8e4a93"/>
   </g>
   <g id="patch_128">
    <path d="M 137.640625 228.96 
L 141.267625 228.96 
L 141.267625 200.077949 
L 137.640625 200.077949 
z
" clip-path="url(#pe252a29235)" style="fill: #8e4a93"/>
   </g>
   <g id="patch_129">
    <path d="M 141.267625 228.96 
L 144.894625 228.96 
L 144.894625 194.662564 
L 141.267625 194.662564 
z
" clip-path="url(#pe252a29235)" style="fill: #8e4a93"/>
   </g>
   <g id="patch_130">
    <path d="M 144.894625 228.96 
L 148.521625 228.96 
L 148.521625 201.883077 
L 144.894625 201.883077 
z
" clip-path="url(#pe252a29235)" style="fill: #8e4a93"/>
   </g>
   <g id="patch_131">
    <path d="M 148.521625 228.96 
L 152.148625 228.96 
L 152.148625 176.611282 
L 148.521625 176.611282 
z
" clip-path="url(#pe252a29235)" style="fill: #8e4a93"/>
   </g>
   <g id="patch_132">
    <path d="M 152.148625 228.96 
L 155.775625 228.96 
L 155.775625 192.857436 
L 152.148625 192.857436 
z
" clip-path="url(#pe252a29235)" style="fill: #8e4a93"/>
   </g>
   <g id="patch_133">
    <path d="M 155.775625 228.96 
L 159.402625 228.96 
L 159.402625 185.636923 
L 155.775625 185.636923 
z
" clip-path="url(#pe252a29235)" style="fill: #8e4a93"/>
   </g>
   <g id="patch_134">
    <path d="M 159.402625 228.96 
L 163.029625 228.96 
L 163.029625 196.467692 
L 159.402625 196.467692 
z
" clip-path="url(#pe252a29235)" style="fill: #8e4a93"/>
   </g>
   <g id="patch_135">
    <path d="M 163.029625 228.96 
L 166.656625 228.96 
L 166.656625 201.883077 
L 163.029625 201.883077 
z
" clip-path="url(#pe252a29235)" style="fill: #8e4a93"/>
   </g>
   <g id="patch_136">
    <path d="M 166.656625 228.96 
L 170.283625 228.96 
L 170.283625 187.442051 
L 166.656625 187.442051 
z
" clip-path="url(#pe252a29235)" style="fill: #8e4a93"/>
   </g>
   <g id="patch_137">
    <path d="M 170.283625 228.96 
L 173.910625 228.96 
L 173.910625 173.001026 
L 170.283625 173.001026 
z
" clip-path="url(#pe252a29235)" style="fill: #8e4a93"/>
   </g>
   <g id="patch_138">
    <path d="M 173.910625 228.96 
L 177.537625 228.96 
L 177.537625 189.247179 
L 173.910625 189.247179 
z
" clip-path="url(#pe252a29235)" style="fill: #8e4a93"/>
   </g>
   <g id="patch_139">
    <path d="M 177.537625 228.96 
L 181.164625 228.96 
L 181.164625 173.001026 
L 177.537625 173.001026 
z
" clip-path="url(#pe252a29235)" style="fill: #8e4a93"/>
   </g>
   <g id="patch_140">
    <path d="M 181.164625 228.96 
L 184.791625 228.96 
L 184.791625 180.221538 
L 181.164625 180.221538 
z
" clip-path="url(#pe252a29235)" style="fill: #8e4a93"/>
   </g>
   <g id="patch_141">
    <path d="M 184.791625 228.96 
L 188.418625 228.96 
L 188.418625 180.221538 
L 184.791625 180.221538 
z
" clip-path="url(#pe252a29235)" style="fill: #8e4a93"/>
   </g>
   <g id="patch_142">
    <path d="M 188.418625 228.96 
L 192.045625 228.96 
L 192.045625 182.026667 
L 188.418625 182.026667 
z
" clip-path="url(#pe252a29235)" style="fill: #8e4a93"/>
   </g>
   <g id="patch_143">
    <path d="M 192.045625 228.96 
L 195.672625 228.96 
L 195.672625 135.093333 
L 192.045625 135.093333 
z
" clip-path="url(#pe252a29235)" style="fill: #8e4a93"/>
   </g>
   <g id="patch_144">
    <path d="M 195.672625 228.96 
L 199.299625 228.96 
L 199.299625 156.754872 
L 195.672625 156.754872 
z
" clip-path="url(#pe252a29235)" style="fill: #8e4a93"/>
   </g>
   <g id="patch_145">
    <path d="M 199.299625 228.96 
L 202.926625 228.96 
L 202.926625 145.924103 
L 199.299625 145.924103 
z
" clip-path="url(#pe252a29235)" style="fill: #8e4a93"/>
   </g>
   <g id="patch_146">
    <path d="M 202.926625 228.96 
L 206.553625 228.96 
L 206.553625 147.729231 
L 202.926625 147.729231 
z
" clip-path="url(#pe252a29235)" style="fill: #8e4a93"/>
   </g>
   <g id="patch_147">
    <path d="M 206.553625 228.96 
L 210.180625 228.96 
L 210.180625 156.754872 
L 206.553625 156.754872 
z
" clip-path="url(#pe252a29235)" style="fill: #8e4a93"/>
   </g>
   <g id="patch_148">
    <path d="M 210.180625 228.96 
L 213.807625 228.96 
L 213.807625 142.313846 
L 210.180625 142.313846 
z
" clip-path="url(#pe252a29235)" style="fill: #8e4a93"/>
   </g>
   <g id="patch_149">
    <path d="M 213.807625 228.96 
L 217.434625 228.96 
L 217.434625 133.288205 
L 213.807625 133.288205 
z
" clip-path="url(#pe252a29235)" style="fill: #8e4a93"/>
   </g>
   <g id="patch_150">
    <path d="M 217.434625 228.96 
L 221.061625 228.96 
L 221.061625 153.144615 
L 217.434625 153.144615 
z
" clip-path="url(#pe252a29235)" style="fill: #8e4a93"/>
   </g>
   <g id="patch_151">
    <path d="M 221.061625 228.96 
L 224.688625 228.96 
L 224.688625 104.406154 
L 221.061625 104.406154 
z
" clip-path="url(#pe252a29235)" style="fill: #8e4a93"/>
   </g>
   <g id="patch_152">
    <path d="M 224.688625 228.96 
L 228.315625 228.96 
L 228.315625 191.052308 
L 224.688625 191.052308 
z
" clip-path="url(#pe252a29235)" style="fill: #8e4a93"/>
   </g>
   <g id="patch_153">
    <path d="M 228.315625 228.96 
L 231.942625 228.96 
L 231.942625 75.524103 
L 228.315625 75.524103 
z
" clip-path="url(#pe252a29235)" style="fill: #8e4a93"/>
   </g>
   <g id="patch_154">
    <path d="M 231.942625 228.96 
L 235.569625 228.96 
L 235.569625 102.601026 
L 231.942625 102.601026 
z
" clip-path="url(#pe252a29235)" style="fill: #8e4a93"/>
   </g>
   <g id="patch_155">
    <path d="M 235.569625 228.96 
L 239.196625 228.96 
L 239.196625 88.16 
L 235.569625 88.16 
z
" clip-path="url(#pe252a29235)" style="fill: #8e4a93"/>
   </g>
   <g id="patch_156">
    <path d="M 239.196625 228.96 
L 242.823625 228.96 
L 242.823625 111.626667 
L 239.196625 111.626667 
z
" clip-path="url(#pe252a29235)" style="fill: #8e4a93"/>
   </g>
   <g id="patch_157">
    <path d="M 242.823625 228.96 
L 246.450625 228.96 
L 246.450625 64.693333 
L 242.823625 64.693333 
z
" clip-path="url(#pe252a29235)" style="fill: #8e4a93"/>
   </g>
   <g id="patch_158">
    <path d="M 246.450625 228.96 
L 250.077625 228.96 
L 250.077625 73.718974 
L 246.450625 73.718974 
z
" clip-path="url(#pe252a29235)" style="fill: #8e4a93"/>
   </g>
   <g id="patch_159">
    <path d="M 250.077625 228.96 
L 253.704625 228.96 
L 253.704625 39.421538 
L 250.077625 39.421538 
z
" clip-path="url(#pe252a29235)" style="fill: #8e4a93"/>
   </g>
   <g id="patch_160">
    <path d="M 253.704625 228.96 
L 257.331625 228.96 
L 257.331625 91.770256 
L 253.704625 91.770256 
z
" clip-path="url(#pe252a29235)" style="fill: #8e4a93"/>
   </g>
   <g id="patch_161">
    <path d="M 257.331625 228.96 
L 260.958625 228.96 
L 260.958625 55.667692 
L 257.331625 55.667692 
z
" clip-path="url(#pe252a29235)" style="fill: #8e4a93"/>
   </g>
   <g id="patch_162">
    <path d="M 260.958625 228.96 
L 264.585625 228.96 
L 264.585625 97.185641 
L 260.958625 97.185641 
z
" clip-path="url(#pe252a29235)" style="fill: #8e4a93"/>
   </g>
   <g id="patch_163">
    <path d="M 264.585625 228.96 
L 268.212625 228.96 
L 268.212625 17.76 
L 264.585625 17.76 
z
" clip-path="url(#pe252a29235)" style="fill: #8e4a93"/>
   </g>
   <g id="patch_164">
    <path d="M 268.212625 228.96 
L 271.839625 228.96 
L 271.839625 61.083077 
L 268.212625 61.083077 
z
" clip-path="url(#pe252a29235)" style="fill: #8e4a93"/>
   </g>
   <g id="patch_165">
    <path d="M 271.839625 228.96 
L 275.466625 228.96 
L 275.466625 70.108718 
L 271.839625 70.108718 
z
" clip-path="url(#pe252a29235)" style="fill: #8e4a93"/>
   </g>
   <g id="patch_166">
    <path d="M 275.466625 228.96 
L 279.093625 228.96 
L 279.093625 82.744615 
L 275.466625 82.744615 
z
" clip-path="url(#pe252a29235)" style="fill: #8e4a93"/>
   </g>
   <g id="patch_167">
    <path d="M 279.093625 228.96 
L 282.720625 228.96 
L 282.720625 32.201026 
L 279.093625 32.201026 
z
" clip-path="url(#pe252a29235)" style="fill: #8e4a93"/>
   </g>
   <g id="patch_168">
    <path d="M 282.720625 228.96 
L 286.347625 228.96 
L 286.347625 55.667692 
L 282.720625 55.667692 
z
" clip-path="url(#pe252a29235)" style="fill: #8e4a93"/>
   </g>
   <g id="patch_169">
    <path d="M 286.347625 228.96 
L 289.974625 228.96 
L 289.974625 35.811282 
L 286.347625 35.811282 
z
" clip-path="url(#pe252a29235)" style="fill: #8e4a93"/>
   </g>
   <g id="patch_170">
    <path d="M 289.974625 228.96 
L 293.601625 228.96 
L 293.601625 50.252308 
L 289.974625 50.252308 
z
" clip-path="url(#pe252a29235)" style="fill: #8e4a93"/>
   </g>
   <g id="patch_171">
    <path d="M 293.601625 228.96 
L 297.228625 228.96 
L 297.228625 48.447179 
L 293.601625 48.447179 
z
" clip-path="url(#pe252a29235)" style="fill: #8e4a93"/>
   </g>
   <g id="patch_172">
    <path d="M 297.228625 228.96 
L 300.855625 228.96 
L 300.855625 50.252308 
L 297.228625 50.252308 
z
" clip-path="url(#pe252a29235)" style="fill: #8e4a93"/>
   </g>
   <g id="patch_173">
    <path d="M 300.855625 228.96 
L 304.482625 228.96 
L 304.482625 48.447179 
L 300.855625 48.447179 
z
" clip-path="url(#pe252a29235)" style="fill: #8e4a93"/>
   </g>
   <g id="patch_174">
    <path d="M 304.482625 228.96 
L 308.109625 228.96 
L 308.109625 44.836923 
L 304.482625 44.836923 
z
" clip-path="url(#pe252a29235)" style="fill: #8e4a93"/>
   </g>
   <g id="patch_175">
    <path d="M 308.109625 228.96 
L 311.736625 228.96 
L 311.736625 50.252308 
L 308.109625 50.252308 
z
" clip-path="url(#pe252a29235)" style="fill: #8e4a93"/>
   </g>
   <g id="patch_176">
    <path d="M 311.736625 228.96 
L 315.363625 228.96 
L 315.363625 44.836923 
L 311.736625 44.836923 
z
" clip-path="url(#pe252a29235)" style="fill: #8e4a93"/>
   </g>
   <g id="patch_177">
    <path d="M 315.363625 228.96 
L 318.990625 228.96 
L 318.990625 86.354872 
L 315.363625 86.354872 
z
" clip-path="url(#pe252a29235)" style="fill: #8e4a93"/>
   </g>
   <g id="patch_178">
    <path d="M 318.990625 228.96 
L 322.617625 228.96 
L 322.617625 21.370256 
L 318.990625 21.370256 
z
" clip-path="url(#pe252a29235)" style="fill: #8e4a93"/>
   </g>
   <g id="patch_179">
    <path d="M 322.617625 228.96 
L 326.244625 228.96 
L 326.244625 46.642051 
L 322.617625 46.642051 
z
" clip-path="url(#pe252a29235)" style="fill: #8e4a93"/>
   </g>
   <g id="patch_180">
    <path d="M 326.244625 228.96 
L 329.871625 228.96 
L 329.871625 44.836923 
L 326.244625 44.836923 
z
" clip-path="url(#pe252a29235)" style="fill: #8e4a93"/>
   </g>
   <g id="patch_181">
    <path d="M 329.871625 228.96 
L 333.498625 228.96 
L 333.498625 55.667692 
L 329.871625 55.667692 
z
" clip-path="url(#pe252a29235)" style="fill: #8e4a93"/>
   </g>
   <g id="patch_182">
    <path d="M 333.498625 228.96 
L 337.125625 228.96 
L 337.125625 120.652308 
L 333.498625 120.652308 
z
" clip-path="url(#pe252a29235)" style="fill: #8e4a93"/>
   </g>
   <g id="patch_183">
    <path d="M 337.125625 228.96 
L 340.752625 228.96 
L 340.752625 104.406154 
L 337.125625 104.406154 
z
" clip-path="url(#pe252a29235)" style="fill: #8e4a93"/>
   </g>
   <g id="patch_184">
    <path d="M 340.752625 228.96 
L 344.379625 228.96 
L 344.379625 127.872821 
L 340.752625 127.872821 
z
" clip-path="url(#pe252a29235)" style="fill: #8e4a93"/>
   </g>
   <g id="patch_185">
    <path d="M 344.379625 228.96 
L 348.006625 228.96 
L 348.006625 138.70359 
L 344.379625 138.70359 
z
" clip-path="url(#pe252a29235)" style="fill: #8e4a93"/>
   </g>
   <g id="patch_186">
    <path d="M 348.006625 228.96 
L 351.633625 228.96 
L 351.633625 149.534359 
L 348.006625 149.534359 
z
" clip-path="url(#pe252a29235)" style="fill: #8e4a93"/>
   </g>
   <g id="patch_187">
    <path d="M 351.633625 228.96 
L 355.260625 228.96 
L 355.260625 154.949744 
L 351.633625 154.949744 
z
" clip-path="url(#pe252a29235)" style="fill: #8e4a93"/>
   </g>
   <g id="patch_188">
    <path d="M 355.260625 228.96 
L 358.887625 228.96 
L 358.887625 178.41641 
L 355.260625 178.41641 
z
" clip-path="url(#pe252a29235)" style="fill: #8e4a93"/>
   </g>
   <g id="patch_189">
    <path d="M 358.887625 228.96 
L 362.514625 228.96 
L 362.514625 182.026667 
L 358.887625 182.026667 
z
" clip-path="url(#pe252a29235)" style="fill: #8e4a93"/>
   </g>
   <g id="patch_190">
    <path d="M 362.514625 228.96 
L 366.141625 228.96 
L 366.141625 201.883077 
L 362.514625 201.883077 
z
" clip-path="url(#pe252a29235)" style="fill: #8e4a93"/>
   </g>
   <g id="patch_191">
    <path d="M 366.141625 228.96 
L 369.768625 228.96 
L 369.768625 189.247179 
L 366.141625 189.247179 
z
" clip-path="url(#pe252a29235)" style="fill: #8e4a93"/>
   </g>
   <g id="patch_192">
    <path d="M 369.768625 228.96 
L 373.395625 228.96 
L 373.395625 201.883077 
L 369.768625 201.883077 
z
" clip-path="url(#pe252a29235)" style="fill: #8e4a93"/>
   </g>
   <g id="patch_193">
    <path d="M 373.395625 228.96 
L 377.022625 228.96 
L 377.022625 214.518974 
L 373.395625 214.518974 
z
" clip-path="url(#pe252a29235)" style="fill: #8e4a93"/>
   </g>
   <g id="patch_194">
    <path d="M 377.022625 228.96 
L 380.649625 228.96 
L 380.649625 219.934359 
L 377.022625 219.934359 
z
" clip-path="url(#pe252a29235)" style="fill: #8e4a93"/>
   </g>
   <g id="patch_195">
    <path d="M 380.649625 228.96 
L 384.276625 228.96 
L 384.276625 225.349744 
L 380.649625 225.349744 
z
" clip-path="url(#pe252a29235)" style="fill: #8e4a93"/>
   </g>
   <g id="patch_196">
    <path d="M 384.276625 228.96 
L 387.903625 228.96 
L 387.903625 225.349744 
L 384.276625 225.349744 
z
" clip-path="url(#pe252a29235)" style="fill: #8e4a93"/>
   </g>
   <g id="patch_197">
    <path d="M 387.903625 228.96 
L 391.530625 228.96 
L 391.530625 223.544615 
L 387.903625 223.544615 
z
" clip-path="url(#pe252a29235)" style="fill: #8e4a93"/>
   </g>
   <g id="patch_198">
    <path d="M 391.530625 228.96 
L 395.157625 228.96 
L 395.157625 225.349744 
L 391.530625 225.349744 
z
" clip-path="url(#pe252a29235)" style="fill: #8e4a93"/>
   </g>
   <g id="patch_199">
    <path d="M 395.157625 228.96 
L 398.784625 228.96 
L 398.784625 212.713846 
L 395.157625 212.713846 
z
" clip-path="url(#pe252a29235)" style="fill: #8e4a93"/>
   </g>
   <g id="patch_200">
    <path d="M 398.784625 228.96 
L 402.411625 228.96 
L 402.411625 227.154872 
L 398.784625 227.154872 
z
" clip-path="url(#pe252a29235)" style="fill: #8e4a93"/>
   </g>
   <g id="patch_201">
    <path d="M 402.411625 228.96 
L 406.038625 228.96 
L 406.038625 227.154872 
L 402.411625 227.154872 
z
" clip-path="url(#pe252a29235)" style="fill: #8e4a93"/>
   </g>
   <g id="patch_202">
    <path d="M 406.038625 228.96 
L 409.665625 228.96 
L 409.665625 225.349744 
L 406.038625 225.349744 
z
" clip-path="url(#pe252a29235)" style="fill: #8e4a93"/>
   </g>
   <g id="matplotlib.axis_1">
    <g id="xtick_1">
     <g id="line2d_1">
      <defs>
       <path id="m6977c1b61f" d="M 0 0 
L 0 3.5 
" style="stroke: #000000; stroke-width: 0.8"/>
      </defs>
      <g>
       <use xlink:href="#m6977c1b61f" x="46.965625" y="228.96" style="stroke: #000000; stroke-width: 0.8"/>
      </g>
     </g>
     <g id="text_1">
      <!-- 0.0 -->
      <g transform="translate(39.014063 243.558438) scale(0.1 -0.1)">
       <defs>
        <path id="DejaVuSans-30" d="M 2034 4250 
Q 1547 4250 1301 3770 
Q 1056 3291 1056 2328 
Q 1056 1369 1301 889 
Q 1547 409 2034 409 
Q 2525 409 2770 889 
Q 3016 1369 3016 2328 
Q 3016 3291 2770 3770 
Q 2525 4250 2034 4250 
z
M 2034 4750 
Q 2819 4750 3233 4129 
Q 3647 3509 3647 2328 
Q 3647 1150 3233 529 
Q 2819 -91 2034 -91 
Q 1250 -91 836 529 
Q 422 1150 422 2328 
Q 422 3509 836 4129 
Q 1250 4750 2034 4750 
z
" transform="scale(0.015625)"/>
        <path id="DejaVuSans-2e" d="M 684 794 
L 1344 794 
L 1344 0 
L 684 0 
L 684 794 
z
" transform="scale(0.015625)"/>
       </defs>
       <use xlink:href="#DejaVuSans-30"/>
       <use xlink:href="#DejaVuSans-2e" x="63.623047"/>
       <use xlink:href="#DejaVuSans-30" x="95.410156"/>
      </g>
     </g>
    </g>
    <g id="xtick_2">
     <g id="line2d_2">
      <g>
       <use xlink:href="#m6977c1b61f" x="119.505625" y="228.96" style="stroke: #000000; stroke-width: 0.8"/>
      </g>
     </g>
     <g id="text_2">
      <!-- 0.2 -->
      <g transform="translate(111.554063 243.558438) scale(0.1 -0.1)">
       <defs>
        <path id="DejaVuSans-32" d="M 1228 531 
L 3431 531 
L 3431 0 
L 469 0 
L 469 531 
Q 828 903 1448 1529 
Q 2069 2156 2228 2338 
Q 2531 2678 2651 2914 
Q 2772 3150 2772 3378 
Q 2772 3750 2511 3984 
Q 2250 4219 1831 4219 
Q 1534 4219 1204 4116 
Q 875 4013 500 3803 
L 500 4441 
Q 881 4594 1212 4672 
Q 1544 4750 1819 4750 
Q 2544 4750 2975 4387 
Q 3406 4025 3406 3419 
Q 3406 3131 3298 2873 
Q 3191 2616 2906 2266 
Q 2828 2175 2409 1742 
Q 1991 1309 1228 531 
z
" transform="scale(0.015625)"/>
       </defs>
       <use xlink:href="#DejaVuSans-30"/>
       <use xlink:href="#DejaVuSans-2e" x="63.623047"/>
       <use xlink:href="#DejaVuSans-32" x="95.410156"/>
      </g>
     </g>
    </g>
    <g id="xtick_3">
     <g id="line2d_3">
      <g>
       <use xlink:href="#m6977c1b61f" x="192.045625" y="228.96" style="stroke: #000000; stroke-width: 0.8"/>
      </g>
     </g>
     <g id="text_3">
      <!-- 0.4 -->
      <g transform="translate(184.094063 243.558438) scale(0.1 -0.1)">
       <defs>
        <path id="DejaVuSans-34" d="M 2419 4116 
L 825 1625 
L 2419 1625 
L 2419 4116 
z
M 2253 4666 
L 3047 4666 
L 3047 1625 
L 3713 1625 
L 3713 1100 
L 3047 1100 
L 3047 0 
L 2419 0 
L 2419 1100 
L 313 1100 
L 313 1709 
L 2253 4666 
z
" transform="scale(0.015625)"/>
       </defs>
       <use xlink:href="#DejaVuSans-30"/>
       <use xlink:href="#DejaVuSans-2e" x="63.623047"/>
       <use xlink:href="#DejaVuSans-34" x="95.410156"/>
      </g>
     </g>
    </g>
    <g id="xtick_4">
     <g id="line2d_4">
      <g>
       <use xlink:href="#m6977c1b61f" x="264.585625" y="228.96" style="stroke: #000000; stroke-width: 0.8"/>
      </g>
     </g>
     <g id="text_4">
      <!-- 0.6 -->
      <g transform="translate(256.634063 243.558438) scale(0.1 -0.1)">
       <defs>
        <path id="DejaVuSans-36" d="M 2113 2584 
Q 1688 2584 1439 2293 
Q 1191 2003 1191 1497 
Q 1191 994 1439 701 
Q 1688 409 2113 409 
Q 2538 409 2786 701 
Q 3034 994 3034 1497 
Q 3034 2003 2786 2293 
Q 2538 2584 2113 2584 
z
M 3366 4563 
L 3366 3988 
Q 3128 4100 2886 4159 
Q 2644 4219 2406 4219 
Q 1781 4219 1451 3797 
Q 1122 3375 1075 2522 
Q 1259 2794 1537 2939 
Q 1816 3084 2150 3084 
Q 2853 3084 3261 2657 
Q 3669 2231 3669 1497 
Q 3669 778 3244 343 
Q 2819 -91 2113 -91 
Q 1303 -91 875 529 
Q 447 1150 447 2328 
Q 447 3434 972 4092 
Q 1497 4750 2381 4750 
Q 2619 4750 2861 4703 
Q 3103 4656 3366 4563 
z
" transform="scale(0.015625)"/>
       </defs>
       <use xlink:href="#DejaVuSans-30"/>
       <use xlink:href="#DejaVuSans-2e" x="63.623047"/>
       <use xlink:href="#DejaVuSans-36" x="95.410156"/>
      </g>
     </g>
    </g>
    <g id="xtick_5">
     <g id="line2d_5">
      <g>
       <use xlink:href="#m6977c1b61f" x="337.125625" y="228.96" style="stroke: #000000; stroke-width: 0.8"/>
      </g>
     </g>
     <g id="text_5">
      <!-- 0.8 -->
      <g transform="translate(329.174062 243.558438) scale(0.1 -0.1)">
       <defs>
        <path id="DejaVuSans-38" d="M 2034 2216 
Q 1584 2216 1326 1975 
Q 1069 1734 1069 1313 
Q 1069 891 1326 650 
Q 1584 409 2034 409 
Q 2484 409 2743 651 
Q 3003 894 3003 1313 
Q 3003 1734 2745 1975 
Q 2488 2216 2034 2216 
z
M 1403 2484 
Q 997 2584 770 2862 
Q 544 3141 544 3541 
Q 544 4100 942 4425 
Q 1341 4750 2034 4750 
Q 2731 4750 3128 4425 
Q 3525 4100 3525 3541 
Q 3525 3141 3298 2862 
Q 3072 2584 2669 2484 
Q 3125 2378 3379 2068 
Q 3634 1759 3634 1313 
Q 3634 634 3220 271 
Q 2806 -91 2034 -91 
Q 1263 -91 848 271 
Q 434 634 434 1313 
Q 434 1759 690 2068 
Q 947 2378 1403 2484 
z
M 1172 3481 
Q 1172 3119 1398 2916 
Q 1625 2713 2034 2713 
Q 2441 2713 2670 2916 
Q 2900 3119 2900 3481 
Q 2900 3844 2670 4047 
Q 2441 4250 2034 4250 
Q 1625 4250 1398 4047 
Q 1172 3844 1172 3481 
z
" transform="scale(0.015625)"/>
       </defs>
       <use xlink:href="#DejaVuSans-30"/>
       <use xlink:href="#DejaVuSans-2e" x="63.623047"/>
       <use xlink:href="#DejaVuSans-38" x="95.410156"/>
      </g>
     </g>
    </g>
    <g id="xtick_6">
     <g id="line2d_6">
      <g>
       <use xlink:href="#m6977c1b61f" x="409.665625" y="228.96" style="stroke: #000000; stroke-width: 0.8"/>
      </g>
     </g>
     <g id="text_6">
      <!-- 1.0 -->
      <g transform="translate(401.714062 243.558438) scale(0.1 -0.1)">
       <defs>
        <path id="DejaVuSans-31" d="M 794 531 
L 1825 531 
L 1825 4091 
L 703 3866 
L 703 4441 
L 1819 4666 
L 2450 4666 
L 2450 531 
L 3481 531 
L 3481 0 
L 794 0 
L 794 531 
z
" transform="scale(0.015625)"/>
       </defs>
       <use xlink:href="#DejaVuSans-31"/>
       <use xlink:href="#DejaVuSans-2e" x="63.623047"/>
       <use xlink:href="#DejaVuSans-30" x="95.410156"/>
      </g>
     </g>
    </g>
    <g id="text_7">
     <!-- Tanimoto Similarity Score -->
     <g transform="translate(164.695312 257.236562) scale(0.1 -0.1)">
      <defs>
       <path id="DejaVuSans-54" d="M -19 4666 
L 3928 4666 
L 3928 4134 
L 2272 4134 
L 2272 0 
L 1638 0 
L 1638 4134 
L -19 4134 
L -19 4666 
z
" transform="scale(0.015625)"/>
       <path id="DejaVuSans-61" d="M 2194 1759 
Q 1497 1759 1228 1600 
Q 959 1441 959 1056 
Q 959 750 1161 570 
Q 1363 391 1709 391 
Q 2188 391 2477 730 
Q 2766 1069 2766 1631 
L 2766 1759 
L 2194 1759 
z
M 3341 1997 
L 3341 0 
L 2766 0 
L 2766 531 
Q 2569 213 2275 61 
Q 1981 -91 1556 -91 
Q 1019 -91 701 211 
Q 384 513 384 1019 
Q 384 1609 779 1909 
Q 1175 2209 1959 2209 
L 2766 2209 
L 2766 2266 
Q 2766 2663 2505 2880 
Q 2244 3097 1772 3097 
Q 1472 3097 1187 3025 
Q 903 2953 641 2809 
L 641 3341 
Q 956 3463 1253 3523 
Q 1550 3584 1831 3584 
Q 2591 3584 2966 3190 
Q 3341 2797 3341 1997 
z
" transform="scale(0.015625)"/>
       <path id="DejaVuSans-6e" d="M 3513 2113 
L 3513 0 
L 2938 0 
L 2938 2094 
Q 2938 2591 2744 2837 
Q 2550 3084 2163 3084 
Q 1697 3084 1428 2787 
Q 1159 2491 1159 1978 
L 1159 0 
L 581 0 
L 581 3500 
L 1159 3500 
L 1159 2956 
Q 1366 3272 1645 3428 
Q 1925 3584 2291 3584 
Q 2894 3584 3203 3211 
Q 3513 2838 3513 2113 
z
" transform="scale(0.015625)"/>
       <path id="DejaVuSans-69" d="M 603 3500 
L 1178 3500 
L 1178 0 
L 603 0 
L 603 3500 
z
M 603 4863 
L 1178 4863 
L 1178 4134 
L 603 4134 
L 603 4863 
z
" transform="scale(0.015625)"/>
       <path id="DejaVuSans-6d" d="M 3328 2828 
Q 3544 3216 3844 3400 
Q 4144 3584 4550 3584 
Q 5097 3584 5394 3201 
Q 5691 2819 5691 2113 
L 5691 0 
L 5113 0 
L 5113 2094 
Q 5113 2597 4934 2840 
Q 4756 3084 4391 3084 
Q 3944 3084 3684 2787 
Q 3425 2491 3425 1978 
L 3425 0 
L 2847 0 
L 2847 2094 
Q 2847 2600 2669 2842 
Q 2491 3084 2119 3084 
Q 1678 3084 1418 2786 
Q 1159 2488 1159 1978 
L 1159 0 
L 581 0 
L 581 3500 
L 1159 3500 
L 1159 2956 
Q 1356 3278 1631 3431 
Q 1906 3584 2284 3584 
Q 2666 3584 2933 3390 
Q 3200 3197 3328 2828 
z
" transform="scale(0.015625)"/>
       <path id="DejaVuSans-6f" d="M 1959 3097 
Q 1497 3097 1228 2736 
Q 959 2375 959 1747 
Q 959 1119 1226 758 
Q 1494 397 1959 397 
Q 2419 397 2687 759 
Q 2956 1122 2956 1747 
Q 2956 2369 2687 2733 
Q 2419 3097 1959 3097 
z
M 1959 3584 
Q 2709 3584 3137 3096 
Q 3566 2609 3566 1747 
Q 3566 888 3137 398 
Q 2709 -91 1959 -91 
Q 1206 -91 779 398 
Q 353 888 353 1747 
Q 353 2609 779 3096 
Q 1206 3584 1959 3584 
z
" transform="scale(0.015625)"/>
       <path id="DejaVuSans-74" d="M 1172 4494 
L 1172 3500 
L 2356 3500 
L 2356 3053 
L 1172 3053 
L 1172 1153 
Q 1172 725 1289 603 
Q 1406 481 1766 481 
L 2356 481 
L 2356 0 
L 1766 0 
Q 1100 0 847 248 
Q 594 497 594 1153 
L 594 3053 
L 172 3053 
L 172 3500 
L 594 3500 
L 594 4494 
L 1172 4494 
z
" transform="scale(0.015625)"/>
       <path id="DejaVuSans-20" transform="scale(0.015625)"/>
       <path id="DejaVuSans-53" d="M 3425 4513 
L 3425 3897 
Q 3066 4069 2747 4153 
Q 2428 4238 2131 4238 
Q 1616 4238 1336 4038 
Q 1056 3838 1056 3469 
Q 1056 3159 1242 3001 
Q 1428 2844 1947 2747 
L 2328 2669 
Q 3034 2534 3370 2195 
Q 3706 1856 3706 1288 
Q 3706 609 3251 259 
Q 2797 -91 1919 -91 
Q 1588 -91 1214 -16 
Q 841 59 441 206 
L 441 856 
Q 825 641 1194 531 
Q 1563 422 1919 422 
Q 2459 422 2753 634 
Q 3047 847 3047 1241 
Q 3047 1584 2836 1778 
Q 2625 1972 2144 2069 
L 1759 2144 
Q 1053 2284 737 2584 
Q 422 2884 422 3419 
Q 422 4038 858 4394 
Q 1294 4750 2059 4750 
Q 2388 4750 2728 4690 
Q 3069 4631 3425 4513 
z
" transform="scale(0.015625)"/>
       <path id="DejaVuSans-6c" d="M 603 4863 
L 1178 4863 
L 1178 0 
L 603 0 
L 603 4863 
z
" transform="scale(0.015625)"/>
       <path id="DejaVuSans-72" d="M 2631 2963 
Q 2534 3019 2420 3045 
Q 2306 3072 2169 3072 
Q 1681 3072 1420 2755 
Q 1159 2438 1159 1844 
L 1159 0 
L 581 0 
L 581 3500 
L 1159 3500 
L 1159 2956 
Q 1341 3275 1631 3429 
Q 1922 3584 2338 3584 
Q 2397 3584 2469 3576 
Q 2541 3569 2628 3553 
L 2631 2963 
z
" transform="scale(0.015625)"/>
       <path id="DejaVuSans-79" d="M 2059 -325 
Q 1816 -950 1584 -1140 
Q 1353 -1331 966 -1331 
L 506 -1331 
L 506 -850 
L 844 -850 
Q 1081 -850 1212 -737 
Q 1344 -625 1503 -206 
L 1606 56 
L 191 3500 
L 800 3500 
L 1894 763 
L 2988 3500 
L 3597 3500 
L 2059 -325 
z
" transform="scale(0.015625)"/>
       <path id="DejaVuSans-63" d="M 3122 3366 
L 3122 2828 
Q 2878 2963 2633 3030 
Q 2388 3097 2138 3097 
Q 1578 3097 1268 2742 
Q 959 2388 959 1747 
Q 959 1106 1268 751 
Q 1578 397 2138 397 
Q 2388 397 2633 464 
Q 2878 531 3122 666 
L 3122 134 
Q 2881 22 2623 -34 
Q 2366 -91 2075 -91 
Q 1284 -91 818 406 
Q 353 903 353 1747 
Q 353 2603 823 3093 
Q 1294 3584 2113 3584 
Q 2378 3584 2631 3529 
Q 2884 3475 3122 3366 
z
" transform="scale(0.015625)"/>
       <path id="DejaVuSans-65" d="M 3597 1894 
L 3597 1613 
L 953 1613 
Q 991 1019 1311 708 
Q 1631 397 2203 397 
Q 2534 397 2845 478 
Q 3156 559 3463 722 
L 3463 178 
Q 3153 47 2828 -22 
Q 2503 -91 2169 -91 
Q 1331 -91 842 396 
Q 353 884 353 1716 
Q 353 2575 817 3079 
Q 1281 3584 2069 3584 
Q 2775 3584 3186 3129 
Q 3597 2675 3597 1894 
z
M 3022 2063 
Q 3016 2534 2758 2815 
Q 2500 3097 2075 3097 
Q 1594 3097 1305 2825 
Q 1016 2553 972 2059 
L 3022 2063 
z
" transform="scale(0.015625)"/>
      </defs>
      <use xlink:href="#DejaVuSans-54"/>
      <use xlink:href="#DejaVuSans-61" x="44.583984"/>
      <use xlink:href="#DejaVuSans-6e" x="105.863281"/>
      <use xlink:href="#DejaVuSans-69" x="169.242188"/>
      <use xlink:href="#DejaVuSans-6d" x="197.025391"/>
      <use xlink:href="#DejaVuSans-6f" x="294.4375"/>
      <use xlink:href="#DejaVuSans-74" x="355.619141"/>
      <use xlink:href="#DejaVuSans-6f" x="394.828125"/>
      <use xlink:href="#DejaVuSans-20" x="456.009766"/>
      <use xlink:href="#DejaVuSans-53" x="487.796875"/>
      <use xlink:href="#DejaVuSans-69" x="551.273438"/>
      <use xlink:href="#DejaVuSans-6d" x="579.056641"/>
      <use xlink:href="#DejaVuSans-69" x="676.46875"/>
      <use xlink:href="#DejaVuSans-6c" x="704.251953"/>
      <use xlink:href="#DejaVuSans-61" x="732.035156"/>
      <use xlink:href="#DejaVuSans-72" x="793.314453"/>
      <use xlink:href="#DejaVuSans-69" x="834.427734"/>
      <use xlink:href="#DejaVuSans-74" x="862.210938"/>
      <use xlink:href="#DejaVuSans-79" x="901.419922"/>
      <use xlink:href="#DejaVuSans-20" x="960.599609"/>
      <use xlink:href="#DejaVuSans-53" x="992.386719"/>
      <use xlink:href="#DejaVuSans-63" x="1055.863281"/>
      <use xlink:href="#DejaVuSans-6f" x="1110.84375"/>
      <use xlink:href="#DejaVuSans-72" x="1172.025391"/>
      <use xlink:href="#DejaVuSans-65" x="1210.888672"/>
     </g>
    </g>
   </g>
   <g id="matplotlib.axis_2">
    <g id="ytick_1">
     <g id="line2d_7">
      <defs>
       <path id="mf35ac0736c" d="M 0 0 
L -3.5 0 
" style="stroke: #000000; stroke-width: 0.8"/>
      </defs>
      <g>
       <use xlink:href="#mf35ac0736c" x="46.965625" y="228.96" style="stroke: #000000; stroke-width: 0.8"/>
      </g>
     </g>
     <g id="text_8">
      <!-- 0 -->
      <g transform="translate(33.603125 232.759219) scale(0.1 -0.1)">
       <use xlink:href="#DejaVuSans-30"/>
      </g>
     </g>
    </g>
    <g id="ytick_2">
     <g id="line2d_8">
      <g>
       <use xlink:href="#mf35ac0736c" x="46.965625" y="192.857436" style="stroke: #000000; stroke-width: 0.8"/>
      </g>
     </g>
     <g id="text_9">
      <!-- 20 -->
      <g transform="translate(27.240625 196.656655) scale(0.1 -0.1)">
       <use xlink:href="#DejaVuSans-32"/>
       <use xlink:href="#DejaVuSans-30" x="63.623047"/>
      </g>
     </g>
    </g>
    <g id="ytick_3">
     <g id="line2d_9">
      <g>
       <use xlink:href="#mf35ac0736c" x="46.965625" y="156.754872" style="stroke: #000000; stroke-width: 0.8"/>
      </g>
     </g>
     <g id="text_10">
      <!-- 40 -->
      <g transform="translate(27.240625 160.554091) scale(0.1 -0.1)">
       <use xlink:href="#DejaVuSans-34"/>
       <use xlink:href="#DejaVuSans-30" x="63.623047"/>
      </g>
     </g>
    </g>
    <g id="ytick_4">
     <g id="line2d_10">
      <g>
       <use xlink:href="#mf35ac0736c" x="46.965625" y="120.652308" style="stroke: #000000; stroke-width: 0.8"/>
      </g>
     </g>
     <g id="text_11">
      <!-- 60 -->
      <g transform="translate(27.240625 124.451526) scale(0.1 -0.1)">
       <use xlink:href="#DejaVuSans-36"/>
       <use xlink:href="#DejaVuSans-30" x="63.623047"/>
      </g>
     </g>
    </g>
    <g id="ytick_5">
     <g id="line2d_11">
      <g>
       <use xlink:href="#mf35ac0736c" x="46.965625" y="84.549744" style="stroke: #000000; stroke-width: 0.8"/>
      </g>
     </g>
     <g id="text_12">
      <!-- 80 -->
      <g transform="translate(27.240625 88.348962) scale(0.1 -0.1)">
       <use xlink:href="#DejaVuSans-38"/>
       <use xlink:href="#DejaVuSans-30" x="63.623047"/>
      </g>
     </g>
    </g>
    <g id="ytick_6">
     <g id="line2d_12">
      <g>
       <use xlink:href="#mf35ac0736c" x="46.965625" y="48.447179" style="stroke: #000000; stroke-width: 0.8"/>
      </g>
     </g>
     <g id="text_13">
      <!-- 100 -->
      <g transform="translate(20.878125 52.246398) scale(0.1 -0.1)">
       <use xlink:href="#DejaVuSans-31"/>
       <use xlink:href="#DejaVuSans-30" x="63.623047"/>
       <use xlink:href="#DejaVuSans-30" x="127.246094"/>
      </g>
     </g>
    </g>
    <g id="ytick_7">
     <g id="line2d_13">
      <g>
       <use xlink:href="#mf35ac0736c" x="46.965625" y="12.344615" style="stroke: #000000; stroke-width: 0.8"/>
      </g>
     </g>
     <g id="text_14">
      <!-- 120 -->
      <g transform="translate(20.878125 16.143834) scale(0.1 -0.1)">
       <use xlink:href="#DejaVuSans-31"/>
       <use xlink:href="#DejaVuSans-32" x="63.623047"/>
       <use xlink:href="#DejaVuSans-30" x="127.246094"/>
      </g>
     </g>
    </g>
    <g id="text_15">
     <!-- Frequency -->
     <g transform="translate(14.798438 143.909687) rotate(-90) scale(0.1 -0.1)">
      <defs>
       <path id="DejaVuSans-46" d="M 628 4666 
L 3309 4666 
L 3309 4134 
L 1259 4134 
L 1259 2759 
L 3109 2759 
L 3109 2228 
L 1259 2228 
L 1259 0 
L 628 0 
L 628 4666 
z
" transform="scale(0.015625)"/>
       <path id="DejaVuSans-71" d="M 947 1747 
Q 947 1113 1208 752 
Q 1469 391 1925 391 
Q 2381 391 2643 752 
Q 2906 1113 2906 1747 
Q 2906 2381 2643 2742 
Q 2381 3103 1925 3103 
Q 1469 3103 1208 2742 
Q 947 2381 947 1747 
z
M 2906 525 
Q 2725 213 2448 61 
Q 2172 -91 1784 -91 
Q 1150 -91 751 415 
Q 353 922 353 1747 
Q 353 2572 751 3078 
Q 1150 3584 1784 3584 
Q 2172 3584 2448 3432 
Q 2725 3281 2906 2969 
L 2906 3500 
L 3481 3500 
L 3481 -1331 
L 2906 -1331 
L 2906 525 
z
" transform="scale(0.015625)"/>
       <path id="DejaVuSans-75" d="M 544 1381 
L 544 3500 
L 1119 3500 
L 1119 1403 
Q 1119 906 1312 657 
Q 1506 409 1894 409 
Q 2359 409 2629 706 
Q 2900 1003 2900 1516 
L 2900 3500 
L 3475 3500 
L 3475 0 
L 2900 0 
L 2900 538 
Q 2691 219 2414 64 
Q 2138 -91 1772 -91 
Q 1169 -91 856 284 
Q 544 659 544 1381 
z
M 1991 3584 
L 1991 3584 
z
" transform="scale(0.015625)"/>
      </defs>
      <use xlink:href="#DejaVuSans-46"/>
      <use xlink:href="#DejaVuSans-72" x="50.269531"/>
      <use xlink:href="#DejaVuSans-65" x="89.132812"/>
      <use xlink:href="#DejaVuSans-71" x="150.65625"/>
      <use xlink:href="#DejaVuSans-75" x="214.132812"/>
      <use xlink:href="#DejaVuSans-65" x="277.511719"/>
      <use xlink:href="#DejaVuSans-6e" x="339.035156"/>
      <use xlink:href="#DejaVuSans-63" x="402.414062"/>
      <use xlink:href="#DejaVuSans-79" x="457.394531"/>
     </g>
    </g>
   </g>
   <g id="patch_203">
    <path d="M 46.965625 228.96 
L 46.965625 7.2 
" style="fill: none; stroke: #000000; stroke-width: 0.8; stroke-linejoin: miter; stroke-linecap: square"/>
   </g>
   <g id="patch_204">
    <path d="M 409.665625 228.96 
L 409.665625 7.2 
" style="fill: none; stroke: #000000; stroke-width: 0.8; stroke-linejoin: miter; stroke-linecap: square"/>
   </g>
   <g id="patch_205">
    <path d="M 46.965625 228.96 
L 409.665625 228.96 
" style="fill: none; stroke: #000000; stroke-width: 0.8; stroke-linejoin: miter; stroke-linecap: square"/>
   </g>
   <g id="patch_206">
    <path d="M 46.965625 7.2 
L 409.665625 7.2 
" style="fill: none; stroke: #000000; stroke-width: 0.8; stroke-linejoin: miter; stroke-linecap: square"/>
   </g>
   <g id="legend_1">
    <g id="patch_207">
     <path d="M 53.965625 44.55625 
L 162.067188 44.55625 
Q 164.067188 44.55625 164.067188 42.55625 
L 164.067188 14.2 
Q 164.067188 12.2 162.067188 12.2 
L 53.965625 12.2 
Q 51.965625 12.2 51.965625 14.2 
L 51.965625 42.55625 
Q 51.965625 44.55625 53.965625 44.55625 
z
" style="fill: #ffffff; opacity: 0.8; stroke: #cccccc; stroke-linejoin: miter"/>
    </g>
    <g id="patch_208">
     <path d="M 55.965625 23.798438 
L 75.965625 23.798438 
L 75.965625 16.798438 
L 55.965625 16.798438 
z
" style="fill: #cca0cf"/>
    </g>
    <g id="text_16">
     <!-- Before Filtering -->
     <g transform="translate(83.965625 23.798438) scale(0.1 -0.1)">
      <defs>
       <path id="DejaVuSans-42" d="M 1259 2228 
L 1259 519 
L 2272 519 
Q 2781 519 3026 730 
Q 3272 941 3272 1375 
Q 3272 1813 3026 2020 
Q 2781 2228 2272 2228 
L 1259 2228 
z
M 1259 4147 
L 1259 2741 
L 2194 2741 
Q 2656 2741 2882 2914 
Q 3109 3088 3109 3444 
Q 3109 3797 2882 3972 
Q 2656 4147 2194 4147 
L 1259 4147 
z
M 628 4666 
L 2241 4666 
Q 2963 4666 3353 4366 
Q 3744 4066 3744 3513 
Q 3744 3084 3544 2831 
Q 3344 2578 2956 2516 
Q 3422 2416 3680 2098 
Q 3938 1781 3938 1306 
Q 3938 681 3513 340 
Q 3088 0 2303 0 
L 628 0 
L 628 4666 
z
" transform="scale(0.015625)"/>
       <path id="DejaVuSans-66" d="M 2375 4863 
L 2375 4384 
L 1825 4384 
Q 1516 4384 1395 4259 
Q 1275 4134 1275 3809 
L 1275 3500 
L 2222 3500 
L 2222 3053 
L 1275 3053 
L 1275 0 
L 697 0 
L 697 3053 
L 147 3053 
L 147 3500 
L 697 3500 
L 697 3744 
Q 697 4328 969 4595 
Q 1241 4863 1831 4863 
L 2375 4863 
z
" transform="scale(0.015625)"/>
       <path id="DejaVuSans-67" d="M 2906 1791 
Q 2906 2416 2648 2759 
Q 2391 3103 1925 3103 
Q 1463 3103 1205 2759 
Q 947 2416 947 1791 
Q 947 1169 1205 825 
Q 1463 481 1925 481 
Q 2391 481 2648 825 
Q 2906 1169 2906 1791 
z
M 3481 434 
Q 3481 -459 3084 -895 
Q 2688 -1331 1869 -1331 
Q 1566 -1331 1297 -1286 
Q 1028 -1241 775 -1147 
L 775 -588 
Q 1028 -725 1275 -790 
Q 1522 -856 1778 -856 
Q 2344 -856 2625 -561 
Q 2906 -266 2906 331 
L 2906 616 
Q 2728 306 2450 153 
Q 2172 0 1784 0 
Q 1141 0 747 490 
Q 353 981 353 1791 
Q 353 2603 747 3093 
Q 1141 3584 1784 3584 
Q 2172 3584 2450 3431 
Q 2728 3278 2906 2969 
L 2906 3500 
L 3481 3500 
L 3481 434 
z
" transform="scale(0.015625)"/>
      </defs>
      <use xlink:href="#DejaVuSans-42"/>
      <use xlink:href="#DejaVuSans-65" x="68.603516"/>
      <use xlink:href="#DejaVuSans-66" x="130.126953"/>
      <use xlink:href="#DejaVuSans-6f" x="165.332031"/>
      <use xlink:href="#DejaVuSans-72" x="226.513672"/>
      <use xlink:href="#DejaVuSans-65" x="265.376953"/>
      <use xlink:href="#DejaVuSans-20" x="326.900391"/>
      <use xlink:href="#DejaVuSans-46" x="358.6875"/>
      <use xlink:href="#DejaVuSans-69" x="408.957031"/>
      <use xlink:href="#DejaVuSans-6c" x="436.740234"/>
      <use xlink:href="#DejaVuSans-74" x="464.523438"/>
      <use xlink:href="#DejaVuSans-65" x="503.732422"/>
      <use xlink:href="#DejaVuSans-72" x="565.255859"/>
      <use xlink:href="#DejaVuSans-69" x="606.369141"/>
      <use xlink:href="#DejaVuSans-6e" x="634.152344"/>
      <use xlink:href="#DejaVuSans-67" x="697.53125"/>
     </g>
    </g>
    <g id="patch_209">
     <path d="M 55.965625 38.476562 
L 75.965625 38.476562 
L 75.965625 31.476562 
L 55.965625 31.476562 
z
" style="fill: #8e4a93"/>
    </g>
    <g id="text_17">
     <!-- After Filtering -->
     <g transform="translate(83.965625 38.476562) scale(0.1 -0.1)">
      <defs>
       <path id="DejaVuSans-41" d="M 2188 4044 
L 1331 1722 
L 3047 1722 
L 2188 4044 
z
M 1831 4666 
L 2547 4666 
L 4325 0 
L 3669 0 
L 3244 1197 
L 1141 1197 
L 716 0 
L 50 0 
L 1831 4666 
z
" transform="scale(0.015625)"/>
      </defs>
      <use xlink:href="#DejaVuSans-41"/>
      <use xlink:href="#DejaVuSans-66" x="64.783203"/>
      <use xlink:href="#DejaVuSans-74" x="98.238281"/>
      <use xlink:href="#DejaVuSans-65" x="137.447266"/>
      <use xlink:href="#DejaVuSans-72" x="198.970703"/>
      <use xlink:href="#DejaVuSans-20" x="240.083984"/>
      <use xlink:href="#DejaVuSans-46" x="271.871094"/>
      <use xlink:href="#DejaVuSans-69" x="322.140625"/>
      <use xlink:href="#DejaVuSans-6c" x="349.923828"/>
      <use xlink:href="#DejaVuSans-74" x="377.707031"/>
      <use xlink:href="#DejaVuSans-65" x="416.916016"/>
      <use xlink:href="#DejaVuSans-72" x="478.439453"/>
      <use xlink:href="#DejaVuSans-69" x="519.552734"/>
      <use xlink:href="#DejaVuSans-6e" x="547.335938"/>
      <use xlink:href="#DejaVuSans-67" x="610.714844"/>
     </g>
    </g>
   </g>
  </g>
 </g>
 <defs>
  <clipPath id="pe252a29235">
   <rect x="46.965625" y="7.2" width="362.7" height="221.76"/>
  </clipPath>
 </defs>
</svg>
