<?xml version="1.0" encoding="utf-8" standalone="no"?>
<!DOCTYPE svg PUBLIC "-//W3C//DTD SVG 1.1//EN"
  "http://www.w3.org/Graphics/SVG/1.1/DTD/svg11.dtd">
<svg xmlns:xlink="http://www.w3.org/1999/xlink" width="416.865625pt" height="214.875469pt" viewBox="0 0 416.865625 214.875469" xmlns="http://www.w3.org/2000/svg" version="1.1">
 <metadata>
  <rdf:RDF xmlns:dc="http://purl.org/dc/elements/1.1/" xmlns:cc="http://creativecommons.org/ns#" xmlns:rdf="http://www.w3.org/1999/02/22-rdf-syntax-ns#">
   <cc:Work>
    <dc:type rdf:resource="http://purl.org/dc/dcmitype/StillImage"/>
    <dc:date>2025-06-16T08:04:49.826824</dc:date>
    <dc:format>image/svg+xml</dc:format>
    <dc:creator>
     <cc:Agent>
      <dc:title>Matplotlib v3.9.4, https://matplotlib.org/</dc:title>
     </cc:Agent>
    </dc:creator>
   </cc:Work>
  </rdf:RDF>
 </metadata>
 <defs>
  <style type="text/css">*{stroke-linejoin: round; stroke-linecap: butt}</style>
 </defs>
 <g id="figure_1">
  <g id="patch_1">
   <path d="M 0 214.875469 
L 416.865625 214.875469 
L 416.865625 0 
L 0 0 
z
" style="fill: #ffffff"/>
  </g>
  <g id="axes_1">
   <g id="patch_2">
    <path d="M 46.965625 177.319219 
L 211.829261 177.319219 
L 211.829261 10.999219 
L 46.965625 10.999219 
z
" style="fill: #ffffff"/>
   </g>
   <g id="patch_3">
    <path d="M 54.459427 177.319219 
L 56.663486 177.319219 
L 56.663486 177.319219 
L 54.459427 177.319219 
z
" clip-path="url(#p68dea47b15)" style="fill: #cca0cf"/>
   </g>
   <g id="patch_4">
    <path d="M 56.663486 177.319219 
L 58.867545 177.319219 
L 58.867545 176.210419 
L 56.663486 176.210419 
z
" clip-path="url(#p68dea47b15)" style="fill: #cca0cf"/>
   </g>
   <g id="patch_5">
    <path d="M 58.867545 177.319219 
L 61.071605 177.319219 
L 61.071605 173.438419 
L 58.867545 173.438419 
z
" clip-path="url(#p68dea47b15)" style="fill: #cca0cf"/>
   </g>
   <g id="patch_6">
    <path d="M 61.071605 177.319219 
L 63.275664 177.319219 
L 63.275664 167.894419 
L 61.071605 167.894419 
z
" clip-path="url(#p68dea47b15)" style="fill: #cca0cf"/>
   </g>
   <g id="patch_7">
    <path d="M 63.275664 177.319219 
L 65.479723 177.319219 
L 65.479723 166.231219 
L 63.275664 166.231219 
z
" clip-path="url(#p68dea47b15)" style="fill: #cca0cf"/>
   </g>
   <g id="patch_8">
    <path d="M 65.479723 177.319219 
L 67.683783 177.319219 
L 67.683783 161.241619 
L 65.479723 161.241619 
z
" clip-path="url(#p68dea47b15)" style="fill: #cca0cf"/>
   </g>
   <g id="patch_9">
    <path d="M 67.683783 177.319219 
L 69.887842 177.319219 
L 69.887842 140.174419 
L 67.683783 140.174419 
z
" clip-path="url(#p68dea47b15)" style="fill: #cca0cf"/>
   </g>
   <g id="patch_10">
    <path d="M 69.887842 177.319219 
L 72.091901 177.319219 
L 72.091901 137.402419 
L 69.887842 137.402419 
z
" clip-path="url(#p68dea47b15)" style="fill: #cca0cf"/>
   </g>
   <g id="patch_11">
    <path d="M 72.091901 177.319219 
L 74.29596 177.319219 
L 74.29596 122.988019 
L 72.091901 122.988019 
z
" clip-path="url(#p68dea47b15)" style="fill: #cca0cf"/>
   </g>
   <g id="patch_12">
    <path d="M 74.29596 177.319219 
L 76.50002 177.319219 
L 76.50002 130.749619 
L 74.29596 130.749619 
z
" clip-path="url(#p68dea47b15)" style="fill: #cca0cf"/>
   </g>
   <g id="patch_13">
    <path d="M 76.50002 177.319219 
L 78.704079 177.319219 
L 78.704079 124.651219 
L 76.50002 124.651219 
z
" clip-path="url(#p68dea47b15)" style="fill: #cca0cf"/>
   </g>
   <g id="patch_14">
    <path d="M 78.704079 177.319219 
L 80.908138 177.319219 
L 80.908138 110.791219 
L 78.704079 110.791219 
z
" clip-path="url(#p68dea47b15)" style="fill: #cca0cf"/>
   </g>
   <g id="patch_15">
    <path d="M 80.908138 177.319219 
L 83.112198 177.319219 
L 83.112198 85.288819 
L 80.908138 85.288819 
z
" clip-path="url(#p68dea47b15)" style="fill: #cca0cf"/>
   </g>
   <g id="patch_16">
    <path d="M 83.112198 177.319219 
L 85.316257 177.319219 
L 85.316257 75.864019 
L 83.112198 75.864019 
z
" clip-path="url(#p68dea47b15)" style="fill: #cca0cf"/>
   </g>
   <g id="patch_17">
    <path d="M 85.316257 177.319219 
L 87.520316 177.319219 
L 87.520316 76.418419 
L 85.316257 76.418419 
z
" clip-path="url(#p68dea47b15)" style="fill: #cca0cf"/>
   </g>
   <g id="patch_18">
    <path d="M 87.520316 177.319219 
L 89.724376 177.319219 
L 89.724376 85.288819 
L 87.520316 85.288819 
z
" clip-path="url(#p68dea47b15)" style="fill: #cca0cf"/>
   </g>
   <g id="patch_19">
    <path d="M 89.724376 177.319219 
L 91.928435 177.319219 
L 91.928435 89.169619 
L 89.724376 89.169619 
z
" clip-path="url(#p68dea47b15)" style="fill: #cca0cf"/>
   </g>
   <g id="patch_20">
    <path d="M 91.928435 177.319219 
L 94.132494 177.319219 
L 94.132494 115.780819 
L 91.928435 115.780819 
z
" clip-path="url(#p68dea47b15)" style="fill: #cca0cf"/>
   </g>
   <g id="patch_21">
    <path d="M 94.132494 177.319219 
L 96.336554 177.319219 
L 96.336554 108.573619 
L 94.132494 108.573619 
z
" clip-path="url(#p68dea47b15)" style="fill: #cca0cf"/>
   </g>
   <g id="patch_22">
    <path d="M 96.336554 177.319219 
L 98.540613 177.319219 
L 98.540613 107.464819 
L 96.336554 107.464819 
z
" clip-path="url(#p68dea47b15)" style="fill: #cca0cf"/>
   </g>
   <g id="patch_23">
    <path d="M 98.540613 177.319219 
L 100.744672 177.319219 
L 100.744672 127.423219 
L 98.540613 127.423219 
z
" clip-path="url(#p68dea47b15)" style="fill: #cca0cf"/>
   </g>
   <g id="patch_24">
    <path d="M 100.744672 177.319219 
L 102.948731 177.319219 
L 102.948731 129.086419 
L 100.744672 129.086419 
z
" clip-path="url(#p68dea47b15)" style="fill: #cca0cf"/>
   </g>
   <g id="patch_25">
    <path d="M 102.948731 177.319219 
L 105.152791 177.319219 
L 105.152791 132.967219 
L 102.948731 132.967219 
z
" clip-path="url(#p68dea47b15)" style="fill: #cca0cf"/>
   </g>
   <g id="patch_26">
    <path d="M 105.152791 177.319219 
L 107.35685 177.319219 
L 107.35685 140.174419 
L 105.152791 140.174419 
z
" clip-path="url(#p68dea47b15)" style="fill: #cca0cf"/>
   </g>
   <g id="patch_27">
    <path d="M 107.35685 177.319219 
L 109.560909 177.319219 
L 109.560909 153.480019 
L 107.35685 153.480019 
z
" clip-path="url(#p68dea47b15)" style="fill: #cca0cf"/>
   </g>
   <g id="patch_28">
    <path d="M 109.560909 177.319219 
L 111.764969 177.319219 
L 111.764969 159.578419 
L 109.560909 159.578419 
z
" clip-path="url(#p68dea47b15)" style="fill: #cca0cf"/>
   </g>
   <g id="patch_29">
    <path d="M 111.764969 177.319219 
L 113.969028 177.319219 
L 113.969028 161.241619 
L 111.764969 161.241619 
z
" clip-path="url(#p68dea47b15)" style="fill: #cca0cf"/>
   </g>
   <g id="patch_30">
    <path d="M 113.969028 177.319219 
L 116.173087 177.319219 
L 116.173087 169.003219 
L 113.969028 169.003219 
z
" clip-path="url(#p68dea47b15)" style="fill: #cca0cf"/>
   </g>
   <g id="patch_31">
    <path d="M 116.173087 177.319219 
L 118.377147 177.319219 
L 118.377147 164.013619 
L 116.173087 164.013619 
z
" clip-path="url(#p68dea47b15)" style="fill: #cca0cf"/>
   </g>
   <g id="patch_32">
    <path d="M 118.377147 177.319219 
L 120.581206 177.319219 
L 120.581206 169.557619 
L 118.377147 169.557619 
z
" clip-path="url(#p68dea47b15)" style="fill: #cca0cf"/>
   </g>
   <g id="patch_33">
    <path d="M 120.581206 177.319219 
L 122.785265 177.319219 
L 122.785265 171.220819 
L 120.581206 171.220819 
z
" clip-path="url(#p68dea47b15)" style="fill: #cca0cf"/>
   </g>
   <g id="patch_34">
    <path d="M 122.785265 177.319219 
L 124.989325 177.319219 
L 124.989325 173.438419 
L 122.785265 173.438419 
z
" clip-path="url(#p68dea47b15)" style="fill: #cca0cf"/>
   </g>
   <g id="patch_35">
    <path d="M 124.989325 177.319219 
L 127.193384 177.319219 
L 127.193384 171.220819 
L 124.989325 171.220819 
z
" clip-path="url(#p68dea47b15)" style="fill: #cca0cf"/>
   </g>
   <g id="patch_36">
    <path d="M 127.193384 177.319219 
L 129.397443 177.319219 
L 129.397443 176.210419 
L 127.193384 176.210419 
z
" clip-path="url(#p68dea47b15)" style="fill: #cca0cf"/>
   </g>
   <g id="patch_37">
    <path d="M 129.397443 177.319219 
L 131.601502 177.319219 
L 131.601502 174.547219 
L 129.397443 174.547219 
z
" clip-path="url(#p68dea47b15)" style="fill: #cca0cf"/>
   </g>
   <g id="patch_38">
    <path d="M 131.601502 177.319219 
L 133.805562 177.319219 
L 133.805562 175.101619 
L 131.601502 175.101619 
z
" clip-path="url(#p68dea47b15)" style="fill: #cca0cf"/>
   </g>
   <g id="patch_39">
    <path d="M 133.805562 177.319219 
L 136.009621 177.319219 
L 136.009621 173.992819 
L 133.805562 173.992819 
z
" clip-path="url(#p68dea47b15)" style="fill: #cca0cf"/>
   </g>
   <g id="patch_40">
    <path d="M 136.009621 177.319219 
L 138.21368 177.319219 
L 138.21368 175.656019 
L 136.009621 175.656019 
z
" clip-path="url(#p68dea47b15)" style="fill: #cca0cf"/>
   </g>
   <g id="patch_41">
    <path d="M 138.21368 177.319219 
L 140.41774 177.319219 
L 140.41774 173.438419 
L 138.21368 173.438419 
z
" clip-path="url(#p68dea47b15)" style="fill: #cca0cf"/>
   </g>
   <g id="patch_42">
    <path d="M 140.41774 177.319219 
L 142.621799 177.319219 
L 142.621799 175.656019 
L 140.41774 175.656019 
z
" clip-path="url(#p68dea47b15)" style="fill: #cca0cf"/>
   </g>
   <g id="patch_43">
    <path d="M 142.621799 177.319219 
L 144.825858 177.319219 
L 144.825858 173.438419 
L 142.621799 173.438419 
z
" clip-path="url(#p68dea47b15)" style="fill: #cca0cf"/>
   </g>
   <g id="patch_44">
    <path d="M 144.825858 177.319219 
L 147.029918 177.319219 
L 147.029918 173.992819 
L 144.825858 173.992819 
z
" clip-path="url(#p68dea47b15)" style="fill: #cca0cf"/>
   </g>
   <g id="patch_45">
    <path d="M 147.029918 177.319219 
L 149.233977 177.319219 
L 149.233977 174.547219 
L 147.029918 174.547219 
z
" clip-path="url(#p68dea47b15)" style="fill: #cca0cf"/>
   </g>
   <g id="patch_46">
    <path d="M 149.233977 177.319219 
L 151.438036 177.319219 
L 151.438036 175.656019 
L 149.233977 175.656019 
z
" clip-path="url(#p68dea47b15)" style="fill: #cca0cf"/>
   </g>
   <g id="patch_47">
    <path d="M 151.438036 177.319219 
L 153.642096 177.319219 
L 153.642096 176.764819 
L 151.438036 176.764819 
z
" clip-path="url(#p68dea47b15)" style="fill: #cca0cf"/>
   </g>
   <g id="patch_48">
    <path d="M 153.642096 177.319219 
L 155.846155 177.319219 
L 155.846155 176.764819 
L 153.642096 176.764819 
z
" clip-path="url(#p68dea47b15)" style="fill: #cca0cf"/>
   </g>
   <g id="patch_49">
    <path d="M 155.846155 177.319219 
L 158.050214 177.319219 
L 158.050214 176.764819 
L 155.846155 176.764819 
z
" clip-path="url(#p68dea47b15)" style="fill: #cca0cf"/>
   </g>
   <g id="patch_50">
    <path d="M 158.050214 177.319219 
L 160.254274 177.319219 
L 160.254274 176.764819 
L 158.050214 176.764819 
z
" clip-path="url(#p68dea47b15)" style="fill: #cca0cf"/>
   </g>
   <g id="patch_51">
    <path d="M 160.254274 177.319219 
L 162.458333 177.319219 
L 162.458333 177.319219 
L 160.254274 177.319219 
z
" clip-path="url(#p68dea47b15)" style="fill: #cca0cf"/>
   </g>
   <g id="patch_52">
    <path d="M 162.458333 177.319219 
L 164.662392 177.319219 
L 164.662392 176.210419 
L 162.458333 176.210419 
z
" clip-path="url(#p68dea47b15)" style="fill: #cca0cf"/>
   </g>
   <g id="patch_53">
    <path d="M 164.662392 177.319219 
L 166.866451 177.319219 
L 166.866451 177.319219 
L 164.662392 177.319219 
z
" clip-path="url(#p68dea47b15)" style="fill: #cca0cf"/>
   </g>
   <g id="patch_54">
    <path d="M 166.866451 177.319219 
L 169.070511 177.319219 
L 169.070511 177.319219 
L 166.866451 177.319219 
z
" clip-path="url(#p68dea47b15)" style="fill: #cca0cf"/>
   </g>
   <g id="patch_55">
    <path d="M 169.070511 177.319219 
L 171.27457 177.319219 
L 171.27457 176.764819 
L 169.070511 176.764819 
z
" clip-path="url(#p68dea47b15)" style="fill: #cca0cf"/>
   </g>
   <g id="patch_56">
    <path d="M 171.27457 177.319219 
L 173.478629 177.319219 
L 173.478629 177.319219 
L 171.27457 177.319219 
z
" clip-path="url(#p68dea47b15)" style="fill: #cca0cf"/>
   </g>
   <g id="patch_57">
    <path d="M 173.478629 177.319219 
L 175.682689 177.319219 
L 175.682689 177.319219 
L 173.478629 177.319219 
z
" clip-path="url(#p68dea47b15)" style="fill: #cca0cf"/>
   </g>
   <g id="patch_58">
    <path d="M 175.682689 177.319219 
L 177.886748 177.319219 
L 177.886748 177.319219 
L 175.682689 177.319219 
z
" clip-path="url(#p68dea47b15)" style="fill: #cca0cf"/>
   </g>
   <g id="patch_59">
    <path d="M 177.886748 177.319219 
L 180.090807 177.319219 
L 180.090807 177.319219 
L 177.886748 177.319219 
z
" clip-path="url(#p68dea47b15)" style="fill: #cca0cf"/>
   </g>
   <g id="patch_60">
    <path d="M 180.090807 177.319219 
L 182.294867 177.319219 
L 182.294867 177.319219 
L 180.090807 177.319219 
z
" clip-path="url(#p68dea47b15)" style="fill: #cca0cf"/>
   </g>
   <g id="patch_61">
    <path d="M 182.294867 177.319219 
L 184.498926 177.319219 
L 184.498926 177.319219 
L 182.294867 177.319219 
z
" clip-path="url(#p68dea47b15)" style="fill: #cca0cf"/>
   </g>
   <g id="patch_62">
    <path d="M 184.498926 177.319219 
L 186.702985 177.319219 
L 186.702985 177.319219 
L 184.498926 177.319219 
z
" clip-path="url(#p68dea47b15)" style="fill: #cca0cf"/>
   </g>
   <g id="patch_63">
    <path d="M 186.702985 177.319219 
L 188.907045 177.319219 
L 188.907045 175.656019 
L 186.702985 175.656019 
z
" clip-path="url(#p68dea47b15)" style="fill: #cca0cf"/>
   </g>
   <g id="patch_64">
    <path d="M 188.907045 177.319219 
L 191.111104 177.319219 
L 191.111104 176.764819 
L 188.907045 176.764819 
z
" clip-path="url(#p68dea47b15)" style="fill: #cca0cf"/>
   </g>
   <g id="patch_65">
    <path d="M 191.111104 177.319219 
L 193.315163 177.319219 
L 193.315163 177.319219 
L 191.111104 177.319219 
z
" clip-path="url(#p68dea47b15)" style="fill: #cca0cf"/>
   </g>
   <g id="patch_66">
    <path d="M 193.315163 177.319219 
L 195.519222 177.319219 
L 195.519222 176.764819 
L 193.315163 176.764819 
z
" clip-path="url(#p68dea47b15)" style="fill: #cca0cf"/>
   </g>
   <g id="patch_67">
    <path d="M 195.519222 177.319219 
L 197.723282 177.319219 
L 197.723282 177.319219 
L 195.519222 177.319219 
z
" clip-path="url(#p68dea47b15)" style="fill: #cca0cf"/>
   </g>
   <g id="patch_68">
    <path d="M 197.723282 177.319219 
L 199.927341 177.319219 
L 199.927341 177.319219 
L 197.723282 177.319219 
z
" clip-path="url(#p68dea47b15)" style="fill: #cca0cf"/>
   </g>
   <g id="patch_69">
    <path d="M 199.927341 177.319219 
L 202.1314 177.319219 
L 202.1314 176.764819 
L 199.927341 176.764819 
z
" clip-path="url(#p68dea47b15)" style="fill: #cca0cf"/>
   </g>
   <g id="patch_70">
    <path d="M 202.1314 177.319219 
L 204.33546 177.319219 
L 204.33546 176.764819 
L 202.1314 176.764819 
z
" clip-path="url(#p68dea47b15)" style="fill: #cca0cf"/>
   </g>
   <g id="patch_71">
    <path d="M 54.459427 177.319219 
L 56.663486 177.319219 
L 56.663486 177.319219 
L 54.459427 177.319219 
z
" clip-path="url(#p68dea47b15)" style="fill: #8e4a93"/>
   </g>
   <g id="patch_72">
    <path d="M 56.663486 177.319219 
L 58.867545 177.319219 
L 58.867545 177.319219 
L 56.663486 177.319219 
z
" clip-path="url(#p68dea47b15)" style="fill: #8e4a93"/>
   </g>
   <g id="patch_73">
    <path d="M 58.867545 177.319219 
L 61.071605 177.319219 
L 61.071605 177.319219 
L 58.867545 177.319219 
z
" clip-path="url(#p68dea47b15)" style="fill: #8e4a93"/>
   </g>
   <g id="patch_74">
    <path d="M 61.071605 177.319219 
L 63.275664 177.319219 
L 63.275664 177.319219 
L 61.071605 177.319219 
z
" clip-path="url(#p68dea47b15)" style="fill: #8e4a93"/>
   </g>
   <g id="patch_75">
    <path d="M 63.275664 177.319219 
L 65.479723 177.319219 
L 65.479723 177.319219 
L 63.275664 177.319219 
z
" clip-path="url(#p68dea47b15)" style="fill: #8e4a93"/>
   </g>
   <g id="patch_76">
    <path d="M 65.479723 177.319219 
L 67.683783 177.319219 
L 67.683783 164.568019 
L 65.479723 164.568019 
z
" clip-path="url(#p68dea47b15)" style="fill: #8e4a93"/>
   </g>
   <g id="patch_77">
    <path d="M 67.683783 177.319219 
L 69.887842 177.319219 
L 69.887842 144.609619 
L 67.683783 144.609619 
z
" clip-path="url(#p68dea47b15)" style="fill: #8e4a93"/>
   </g>
   <g id="patch_78">
    <path d="M 69.887842 177.319219 
L 72.091901 177.319219 
L 72.091901 141.283219 
L 69.887842 141.283219 
z
" clip-path="url(#p68dea47b15)" style="fill: #8e4a93"/>
   </g>
   <g id="patch_79">
    <path d="M 72.091901 177.319219 
L 74.29596 177.319219 
L 74.29596 127.423219 
L 72.091901 127.423219 
z
" clip-path="url(#p68dea47b15)" style="fill: #8e4a93"/>
   </g>
   <g id="patch_80">
    <path d="M 74.29596 177.319219 
L 76.50002 177.319219 
L 76.50002 135.184819 
L 74.29596 135.184819 
z
" clip-path="url(#p68dea47b15)" style="fill: #8e4a93"/>
   </g>
   <g id="patch_81">
    <path d="M 76.50002 177.319219 
L 78.704079 177.319219 
L 78.704079 126.314419 
L 76.50002 126.314419 
z
" clip-path="url(#p68dea47b15)" style="fill: #8e4a93"/>
   </g>
   <g id="patch_82">
    <path d="M 78.704079 177.319219 
L 80.908138 177.319219 
L 80.908138 111.900019 
L 78.704079 111.900019 
z
" clip-path="url(#p68dea47b15)" style="fill: #8e4a93"/>
   </g>
   <g id="patch_83">
    <path d="M 80.908138 177.319219 
L 83.112198 177.319219 
L 83.112198 86.397619 
L 80.908138 86.397619 
z
" clip-path="url(#p68dea47b15)" style="fill: #8e4a93"/>
   </g>
   <g id="patch_84">
    <path d="M 83.112198 177.319219 
L 85.316257 177.319219 
L 85.316257 75.864019 
L 83.112198 75.864019 
z
" clip-path="url(#p68dea47b15)" style="fill: #8e4a93"/>
   </g>
   <g id="patch_85">
    <path d="M 85.316257 177.319219 
L 87.520316 177.319219 
L 87.520316 78.081619 
L 85.316257 78.081619 
z
" clip-path="url(#p68dea47b15)" style="fill: #8e4a93"/>
   </g>
   <g id="patch_86">
    <path d="M 87.520316 177.319219 
L 89.724376 177.319219 
L 89.724376 86.397619 
L 87.520316 86.397619 
z
" clip-path="url(#p68dea47b15)" style="fill: #8e4a93"/>
   </g>
   <g id="patch_87">
    <path d="M 89.724376 177.319219 
L 91.928435 177.319219 
L 91.928435 89.169619 
L 89.724376 89.169619 
z
" clip-path="url(#p68dea47b15)" style="fill: #8e4a93"/>
   </g>
   <g id="patch_88">
    <path d="M 91.928435 177.319219 
L 94.132494 177.319219 
L 94.132494 115.780819 
L 91.928435 115.780819 
z
" clip-path="url(#p68dea47b15)" style="fill: #8e4a93"/>
   </g>
   <g id="patch_89">
    <path d="M 94.132494 177.319219 
L 96.336554 177.319219 
L 96.336554 110.791219 
L 94.132494 110.791219 
z
" clip-path="url(#p68dea47b15)" style="fill: #8e4a93"/>
   </g>
   <g id="patch_90">
    <path d="M 96.336554 177.319219 
L 98.540613 177.319219 
L 98.540613 108.573619 
L 96.336554 108.573619 
z
" clip-path="url(#p68dea47b15)" style="fill: #8e4a93"/>
   </g>
   <g id="patch_91">
    <path d="M 98.540613 177.319219 
L 100.744672 177.319219 
L 100.744672 127.423219 
L 98.540613 127.423219 
z
" clip-path="url(#p68dea47b15)" style="fill: #8e4a93"/>
   </g>
   <g id="patch_92">
    <path d="M 100.744672 177.319219 
L 102.948731 177.319219 
L 102.948731 130.749619 
L 100.744672 130.749619 
z
" clip-path="url(#p68dea47b15)" style="fill: #8e4a93"/>
   </g>
   <g id="patch_93">
    <path d="M 102.948731 177.319219 
L 105.152791 177.319219 
L 105.152791 132.967219 
L 102.948731 132.967219 
z
" clip-path="url(#p68dea47b15)" style="fill: #8e4a93"/>
   </g>
   <g id="patch_94">
    <path d="M 105.152791 177.319219 
L 107.35685 177.319219 
L 107.35685 140.174419 
L 105.152791 140.174419 
z
" clip-path="url(#p68dea47b15)" style="fill: #8e4a93"/>
   </g>
   <g id="patch_95">
    <path d="M 107.35685 177.319219 
L 109.560909 177.319219 
L 109.560909 154.034419 
L 107.35685 154.034419 
z
" clip-path="url(#p68dea47b15)" style="fill: #8e4a93"/>
   </g>
   <g id="patch_96">
    <path d="M 109.560909 177.319219 
L 111.764969 177.319219 
L 111.764969 159.578419 
L 109.560909 159.578419 
z
" clip-path="url(#p68dea47b15)" style="fill: #8e4a93"/>
   </g>
   <g id="patch_97">
    <path d="M 111.764969 177.319219 
L 113.969028 177.319219 
L 113.969028 161.241619 
L 111.764969 161.241619 
z
" clip-path="url(#p68dea47b15)" style="fill: #8e4a93"/>
   </g>
   <g id="patch_98">
    <path d="M 113.969028 177.319219 
L 116.173087 177.319219 
L 116.173087 170.112019 
L 113.969028 170.112019 
z
" clip-path="url(#p68dea47b15)" style="fill: #8e4a93"/>
   </g>
   <g id="patch_99">
    <path d="M 116.173087 177.319219 
L 118.377147 177.319219 
L 118.377147 164.568019 
L 116.173087 164.568019 
z
" clip-path="url(#p68dea47b15)" style="fill: #8e4a93"/>
   </g>
   <g id="patch_100">
    <path d="M 118.377147 177.319219 
L 120.581206 177.319219 
L 120.581206 169.557619 
L 118.377147 169.557619 
z
" clip-path="url(#p68dea47b15)" style="fill: #8e4a93"/>
   </g>
   <g id="patch_101">
    <path d="M 120.581206 177.319219 
L 122.785265 177.319219 
L 122.785265 171.220819 
L 120.581206 171.220819 
z
" clip-path="url(#p68dea47b15)" style="fill: #8e4a93"/>
   </g>
   <g id="patch_102">
    <path d="M 122.785265 177.319219 
L 124.989325 177.319219 
L 124.989325 173.438419 
L 122.785265 173.438419 
z
" clip-path="url(#p68dea47b15)" style="fill: #8e4a93"/>
   </g>
   <g id="patch_103">
    <path d="M 124.989325 177.319219 
L 127.193384 177.319219 
L 127.193384 171.220819 
L 124.989325 171.220819 
z
" clip-path="url(#p68dea47b15)" style="fill: #8e4a93"/>
   </g>
   <g id="patch_104">
    <path d="M 127.193384 177.319219 
L 129.397443 177.319219 
L 129.397443 176.210419 
L 127.193384 176.210419 
z
" clip-path="url(#p68dea47b15)" style="fill: #8e4a93"/>
   </g>
   <g id="patch_105">
    <path d="M 129.397443 177.319219 
L 131.601502 177.319219 
L 131.601502 175.101619 
L 129.397443 175.101619 
z
" clip-path="url(#p68dea47b15)" style="fill: #8e4a93"/>
   </g>
   <g id="patch_106">
    <path d="M 131.601502 177.319219 
L 133.805562 177.319219 
L 133.805562 175.101619 
L 131.601502 175.101619 
z
" clip-path="url(#p68dea47b15)" style="fill: #8e4a93"/>
   </g>
   <g id="patch_107">
    <path d="M 133.805562 177.319219 
L 136.009621 177.319219 
L 136.009621 173.992819 
L 133.805562 173.992819 
z
" clip-path="url(#p68dea47b15)" style="fill: #8e4a93"/>
   </g>
   <g id="patch_108">
    <path d="M 136.009621 177.319219 
L 138.21368 177.319219 
L 138.21368 176.210419 
L 136.009621 176.210419 
z
" clip-path="url(#p68dea47b15)" style="fill: #8e4a93"/>
   </g>
   <g id="patch_109">
    <path d="M 138.21368 177.319219 
L 140.41774 177.319219 
L 140.41774 177.319219 
L 138.21368 177.319219 
z
" clip-path="url(#p68dea47b15)" style="fill: #8e4a93"/>
   </g>
   <g id="patch_110">
    <path d="M 140.41774 177.319219 
L 142.621799 177.319219 
L 142.621799 177.319219 
L 140.41774 177.319219 
z
" clip-path="url(#p68dea47b15)" style="fill: #8e4a93"/>
   </g>
   <g id="patch_111">
    <path d="M 142.621799 177.319219 
L 144.825858 177.319219 
L 144.825858 177.319219 
L 142.621799 177.319219 
z
" clip-path="url(#p68dea47b15)" style="fill: #8e4a93"/>
   </g>
   <g id="patch_112">
    <path d="M 144.825858 177.319219 
L 147.029918 177.319219 
L 147.029918 177.319219 
L 144.825858 177.319219 
z
" clip-path="url(#p68dea47b15)" style="fill: #8e4a93"/>
   </g>
   <g id="patch_113">
    <path d="M 147.029918 177.319219 
L 149.233977 177.319219 
L 149.233977 177.319219 
L 147.029918 177.319219 
z
" clip-path="url(#p68dea47b15)" style="fill: #8e4a93"/>
   </g>
   <g id="patch_114">
    <path d="M 149.233977 177.319219 
L 151.438036 177.319219 
L 151.438036 177.319219 
L 149.233977 177.319219 
z
" clip-path="url(#p68dea47b15)" style="fill: #8e4a93"/>
   </g>
   <g id="patch_115">
    <path d="M 151.438036 177.319219 
L 153.642096 177.319219 
L 153.642096 177.319219 
L 151.438036 177.319219 
z
" clip-path="url(#p68dea47b15)" style="fill: #8e4a93"/>
   </g>
   <g id="patch_116">
    <path d="M 153.642096 177.319219 
L 155.846155 177.319219 
L 155.846155 177.319219 
L 153.642096 177.319219 
z
" clip-path="url(#p68dea47b15)" style="fill: #8e4a93"/>
   </g>
   <g id="patch_117">
    <path d="M 155.846155 177.319219 
L 158.050214 177.319219 
L 158.050214 177.319219 
L 155.846155 177.319219 
z
" clip-path="url(#p68dea47b15)" style="fill: #8e4a93"/>
   </g>
   <g id="patch_118">
    <path d="M 158.050214 177.319219 
L 160.254274 177.319219 
L 160.254274 177.319219 
L 158.050214 177.319219 
z
" clip-path="url(#p68dea47b15)" style="fill: #8e4a93"/>
   </g>
   <g id="patch_119">
    <path d="M 160.254274 177.319219 
L 162.458333 177.319219 
L 162.458333 177.319219 
L 160.254274 177.319219 
z
" clip-path="url(#p68dea47b15)" style="fill: #8e4a93"/>
   </g>
   <g id="patch_120">
    <path d="M 162.458333 177.319219 
L 164.662392 177.319219 
L 164.662392 177.319219 
L 162.458333 177.319219 
z
" clip-path="url(#p68dea47b15)" style="fill: #8e4a93"/>
   </g>
   <g id="patch_121">
    <path d="M 164.662392 177.319219 
L 166.866451 177.319219 
L 166.866451 177.319219 
L 164.662392 177.319219 
z
" clip-path="url(#p68dea47b15)" style="fill: #8e4a93"/>
   </g>
   <g id="patch_122">
    <path d="M 166.866451 177.319219 
L 169.070511 177.319219 
L 169.070511 177.319219 
L 166.866451 177.319219 
z
" clip-path="url(#p68dea47b15)" style="fill: #8e4a93"/>
   </g>
   <g id="patch_123">
    <path d="M 169.070511 177.319219 
L 171.27457 177.319219 
L 171.27457 177.319219 
L 169.070511 177.319219 
z
" clip-path="url(#p68dea47b15)" style="fill: #8e4a93"/>
   </g>
   <g id="patch_124">
    <path d="M 171.27457 177.319219 
L 173.478629 177.319219 
L 173.478629 177.319219 
L 171.27457 177.319219 
z
" clip-path="url(#p68dea47b15)" style="fill: #8e4a93"/>
   </g>
   <g id="patch_125">
    <path d="M 173.478629 177.319219 
L 175.682689 177.319219 
L 175.682689 177.319219 
L 173.478629 177.319219 
z
" clip-path="url(#p68dea47b15)" style="fill: #8e4a93"/>
   </g>
   <g id="patch_126">
    <path d="M 175.682689 177.319219 
L 177.886748 177.319219 
L 177.886748 177.319219 
L 175.682689 177.319219 
z
" clip-path="url(#p68dea47b15)" style="fill: #8e4a93"/>
   </g>
   <g id="patch_127">
    <path d="M 177.886748 177.319219 
L 180.090807 177.319219 
L 180.090807 177.319219 
L 177.886748 177.319219 
z
" clip-path="url(#p68dea47b15)" style="fill: #8e4a93"/>
   </g>
   <g id="patch_128">
    <path d="M 180.090807 177.319219 
L 182.294867 177.319219 
L 182.294867 177.319219 
L 180.090807 177.319219 
z
" clip-path="url(#p68dea47b15)" style="fill: #8e4a93"/>
   </g>
   <g id="patch_129">
    <path d="M 182.294867 177.319219 
L 184.498926 177.319219 
L 184.498926 177.319219 
L 182.294867 177.319219 
z
" clip-path="url(#p68dea47b15)" style="fill: #8e4a93"/>
   </g>
   <g id="patch_130">
    <path d="M 184.498926 177.319219 
L 186.702985 177.319219 
L 186.702985 177.319219 
L 184.498926 177.319219 
z
" clip-path="url(#p68dea47b15)" style="fill: #8e4a93"/>
   </g>
   <g id="patch_131">
    <path d="M 186.702985 177.319219 
L 188.907045 177.319219 
L 188.907045 177.319219 
L 186.702985 177.319219 
z
" clip-path="url(#p68dea47b15)" style="fill: #8e4a93"/>
   </g>
   <g id="patch_132">
    <path d="M 188.907045 177.319219 
L 191.111104 177.319219 
L 191.111104 177.319219 
L 188.907045 177.319219 
z
" clip-path="url(#p68dea47b15)" style="fill: #8e4a93"/>
   </g>
   <g id="patch_133">
    <path d="M 191.111104 177.319219 
L 193.315163 177.319219 
L 193.315163 177.319219 
L 191.111104 177.319219 
z
" clip-path="url(#p68dea47b15)" style="fill: #8e4a93"/>
   </g>
   <g id="patch_134">
    <path d="M 193.315163 177.319219 
L 195.519222 177.319219 
L 195.519222 177.319219 
L 193.315163 177.319219 
z
" clip-path="url(#p68dea47b15)" style="fill: #8e4a93"/>
   </g>
   <g id="patch_135">
    <path d="M 195.519222 177.319219 
L 197.723282 177.319219 
L 197.723282 177.319219 
L 195.519222 177.319219 
z
" clip-path="url(#p68dea47b15)" style="fill: #8e4a93"/>
   </g>
   <g id="patch_136">
    <path d="M 197.723282 177.319219 
L 199.927341 177.319219 
L 199.927341 177.319219 
L 197.723282 177.319219 
z
" clip-path="url(#p68dea47b15)" style="fill: #8e4a93"/>
   </g>
   <g id="patch_137">
    <path d="M 199.927341 177.319219 
L 202.1314 177.319219 
L 202.1314 177.319219 
L 199.927341 177.319219 
z
" clip-path="url(#p68dea47b15)" style="fill: #8e4a93"/>
   </g>
   <g id="patch_138">
    <path d="M 202.1314 177.319219 
L 204.33546 177.319219 
L 204.33546 177.319219 
L 202.1314 177.319219 
z
" clip-path="url(#p68dea47b15)" style="fill: #8e4a93"/>
   </g>
   <g id="matplotlib.axis_1">
    <g id="xtick_1">
     <g id="line2d_1">
      <defs>
       <path id="mf5dc0dac0f" d="M 0 0 
L 0 3.5 
" style="stroke: #000000; stroke-width: 0.8"/>
      </defs>
      <g>
       <use xlink:href="#mf5dc0dac0f" x="54.459427" y="177.319219" style="stroke: #000000; stroke-width: 0.8"/>
      </g>
     </g>
     <g id="text_1">
      <!-- 0 -->
      <g transform="translate(51.278177 191.917656) scale(0.1 -0.1)">
       <defs>
        <path id="DejaVuSans-30" d="M 2034 4250 
Q 1547 4250 1301 3770 
Q 1056 3291 1056 2328 
Q 1056 1369 1301 889 
Q 1547 409 2034 409 
Q 2525 409 2770 889 
Q 3016 1369 3016 2328 
Q 3016 3291 2770 3770 
Q 2525 4250 2034 4250 
z
M 2034 4750 
Q 2819 4750 3233 4129 
Q 3647 3509 3647 2328 
Q 3647 1150 3233 529 
Q 2819 -91 2034 -91 
Q 1250 -91 836 529 
Q 422 1150 422 2328 
Q 422 3509 836 4129 
Q 1250 4750 2034 4750 
z
" transform="scale(0.015625)"/>
       </defs>
       <use xlink:href="#DejaVuSans-30"/>
      </g>
     </g>
    </g>
    <g id="xtick_2">
     <g id="line2d_2">
      <g>
       <use xlink:href="#mf5dc0dac0f" x="109.560909" y="177.319219" style="stroke: #000000; stroke-width: 0.8"/>
      </g>
     </g>
     <g id="text_2">
      <!-- 500 -->
      <g transform="translate(100.017159 191.917656) scale(0.1 -0.1)">
       <defs>
        <path id="DejaVuSans-35" d="M 691 4666 
L 3169 4666 
L 3169 4134 
L 1269 4134 
L 1269 2991 
Q 1406 3038 1543 3061 
Q 1681 3084 1819 3084 
Q 2600 3084 3056 2656 
Q 3513 2228 3513 1497 
Q 3513 744 3044 326 
Q 2575 -91 1722 -91 
Q 1428 -91 1123 -41 
Q 819 9 494 109 
L 494 744 
Q 775 591 1075 516 
Q 1375 441 1709 441 
Q 2250 441 2565 725 
Q 2881 1009 2881 1497 
Q 2881 1984 2565 2268 
Q 2250 2553 1709 2553 
Q 1456 2553 1204 2497 
Q 953 2441 691 2322 
L 691 4666 
z
" transform="scale(0.015625)"/>
       </defs>
       <use xlink:href="#DejaVuSans-35"/>
       <use xlink:href="#DejaVuSans-30" x="63.623047"/>
       <use xlink:href="#DejaVuSans-30" x="127.246094"/>
      </g>
     </g>
    </g>
    <g id="xtick_3">
     <g id="line2d_3">
      <g>
       <use xlink:href="#mf5dc0dac0f" x="164.662392" y="177.319219" style="stroke: #000000; stroke-width: 0.8"/>
      </g>
     </g>
     <g id="text_3">
      <!-- 1000 -->
      <g transform="translate(151.937392 191.917656) scale(0.1 -0.1)">
       <defs>
        <path id="DejaVuSans-31" d="M 794 531 
L 1825 531 
L 1825 4091 
L 703 3866 
L 703 4441 
L 1819 4666 
L 2450 4666 
L 2450 531 
L 3481 531 
L 3481 0 
L 794 0 
L 794 531 
z
" transform="scale(0.015625)"/>
       </defs>
       <use xlink:href="#DejaVuSans-31"/>
       <use xlink:href="#DejaVuSans-30" x="63.623047"/>
       <use xlink:href="#DejaVuSans-30" x="127.246094"/>
       <use xlink:href="#DejaVuSans-30" x="190.869141"/>
      </g>
     </g>
    </g>
    <g id="text_4">
     <!-- Parent Mol. Weight (Da) -->
     <g transform="translate(70.041974 205.595781) scale(0.1 -0.1)">
      <defs>
       <path id="DejaVuSans-50" d="M 1259 4147 
L 1259 2394 
L 2053 2394 
Q 2494 2394 2734 2622 
Q 2975 2850 2975 3272 
Q 2975 3691 2734 3919 
Q 2494 4147 2053 4147 
L 1259 4147 
z
M 628 4666 
L 2053 4666 
Q 2838 4666 3239 4311 
Q 3641 3956 3641 3272 
Q 3641 2581 3239 2228 
Q 2838 1875 2053 1875 
L 1259 1875 
L 1259 0 
L 628 0 
L 628 4666 
z
" transform="scale(0.015625)"/>
       <path id="DejaVuSans-61" d="M 2194 1759 
Q 1497 1759 1228 1600 
Q 959 1441 959 1056 
Q 959 750 1161 570 
Q 1363 391 1709 391 
Q 2188 391 2477 730 
Q 2766 1069 2766 1631 
L 2766 1759 
L 2194 1759 
z
M 3341 1997 
L 3341 0 
L 2766 0 
L 2766 531 
Q 2569 213 2275 61 
Q 1981 -91 1556 -91 
Q 1019 -91 701 211 
Q 384 513 384 1019 
Q 384 1609 779 1909 
Q 1175 2209 1959 2209 
L 2766 2209 
L 2766 2266 
Q 2766 2663 2505 2880 
Q 2244 3097 1772 3097 
Q 1472 3097 1187 3025 
Q 903 2953 641 2809 
L 641 3341 
Q 956 3463 1253 3523 
Q 1550 3584 1831 3584 
Q 2591 3584 2966 3190 
Q 3341 2797 3341 1997 
z
" transform="scale(0.015625)"/>
       <path id="DejaVuSans-72" d="M 2631 2963 
Q 2534 3019 2420 3045 
Q 2306 3072 2169 3072 
Q 1681 3072 1420 2755 
Q 1159 2438 1159 1844 
L 1159 0 
L 581 0 
L 581 3500 
L 1159 3500 
L 1159 2956 
Q 1341 3275 1631 3429 
Q 1922 3584 2338 3584 
Q 2397 3584 2469 3576 
Q 2541 3569 2628 3553 
L 2631 2963 
z
" transform="scale(0.015625)"/>
       <path id="DejaVuSans-65" d="M 3597 1894 
L 3597 1613 
L 953 1613 
Q 991 1019 1311 708 
Q 1631 397 2203 397 
Q 2534 397 2845 478 
Q 3156 559 3463 722 
L 3463 178 
Q 3153 47 2828 -22 
Q 2503 -91 2169 -91 
Q 1331 -91 842 396 
Q 353 884 353 1716 
Q 353 2575 817 3079 
Q 1281 3584 2069 3584 
Q 2775 3584 3186 3129 
Q 3597 2675 3597 1894 
z
M 3022 2063 
Q 3016 2534 2758 2815 
Q 2500 3097 2075 3097 
Q 1594 3097 1305 2825 
Q 1016 2553 972 2059 
L 3022 2063 
z
" transform="scale(0.015625)"/>
       <path id="DejaVuSans-6e" d="M 3513 2113 
L 3513 0 
L 2938 0 
L 2938 2094 
Q 2938 2591 2744 2837 
Q 2550 3084 2163 3084 
Q 1697 3084 1428 2787 
Q 1159 2491 1159 1978 
L 1159 0 
L 581 0 
L 581 3500 
L 1159 3500 
L 1159 2956 
Q 1366 3272 1645 3428 
Q 1925 3584 2291 3584 
Q 2894 3584 3203 3211 
Q 3513 2838 3513 2113 
z
" transform="scale(0.015625)"/>
       <path id="DejaVuSans-74" d="M 1172 4494 
L 1172 3500 
L 2356 3500 
L 2356 3053 
L 1172 3053 
L 1172 1153 
Q 1172 725 1289 603 
Q 1406 481 1766 481 
L 2356 481 
L 2356 0 
L 1766 0 
Q 1100 0 847 248 
Q 594 497 594 1153 
L 594 3053 
L 172 3053 
L 172 3500 
L 594 3500 
L 594 4494 
L 1172 4494 
z
" transform="scale(0.015625)"/>
       <path id="DejaVuSans-20" transform="scale(0.015625)"/>
       <path id="DejaVuSans-4d" d="M 628 4666 
L 1569 4666 
L 2759 1491 
L 3956 4666 
L 4897 4666 
L 4897 0 
L 4281 0 
L 4281 4097 
L 3078 897 
L 2444 897 
L 1241 4097 
L 1241 0 
L 628 0 
L 628 4666 
z
" transform="scale(0.015625)"/>
       <path id="DejaVuSans-6f" d="M 1959 3097 
Q 1497 3097 1228 2736 
Q 959 2375 959 1747 
Q 959 1119 1226 758 
Q 1494 397 1959 397 
Q 2419 397 2687 759 
Q 2956 1122 2956 1747 
Q 2956 2369 2687 2733 
Q 2419 3097 1959 3097 
z
M 1959 3584 
Q 2709 3584 3137 3096 
Q 3566 2609 3566 1747 
Q 3566 888 3137 398 
Q 2709 -91 1959 -91 
Q 1206 -91 779 398 
Q 353 888 353 1747 
Q 353 2609 779 3096 
Q 1206 3584 1959 3584 
z
" transform="scale(0.015625)"/>
       <path id="DejaVuSans-6c" d="M 603 4863 
L 1178 4863 
L 1178 0 
L 603 0 
L 603 4863 
z
" transform="scale(0.015625)"/>
       <path id="DejaVuSans-2e" d="M 684 794 
L 1344 794 
L 1344 0 
L 684 0 
L 684 794 
z
" transform="scale(0.015625)"/>
       <path id="DejaVuSans-57" d="M 213 4666 
L 850 4666 
L 1831 722 
L 2809 4666 
L 3519 4666 
L 4500 722 
L 5478 4666 
L 6119 4666 
L 4947 0 
L 4153 0 
L 3169 4050 
L 2175 0 
L 1381 0 
L 213 4666 
z
" transform="scale(0.015625)"/>
       <path id="DejaVuSans-69" d="M 603 3500 
L 1178 3500 
L 1178 0 
L 603 0 
L 603 3500 
z
M 603 4863 
L 1178 4863 
L 1178 4134 
L 603 4134 
L 603 4863 
z
" transform="scale(0.015625)"/>
       <path id="DejaVuSans-67" d="M 2906 1791 
Q 2906 2416 2648 2759 
Q 2391 3103 1925 3103 
Q 1463 3103 1205 2759 
Q 947 2416 947 1791 
Q 947 1169 1205 825 
Q 1463 481 1925 481 
Q 2391 481 2648 825 
Q 2906 1169 2906 1791 
z
M 3481 434 
Q 3481 -459 3084 -895 
Q 2688 -1331 1869 -1331 
Q 1566 -1331 1297 -1286 
Q 1028 -1241 775 -1147 
L 775 -588 
Q 1028 -725 1275 -790 
Q 1522 -856 1778 -856 
Q 2344 -856 2625 -561 
Q 2906 -266 2906 331 
L 2906 616 
Q 2728 306 2450 153 
Q 2172 0 1784 0 
Q 1141 0 747 490 
Q 353 981 353 1791 
Q 353 2603 747 3093 
Q 1141 3584 1784 3584 
Q 2172 3584 2450 3431 
Q 2728 3278 2906 2969 
L 2906 3500 
L 3481 3500 
L 3481 434 
z
" transform="scale(0.015625)"/>
       <path id="DejaVuSans-68" d="M 3513 2113 
L 3513 0 
L 2938 0 
L 2938 2094 
Q 2938 2591 2744 2837 
Q 2550 3084 2163 3084 
Q 1697 3084 1428 2787 
Q 1159 2491 1159 1978 
L 1159 0 
L 581 0 
L 581 4863 
L 1159 4863 
L 1159 2956 
Q 1366 3272 1645 3428 
Q 1925 3584 2291 3584 
Q 2894 3584 3203 3211 
Q 3513 2838 3513 2113 
z
" transform="scale(0.015625)"/>
       <path id="DejaVuSans-28" d="M 1984 4856 
Q 1566 4138 1362 3434 
Q 1159 2731 1159 2009 
Q 1159 1288 1364 580 
Q 1569 -128 1984 -844 
L 1484 -844 
Q 1016 -109 783 600 
Q 550 1309 550 2009 
Q 550 2706 781 3412 
Q 1013 4119 1484 4856 
L 1984 4856 
z
" transform="scale(0.015625)"/>
       <path id="DejaVuSans-44" d="M 1259 4147 
L 1259 519 
L 2022 519 
Q 2988 519 3436 956 
Q 3884 1394 3884 2338 
Q 3884 3275 3436 3711 
Q 2988 4147 2022 4147 
L 1259 4147 
z
M 628 4666 
L 1925 4666 
Q 3281 4666 3915 4102 
Q 4550 3538 4550 2338 
Q 4550 1131 3912 565 
Q 3275 0 1925 0 
L 628 0 
L 628 4666 
z
" transform="scale(0.015625)"/>
       <path id="DejaVuSans-29" d="M 513 4856 
L 1013 4856 
Q 1481 4119 1714 3412 
Q 1947 2706 1947 2009 
Q 1947 1309 1714 600 
Q 1481 -109 1013 -844 
L 513 -844 
Q 928 -128 1133 580 
Q 1338 1288 1338 2009 
Q 1338 2731 1133 3434 
Q 928 4138 513 4856 
z
" transform="scale(0.015625)"/>
      </defs>
      <use xlink:href="#DejaVuSans-50"/>
      <use xlink:href="#DejaVuSans-61" x="55.802734"/>
      <use xlink:href="#DejaVuSans-72" x="117.082031"/>
      <use xlink:href="#DejaVuSans-65" x="155.945312"/>
      <use xlink:href="#DejaVuSans-6e" x="217.46875"/>
      <use xlink:href="#DejaVuSans-74" x="280.847656"/>
      <use xlink:href="#DejaVuSans-20" x="320.056641"/>
      <use xlink:href="#DejaVuSans-4d" x="351.84375"/>
      <use xlink:href="#DejaVuSans-6f" x="438.123047"/>
      <use xlink:href="#DejaVuSans-6c" x="499.304688"/>
      <use xlink:href="#DejaVuSans-2e" x="527.087891"/>
      <use xlink:href="#DejaVuSans-20" x="558.875"/>
      <use xlink:href="#DejaVuSans-57" x="590.662109"/>
      <use xlink:href="#DejaVuSans-65" x="683.664062"/>
      <use xlink:href="#DejaVuSans-69" x="745.1875"/>
      <use xlink:href="#DejaVuSans-67" x="772.970703"/>
      <use xlink:href="#DejaVuSans-68" x="836.447266"/>
      <use xlink:href="#DejaVuSans-74" x="899.826172"/>
      <use xlink:href="#DejaVuSans-20" x="939.035156"/>
      <use xlink:href="#DejaVuSans-28" x="970.822266"/>
      <use xlink:href="#DejaVuSans-44" x="1009.835938"/>
      <use xlink:href="#DejaVuSans-61" x="1086.837891"/>
      <use xlink:href="#DejaVuSans-29" x="1148.117188"/>
     </g>
    </g>
   </g>
   <g id="matplotlib.axis_2">
    <g id="ytick_1">
     <g id="line2d_4">
      <defs>
       <path id="m6f984c3e86" d="M 0 0 
L -3.5 0 
" style="stroke: #000000; stroke-width: 0.8"/>
      </defs>
      <g>
       <use xlink:href="#m6f984c3e86" x="46.965625" y="177.319219" style="stroke: #000000; stroke-width: 0.8"/>
      </g>
     </g>
     <g id="text_5">
      <!-- 0 -->
      <g transform="translate(33.603125 181.118438) scale(0.1 -0.1)">
       <use xlink:href="#DejaVuSans-30"/>
      </g>
     </g>
    </g>
    <g id="ytick_2">
     <g id="line2d_5">
      <g>
       <use xlink:href="#m6f984c3e86" x="46.965625" y="149.599219" style="stroke: #000000; stroke-width: 0.8"/>
      </g>
     </g>
     <g id="text_6">
      <!-- 50 -->
      <g transform="translate(27.240625 153.398438) scale(0.1 -0.1)">
       <use xlink:href="#DejaVuSans-35"/>
       <use xlink:href="#DejaVuSans-30" x="63.623047"/>
      </g>
     </g>
    </g>
    <g id="ytick_3">
     <g id="line2d_6">
      <g>
       <use xlink:href="#m6f984c3e86" x="46.965625" y="121.879219" style="stroke: #000000; stroke-width: 0.8"/>
      </g>
     </g>
     <g id="text_7">
      <!-- 100 -->
      <g transform="translate(20.878125 125.678438) scale(0.1 -0.1)">
       <use xlink:href="#DejaVuSans-31"/>
       <use xlink:href="#DejaVuSans-30" x="63.623047"/>
       <use xlink:href="#DejaVuSans-30" x="127.246094"/>
      </g>
     </g>
    </g>
    <g id="ytick_4">
     <g id="line2d_7">
      <g>
       <use xlink:href="#m6f984c3e86" x="46.965625" y="94.159219" style="stroke: #000000; stroke-width: 0.8"/>
      </g>
     </g>
     <g id="text_8">
      <!-- 150 -->
      <g transform="translate(20.878125 97.958438) scale(0.1 -0.1)">
       <use xlink:href="#DejaVuSans-31"/>
       <use xlink:href="#DejaVuSans-35" x="63.623047"/>
       <use xlink:href="#DejaVuSans-30" x="127.246094"/>
      </g>
     </g>
    </g>
    <g id="ytick_5">
     <g id="line2d_8">
      <g>
       <use xlink:href="#m6f984c3e86" x="46.965625" y="66.439219" style="stroke: #000000; stroke-width: 0.8"/>
      </g>
     </g>
     <g id="text_9">
      <!-- 200 -->
      <g transform="translate(20.878125 70.238438) scale(0.1 -0.1)">
       <defs>
        <path id="DejaVuSans-32" d="M 1228 531 
L 3431 531 
L 3431 0 
L 469 0 
L 469 531 
Q 828 903 1448 1529 
Q 2069 2156 2228 2338 
Q 2531 2678 2651 2914 
Q 2772 3150 2772 3378 
Q 2772 3750 2511 3984 
Q 2250 4219 1831 4219 
Q 1534 4219 1204 4116 
Q 875 4013 500 3803 
L 500 4441 
Q 881 4594 1212 4672 
Q 1544 4750 1819 4750 
Q 2544 4750 2975 4387 
Q 3406 4025 3406 3419 
Q 3406 3131 3298 2873 
Q 3191 2616 2906 2266 
Q 2828 2175 2409 1742 
Q 1991 1309 1228 531 
z
" transform="scale(0.015625)"/>
       </defs>
       <use xlink:href="#DejaVuSans-32"/>
       <use xlink:href="#DejaVuSans-30" x="63.623047"/>
       <use xlink:href="#DejaVuSans-30" x="127.246094"/>
      </g>
     </g>
    </g>
    <g id="ytick_6">
     <g id="line2d_9">
      <g>
       <use xlink:href="#m6f984c3e86" x="46.965625" y="38.719219" style="stroke: #000000; stroke-width: 0.8"/>
      </g>
     </g>
     <g id="text_10">
      <!-- 250 -->
      <g transform="translate(20.878125 42.518438) scale(0.1 -0.1)">
       <use xlink:href="#DejaVuSans-32"/>
       <use xlink:href="#DejaVuSans-35" x="63.623047"/>
       <use xlink:href="#DejaVuSans-30" x="127.246094"/>
      </g>
     </g>
    </g>
    <g id="ytick_7">
     <g id="line2d_10">
      <g>
       <use xlink:href="#m6f984c3e86" x="46.965625" y="10.999219" style="stroke: #000000; stroke-width: 0.8"/>
      </g>
     </g>
     <g id="text_11">
      <!-- 300 -->
      <g transform="translate(20.878125 14.798438) scale(0.1 -0.1)">
       <defs>
        <path id="DejaVuSans-33" d="M 2597 2516 
Q 3050 2419 3304 2112 
Q 3559 1806 3559 1356 
Q 3559 666 3084 287 
Q 2609 -91 1734 -91 
Q 1441 -91 1130 -33 
Q 819 25 488 141 
L 488 750 
Q 750 597 1062 519 
Q 1375 441 1716 441 
Q 2309 441 2620 675 
Q 2931 909 2931 1356 
Q 2931 1769 2642 2001 
Q 2353 2234 1838 2234 
L 1294 2234 
L 1294 2753 
L 1863 2753 
Q 2328 2753 2575 2939 
Q 2822 3125 2822 3475 
Q 2822 3834 2567 4026 
Q 2313 4219 1838 4219 
Q 1578 4219 1281 4162 
Q 984 4106 628 3988 
L 628 4550 
Q 988 4650 1302 4700 
Q 1616 4750 1894 4750 
Q 2613 4750 3031 4423 
Q 3450 4097 3450 3541 
Q 3450 3153 3228 2886 
Q 3006 2619 2597 2516 
z
" transform="scale(0.015625)"/>
       </defs>
       <use xlink:href="#DejaVuSans-33"/>
       <use xlink:href="#DejaVuSans-30" x="63.623047"/>
       <use xlink:href="#DejaVuSans-30" x="127.246094"/>
      </g>
     </g>
    </g>
    <g id="text_12">
     <!-- Frequency -->
     <g transform="translate(14.798438 119.988906) rotate(-90) scale(0.1 -0.1)">
      <defs>
       <path id="DejaVuSans-46" d="M 628 4666 
L 3309 4666 
L 3309 4134 
L 1259 4134 
L 1259 2759 
L 3109 2759 
L 3109 2228 
L 1259 2228 
L 1259 0 
L 628 0 
L 628 4666 
z
" transform="scale(0.015625)"/>
       <path id="DejaVuSans-71" d="M 947 1747 
Q 947 1113 1208 752 
Q 1469 391 1925 391 
Q 2381 391 2643 752 
Q 2906 1113 2906 1747 
Q 2906 2381 2643 2742 
Q 2381 3103 1925 3103 
Q 1469 3103 1208 2742 
Q 947 2381 947 1747 
z
M 2906 525 
Q 2725 213 2448 61 
Q 2172 -91 1784 -91 
Q 1150 -91 751 415 
Q 353 922 353 1747 
Q 353 2572 751 3078 
Q 1150 3584 1784 3584 
Q 2172 3584 2448 3432 
Q 2725 3281 2906 2969 
L 2906 3500 
L 3481 3500 
L 3481 -1331 
L 2906 -1331 
L 2906 525 
z
" transform="scale(0.015625)"/>
       <path id="DejaVuSans-75" d="M 544 1381 
L 544 3500 
L 1119 3500 
L 1119 1403 
Q 1119 906 1312 657 
Q 1506 409 1894 409 
Q 2359 409 2629 706 
Q 2900 1003 2900 1516 
L 2900 3500 
L 3475 3500 
L 3475 0 
L 2900 0 
L 2900 538 
Q 2691 219 2414 64 
Q 2138 -91 1772 -91 
Q 1169 -91 856 284 
Q 544 659 544 1381 
z
M 1991 3584 
L 1991 3584 
z
" transform="scale(0.015625)"/>
       <path id="DejaVuSans-63" d="M 3122 3366 
L 3122 2828 
Q 2878 2963 2633 3030 
Q 2388 3097 2138 3097 
Q 1578 3097 1268 2742 
Q 959 2388 959 1747 
Q 959 1106 1268 751 
Q 1578 397 2138 397 
Q 2388 397 2633 464 
Q 2878 531 3122 666 
L 3122 134 
Q 2881 22 2623 -34 
Q 2366 -91 2075 -91 
Q 1284 -91 818 406 
Q 353 903 353 1747 
Q 353 2603 823 3093 
Q 1294 3584 2113 3584 
Q 2378 3584 2631 3529 
Q 2884 3475 3122 3366 
z
" transform="scale(0.015625)"/>
       <path id="DejaVuSans-79" d="M 2059 -325 
Q 1816 -950 1584 -1140 
Q 1353 -1331 966 -1331 
L 506 -1331 
L 506 -850 
L 844 -850 
Q 1081 -850 1212 -737 
Q 1344 -625 1503 -206 
L 1606 56 
L 191 3500 
L 800 3500 
L 1894 763 
L 2988 3500 
L 3597 3500 
L 2059 -325 
z
" transform="scale(0.015625)"/>
      </defs>
      <use xlink:href="#DejaVuSans-46"/>
      <use xlink:href="#DejaVuSans-72" x="50.269531"/>
      <use xlink:href="#DejaVuSans-65" x="89.132812"/>
      <use xlink:href="#DejaVuSans-71" x="150.65625"/>
      <use xlink:href="#DejaVuSans-75" x="214.132812"/>
      <use xlink:href="#DejaVuSans-65" x="277.511719"/>
      <use xlink:href="#DejaVuSans-6e" x="339.035156"/>
      <use xlink:href="#DejaVuSans-63" x="402.414062"/>
      <use xlink:href="#DejaVuSans-79" x="457.394531"/>
     </g>
    </g>
   </g>
   <g id="patch_139">
    <path d="M 46.965625 177.319219 
L 46.965625 10.999219 
" style="fill: none; stroke: #000000; stroke-width: 0.8; stroke-linejoin: miter; stroke-linecap: square"/>
   </g>
   <g id="patch_140">
    <path d="M 211.829261 177.319219 
L 211.829261 10.999219 
" style="fill: none; stroke: #000000; stroke-width: 0.8; stroke-linejoin: miter; stroke-linecap: square"/>
   </g>
   <g id="patch_141">
    <path d="M 46.965625 177.319219 
L 211.829261 177.319219 
" style="fill: none; stroke: #000000; stroke-width: 0.8; stroke-linejoin: miter; stroke-linecap: square"/>
   </g>
   <g id="patch_142">
    <path d="M 46.965625 10.999219 
L 211.829261 10.999219 
" style="fill: none; stroke: #000000; stroke-width: 0.8; stroke-linejoin: miter; stroke-linecap: square"/>
   </g>
   <g id="legend_1">
    <g id="patch_143">
     <path d="M 96.727699 48.355469 
L 204.829261 48.355469 
Q 206.829261 48.355469 206.829261 46.355469 
L 206.829261 17.999219 
Q 206.829261 15.999219 204.829261 15.999219 
L 96.727699 15.999219 
Q 94.727699 15.999219 94.727699 17.999219 
L 94.727699 46.355469 
Q 94.727699 48.355469 96.727699 48.355469 
z
" style="fill: #ffffff; opacity: 0.8; stroke: #cccccc; stroke-linejoin: miter"/>
    </g>
    <g id="patch_144">
     <path d="M 98.727699 27.597656 
L 118.727699 27.597656 
L 118.727699 20.597656 
L 98.727699 20.597656 
z
" style="fill: #cca0cf"/>
    </g>
    <g id="text_13">
     <!-- Before Filtering -->
     <g transform="translate(126.727699 27.597656) scale(0.1 -0.1)">
      <defs>
       <path id="DejaVuSans-42" d="M 1259 2228 
L 1259 519 
L 2272 519 
Q 2781 519 3026 730 
Q 3272 941 3272 1375 
Q 3272 1813 3026 2020 
Q 2781 2228 2272 2228 
L 1259 2228 
z
M 1259 4147 
L 1259 2741 
L 2194 2741 
Q 2656 2741 2882 2914 
Q 3109 3088 3109 3444 
Q 3109 3797 2882 3972 
Q 2656 4147 2194 4147 
L 1259 4147 
z
M 628 4666 
L 2241 4666 
Q 2963 4666 3353 4366 
Q 3744 4066 3744 3513 
Q 3744 3084 3544 2831 
Q 3344 2578 2956 2516 
Q 3422 2416 3680 2098 
Q 3938 1781 3938 1306 
Q 3938 681 3513 340 
Q 3088 0 2303 0 
L 628 0 
L 628 4666 
z
" transform="scale(0.015625)"/>
       <path id="DejaVuSans-66" d="M 2375 4863 
L 2375 4384 
L 1825 4384 
Q 1516 4384 1395 4259 
Q 1275 4134 1275 3809 
L 1275 3500 
L 2222 3500 
L 2222 3053 
L 1275 3053 
L 1275 0 
L 697 0 
L 697 3053 
L 147 3053 
L 147 3500 
L 697 3500 
L 697 3744 
Q 697 4328 969 4595 
Q 1241 4863 1831 4863 
L 2375 4863 
z
" transform="scale(0.015625)"/>
      </defs>
      <use xlink:href="#DejaVuSans-42"/>
      <use xlink:href="#DejaVuSans-65" x="68.603516"/>
      <use xlink:href="#DejaVuSans-66" x="130.126953"/>
      <use xlink:href="#DejaVuSans-6f" x="165.332031"/>
      <use xlink:href="#DejaVuSans-72" x="226.513672"/>
      <use xlink:href="#DejaVuSans-65" x="265.376953"/>
      <use xlink:href="#DejaVuSans-20" x="326.900391"/>
      <use xlink:href="#DejaVuSans-46" x="358.6875"/>
      <use xlink:href="#DejaVuSans-69" x="408.957031"/>
      <use xlink:href="#DejaVuSans-6c" x="436.740234"/>
      <use xlink:href="#DejaVuSans-74" x="464.523438"/>
      <use xlink:href="#DejaVuSans-65" x="503.732422"/>
      <use xlink:href="#DejaVuSans-72" x="565.255859"/>
      <use xlink:href="#DejaVuSans-69" x="606.369141"/>
      <use xlink:href="#DejaVuSans-6e" x="634.152344"/>
      <use xlink:href="#DejaVuSans-67" x="697.53125"/>
     </g>
    </g>
    <g id="patch_145">
     <path d="M 98.727699 42.275781 
L 118.727699 42.275781 
L 118.727699 35.275781 
L 98.727699 35.275781 
z
" style="fill: #8e4a93"/>
    </g>
    <g id="text_14">
     <!-- After Filtering -->
     <g transform="translate(126.727699 42.275781) scale(0.1 -0.1)">
      <defs>
       <path id="DejaVuSans-41" d="M 2188 4044 
L 1331 1722 
L 3047 1722 
L 2188 4044 
z
M 1831 4666 
L 2547 4666 
L 4325 0 
L 3669 0 
L 3244 1197 
L 1141 1197 
L 716 0 
L 50 0 
L 1831 4666 
z
" transform="scale(0.015625)"/>
      </defs>
      <use xlink:href="#DejaVuSans-41"/>
      <use xlink:href="#DejaVuSans-66" x="64.783203"/>
      <use xlink:href="#DejaVuSans-74" x="98.238281"/>
      <use xlink:href="#DejaVuSans-65" x="137.447266"/>
      <use xlink:href="#DejaVuSans-72" x="198.970703"/>
      <use xlink:href="#DejaVuSans-20" x="240.083984"/>
      <use xlink:href="#DejaVuSans-46" x="271.871094"/>
      <use xlink:href="#DejaVuSans-69" x="322.140625"/>
      <use xlink:href="#DejaVuSans-6c" x="349.923828"/>
      <use xlink:href="#DejaVuSans-74" x="377.707031"/>
      <use xlink:href="#DejaVuSans-65" x="416.916016"/>
      <use xlink:href="#DejaVuSans-72" x="478.439453"/>
      <use xlink:href="#DejaVuSans-69" x="519.552734"/>
      <use xlink:href="#DejaVuSans-6e" x="547.335938"/>
      <use xlink:href="#DejaVuSans-67" x="610.714844"/>
     </g>
    </g>
   </g>
  </g>
  <g id="axes_2">
   <g id="patch_146">
    <path d="M 244.801989 177.319219 
L 409.665625 177.319219 
L 409.665625 10.999219 
L 244.801989 10.999219 
z
" style="fill: #ffffff"/>
   </g>
   <g id="patch_147">
    <path d="M 252.29579 177.319219 
L 254.49985 177.319219 
L 254.49985 176.210419 
L 252.29579 176.210419 
z
" clip-path="url(#pcebeb34962)" style="fill: #cca0cf"/>
   </g>
   <g id="patch_148">
    <path d="M 254.49985 177.319219 
L 256.703909 177.319219 
L 256.703909 171.775219 
L 254.49985 171.775219 
z
" clip-path="url(#pcebeb34962)" style="fill: #cca0cf"/>
   </g>
   <g id="patch_149">
    <path d="M 256.703909 177.319219 
L 258.907968 177.319219 
L 258.907968 172.884019 
L 256.703909 172.884019 
z
" clip-path="url(#pcebeb34962)" style="fill: #cca0cf"/>
   </g>
   <g id="patch_150">
    <path d="M 258.907968 177.319219 
L 261.112028 177.319219 
L 261.112028 166.785619 
L 258.907968 166.785619 
z
" clip-path="url(#pcebeb34962)" style="fill: #cca0cf"/>
   </g>
   <g id="patch_151">
    <path d="M 261.112028 177.319219 
L 263.316087 177.319219 
L 263.316087 165.122419 
L 261.112028 165.122419 
z
" clip-path="url(#pcebeb34962)" style="fill: #cca0cf"/>
   </g>
   <g id="patch_152">
    <path d="M 263.316087 177.319219 
L 265.520146 177.319219 
L 265.520146 151.262419 
L 263.316087 151.262419 
z
" clip-path="url(#pcebeb34962)" style="fill: #cca0cf"/>
   </g>
   <g id="patch_153">
    <path d="M 265.520146 177.319219 
L 267.724205 177.319219 
L 267.724205 135.184819 
L 265.520146 135.184819 
z
" clip-path="url(#pcebeb34962)" style="fill: #cca0cf"/>
   </g>
   <g id="patch_154">
    <path d="M 267.724205 177.319219 
L 269.928265 177.319219 
L 269.928265 121.879219 
L 267.724205 121.879219 
z
" clip-path="url(#pcebeb34962)" style="fill: #cca0cf"/>
   </g>
   <g id="patch_155">
    <path d="M 269.928265 177.319219 
L 272.132324 177.319219 
L 272.132324 108.573619 
L 269.928265 108.573619 
z
" clip-path="url(#pcebeb34962)" style="fill: #cca0cf"/>
   </g>
   <g id="patch_156">
    <path d="M 272.132324 177.319219 
L 274.336383 177.319219 
L 274.336383 109.128019 
L 272.132324 109.128019 
z
" clip-path="url(#pcebeb34962)" style="fill: #cca0cf"/>
   </g>
   <g id="patch_157">
    <path d="M 274.336383 177.319219 
L 276.540443 177.319219 
L 276.540443 105.247219 
L 274.336383 105.247219 
z
" clip-path="url(#pcebeb34962)" style="fill: #cca0cf"/>
   </g>
   <g id="patch_158">
    <path d="M 276.540443 177.319219 
L 278.744502 177.319219 
L 278.744502 106.910419 
L 276.540443 106.910419 
z
" clip-path="url(#pcebeb34962)" style="fill: #cca0cf"/>
   </g>
   <g id="patch_159">
    <path d="M 278.744502 177.319219 
L 280.948561 177.319219 
L 280.948561 83.625619 
L 278.744502 83.625619 
z
" clip-path="url(#pcebeb34962)" style="fill: #cca0cf"/>
   </g>
   <g id="patch_160">
    <path d="M 280.948561 177.319219 
L 283.152621 177.319219 
L 283.152621 52.024819 
L 280.948561 52.024819 
z
" clip-path="url(#pcebeb34962)" style="fill: #cca0cf"/>
   </g>
   <g id="patch_161">
    <path d="M 283.152621 177.319219 
L 285.35668 177.319219 
L 285.35668 30.957619 
L 283.152621 30.957619 
z
" clip-path="url(#pcebeb34962)" style="fill: #cca0cf"/>
   </g>
   <g id="patch_162">
    <path d="M 285.35668 177.319219 
L 287.560739 177.319219 
L 287.560739 55.905619 
L 285.35668 55.905619 
z
" clip-path="url(#pcebeb34962)" style="fill: #cca0cf"/>
   </g>
   <g id="patch_163">
    <path d="M 287.560739 177.319219 
L 289.764799 177.319219 
L 289.764799 13.216819 
L 287.560739 13.216819 
z
" clip-path="url(#pcebeb34962)" style="fill: #cca0cf"/>
   </g>
   <g id="patch_164">
    <path d="M 289.764799 177.319219 
L 291.968858 177.319219 
L 291.968858 64.776019 
L 289.764799 64.776019 
z
" clip-path="url(#pcebeb34962)" style="fill: #cca0cf"/>
   </g>
   <g id="patch_165">
    <path d="M 291.968858 177.319219 
L 294.172917 177.319219 
L 294.172917 64.221619 
L 291.968858 64.221619 
z
" clip-path="url(#pcebeb34962)" style="fill: #cca0cf"/>
   </g>
   <g id="patch_166">
    <path d="M 294.172917 177.319219 
L 296.376976 177.319219 
L 296.376976 65.884819 
L 294.172917 65.884819 
z
" clip-path="url(#pcebeb34962)" style="fill: #cca0cf"/>
   </g>
   <g id="patch_167">
    <path d="M 296.376976 177.319219 
L 298.581036 177.319219 
L 298.581036 81.408019 
L 296.376976 81.408019 
z
" clip-path="url(#pcebeb34962)" style="fill: #cca0cf"/>
   </g>
   <g id="patch_168">
    <path d="M 298.581036 177.319219 
L 300.785095 177.319219 
L 300.785095 64.776019 
L 298.581036 64.776019 
z
" clip-path="url(#pcebeb34962)" style="fill: #cca0cf"/>
   </g>
   <g id="patch_169">
    <path d="M 300.785095 177.319219 
L 302.989154 177.319219 
L 302.989154 62.558419 
L 300.785095 62.558419 
z
" clip-path="url(#pcebeb34962)" style="fill: #cca0cf"/>
   </g>
   <g id="patch_170">
    <path d="M 302.989154 177.319219 
L 305.193214 177.319219 
L 305.193214 75.864019 
L 302.989154 75.864019 
z
" clip-path="url(#pcebeb34962)" style="fill: #cca0cf"/>
   </g>
   <g id="patch_171">
    <path d="M 305.193214 177.319219 
L 307.397273 177.319219 
L 307.397273 116.335219 
L 305.193214 116.335219 
z
" clip-path="url(#pcebeb34962)" style="fill: #cca0cf"/>
   </g>
   <g id="patch_172">
    <path d="M 307.397273 177.319219 
L 309.601332 177.319219 
L 309.601332 123.542419 
L 307.397273 123.542419 
z
" clip-path="url(#pcebeb34962)" style="fill: #cca0cf"/>
   </g>
   <g id="patch_173">
    <path d="M 309.601332 177.319219 
L 311.805392 177.319219 
L 311.805392 139.065619 
L 309.601332 139.065619 
z
" clip-path="url(#pcebeb34962)" style="fill: #cca0cf"/>
   </g>
   <g id="patch_174">
    <path d="M 311.805392 177.319219 
L 314.009451 177.319219 
L 314.009451 138.511219 
L 311.805392 138.511219 
z
" clip-path="url(#pcebeb34962)" style="fill: #cca0cf"/>
   </g>
   <g id="patch_175">
    <path d="M 314.009451 177.319219 
L 316.21351 177.319219 
L 316.21351 145.164019 
L 314.009451 145.164019 
z
" clip-path="url(#pcebeb34962)" style="fill: #cca0cf"/>
   </g>
   <g id="patch_176">
    <path d="M 316.21351 177.319219 
L 318.41757 177.319219 
L 318.41757 153.480019 
L 316.21351 153.480019 
z
" clip-path="url(#pcebeb34962)" style="fill: #cca0cf"/>
   </g>
   <g id="patch_177">
    <path d="M 318.41757 177.319219 
L 320.621629 177.319219 
L 320.621629 157.360819 
L 318.41757 157.360819 
z
" clip-path="url(#pcebeb34962)" style="fill: #cca0cf"/>
   </g>
   <g id="patch_178">
    <path d="M 320.621629 177.319219 
L 322.825688 177.319219 
L 322.825688 165.122419 
L 320.621629 165.122419 
z
" clip-path="url(#pcebeb34962)" style="fill: #cca0cf"/>
   </g>
   <g id="patch_179">
    <path d="M 322.825688 177.319219 
L 325.029748 177.319219 
L 325.029748 157.915219 
L 322.825688 157.915219 
z
" clip-path="url(#pcebeb34962)" style="fill: #cca0cf"/>
   </g>
   <g id="patch_180">
    <path d="M 325.029748 177.319219 
L 327.233807 177.319219 
L 327.233807 170.112019 
L 325.029748 170.112019 
z
" clip-path="url(#pcebeb34962)" style="fill: #cca0cf"/>
   </g>
   <g id="patch_181">
    <path d="M 327.233807 177.319219 
L 329.437866 177.319219 
L 329.437866 170.666419 
L 327.233807 170.666419 
z
" clip-path="url(#pcebeb34962)" style="fill: #cca0cf"/>
   </g>
   <g id="patch_182">
    <path d="M 329.437866 177.319219 
L 331.641925 177.319219 
L 331.641925 172.884019 
L 329.437866 172.884019 
z
" clip-path="url(#pcebeb34962)" style="fill: #cca0cf"/>
   </g>
   <g id="patch_183">
    <path d="M 331.641925 177.319219 
L 333.845985 177.319219 
L 333.845985 173.992819 
L 331.641925 173.992819 
z
" clip-path="url(#pcebeb34962)" style="fill: #cca0cf"/>
   </g>
   <g id="patch_184">
    <path d="M 333.845985 177.319219 
L 336.050044 177.319219 
L 336.050044 171.775219 
L 333.845985 171.775219 
z
" clip-path="url(#pcebeb34962)" style="fill: #cca0cf"/>
   </g>
   <g id="patch_185">
    <path d="M 336.050044 177.319219 
L 338.254103 177.319219 
L 338.254103 169.003219 
L 336.050044 169.003219 
z
" clip-path="url(#pcebeb34962)" style="fill: #cca0cf"/>
   </g>
   <g id="patch_186">
    <path d="M 338.254103 177.319219 
L 340.458163 177.319219 
L 340.458163 174.547219 
L 338.254103 174.547219 
z
" clip-path="url(#pcebeb34962)" style="fill: #cca0cf"/>
   </g>
   <g id="patch_187">
    <path d="M 340.458163 177.319219 
L 342.662222 177.319219 
L 342.662222 174.547219 
L 340.458163 174.547219 
z
" clip-path="url(#pcebeb34962)" style="fill: #cca0cf"/>
   </g>
   <g id="patch_188">
    <path d="M 342.662222 177.319219 
L 344.866281 177.319219 
L 344.866281 172.329619 
L 342.662222 172.329619 
z
" clip-path="url(#pcebeb34962)" style="fill: #cca0cf"/>
   </g>
   <g id="patch_189">
    <path d="M 344.866281 177.319219 
L 347.070341 177.319219 
L 347.070341 174.547219 
L 344.866281 174.547219 
z
" clip-path="url(#pcebeb34962)" style="fill: #cca0cf"/>
   </g>
   <g id="patch_190">
    <path d="M 347.070341 177.319219 
L 349.2744 177.319219 
L 349.2744 170.112019 
L 347.070341 170.112019 
z
" clip-path="url(#pcebeb34962)" style="fill: #cca0cf"/>
   </g>
   <g id="patch_191">
    <path d="M 349.2744 177.319219 
L 351.478459 177.319219 
L 351.478459 174.547219 
L 349.2744 174.547219 
z
" clip-path="url(#pcebeb34962)" style="fill: #cca0cf"/>
   </g>
   <g id="patch_192">
    <path d="M 351.478459 177.319219 
L 353.682519 177.319219 
L 353.682519 176.210419 
L 351.478459 176.210419 
z
" clip-path="url(#pcebeb34962)" style="fill: #cca0cf"/>
   </g>
   <g id="patch_193">
    <path d="M 353.682519 177.319219 
L 355.886578 177.319219 
L 355.886578 174.547219 
L 353.682519 174.547219 
z
" clip-path="url(#pcebeb34962)" style="fill: #cca0cf"/>
   </g>
   <g id="patch_194">
    <path d="M 355.886578 177.319219 
L 358.090637 177.319219 
L 358.090637 175.656019 
L 355.886578 175.656019 
z
" clip-path="url(#pcebeb34962)" style="fill: #cca0cf"/>
   </g>
   <g id="patch_195">
    <path d="M 358.090637 177.319219 
L 360.294696 177.319219 
L 360.294696 177.319219 
L 358.090637 177.319219 
z
" clip-path="url(#pcebeb34962)" style="fill: #cca0cf"/>
   </g>
   <g id="patch_196">
    <path d="M 360.294696 177.319219 
L 362.498756 177.319219 
L 362.498756 176.210419 
L 360.294696 176.210419 
z
" clip-path="url(#pcebeb34962)" style="fill: #cca0cf"/>
   </g>
   <g id="patch_197">
    <path d="M 362.498756 177.319219 
L 364.702815 177.319219 
L 364.702815 177.319219 
L 362.498756 177.319219 
z
" clip-path="url(#pcebeb34962)" style="fill: #cca0cf"/>
   </g>
   <g id="patch_198">
    <path d="M 364.702815 177.319219 
L 366.906874 177.319219 
L 366.906874 176.764819 
L 364.702815 176.764819 
z
" clip-path="url(#pcebeb34962)" style="fill: #cca0cf"/>
   </g>
   <g id="patch_199">
    <path d="M 366.906874 177.319219 
L 369.110934 177.319219 
L 369.110934 177.319219 
L 366.906874 177.319219 
z
" clip-path="url(#pcebeb34962)" style="fill: #cca0cf"/>
   </g>
   <g id="patch_200">
    <path d="M 369.110934 177.319219 
L 371.314993 177.319219 
L 371.314993 177.319219 
L 369.110934 177.319219 
z
" clip-path="url(#pcebeb34962)" style="fill: #cca0cf"/>
   </g>
   <g id="patch_201">
    <path d="M 371.314993 177.319219 
L 373.519052 177.319219 
L 373.519052 177.319219 
L 371.314993 177.319219 
z
" clip-path="url(#pcebeb34962)" style="fill: #cca0cf"/>
   </g>
   <g id="patch_202">
    <path d="M 373.519052 177.319219 
L 375.723112 177.319219 
L 375.723112 177.319219 
L 373.519052 177.319219 
z
" clip-path="url(#pcebeb34962)" style="fill: #cca0cf"/>
   </g>
   <g id="patch_203">
    <path d="M 375.723112 177.319219 
L 377.927171 177.319219 
L 377.927171 177.319219 
L 375.723112 177.319219 
z
" clip-path="url(#pcebeb34962)" style="fill: #cca0cf"/>
   </g>
   <g id="patch_204">
    <path d="M 377.927171 177.319219 
L 380.13123 177.319219 
L 380.13123 176.764819 
L 377.927171 176.764819 
z
" clip-path="url(#pcebeb34962)" style="fill: #cca0cf"/>
   </g>
   <g id="patch_205">
    <path d="M 380.13123 177.319219 
L 382.33529 177.319219 
L 382.33529 177.319219 
L 380.13123 177.319219 
z
" clip-path="url(#pcebeb34962)" style="fill: #cca0cf"/>
   </g>
   <g id="patch_206">
    <path d="M 382.33529 177.319219 
L 384.539349 177.319219 
L 384.539349 176.764819 
L 382.33529 176.764819 
z
" clip-path="url(#pcebeb34962)" style="fill: #cca0cf"/>
   </g>
   <g id="patch_207">
    <path d="M 384.539349 177.319219 
L 386.743408 177.319219 
L 386.743408 175.101619 
L 384.539349 175.101619 
z
" clip-path="url(#pcebeb34962)" style="fill: #cca0cf"/>
   </g>
   <g id="patch_208">
    <path d="M 386.743408 177.319219 
L 388.947467 177.319219 
L 388.947467 176.764819 
L 386.743408 176.764819 
z
" clip-path="url(#pcebeb34962)" style="fill: #cca0cf"/>
   </g>
   <g id="patch_209">
    <path d="M 388.947467 177.319219 
L 391.151527 177.319219 
L 391.151527 176.764819 
L 388.947467 176.764819 
z
" clip-path="url(#pcebeb34962)" style="fill: #cca0cf"/>
   </g>
   <g id="patch_210">
    <path d="M 391.151527 177.319219 
L 393.355586 177.319219 
L 393.355586 176.210419 
L 391.151527 176.210419 
z
" clip-path="url(#pcebeb34962)" style="fill: #cca0cf"/>
   </g>
   <g id="patch_211">
    <path d="M 393.355586 177.319219 
L 395.559645 177.319219 
L 395.559645 176.764819 
L 393.355586 176.764819 
z
" clip-path="url(#pcebeb34962)" style="fill: #cca0cf"/>
   </g>
   <g id="patch_212">
    <path d="M 395.559645 177.319219 
L 397.763705 177.319219 
L 397.763705 177.319219 
L 395.559645 177.319219 
z
" clip-path="url(#pcebeb34962)" style="fill: #cca0cf"/>
   </g>
   <g id="patch_213">
    <path d="M 397.763705 177.319219 
L 399.967764 177.319219 
L 399.967764 177.319219 
L 397.763705 177.319219 
z
" clip-path="url(#pcebeb34962)" style="fill: #cca0cf"/>
   </g>
   <g id="patch_214">
    <path d="M 399.967764 177.319219 
L 402.171823 177.319219 
L 402.171823 176.764819 
L 399.967764 176.764819 
z
" clip-path="url(#pcebeb34962)" style="fill: #cca0cf"/>
   </g>
   <g id="patch_215">
    <path d="M 252.29579 177.319219 
L 254.49985 177.319219 
L 254.49985 177.319219 
L 252.29579 177.319219 
z
" clip-path="url(#pcebeb34962)" style="fill: #8e4a93"/>
   </g>
   <g id="patch_216">
    <path d="M 254.49985 177.319219 
L 256.703909 177.319219 
L 256.703909 177.319219 
L 254.49985 177.319219 
z
" clip-path="url(#pcebeb34962)" style="fill: #8e4a93"/>
   </g>
   <g id="patch_217">
    <path d="M 256.703909 177.319219 
L 258.907968 177.319219 
L 258.907968 177.319219 
L 256.703909 177.319219 
z
" clip-path="url(#pcebeb34962)" style="fill: #8e4a93"/>
   </g>
   <g id="patch_218">
    <path d="M 258.907968 177.319219 
L 261.112028 177.319219 
L 261.112028 176.210419 
L 258.907968 176.210419 
z
" clip-path="url(#pcebeb34962)" style="fill: #8e4a93"/>
   </g>
   <g id="patch_219">
    <path d="M 261.112028 177.319219 
L 263.316087 177.319219 
L 263.316087 175.101619 
L 261.112028 175.101619 
z
" clip-path="url(#pcebeb34962)" style="fill: #8e4a93"/>
   </g>
   <g id="patch_220">
    <path d="M 263.316087 177.319219 
L 265.520146 177.319219 
L 265.520146 165.122419 
L 263.316087 165.122419 
z
" clip-path="url(#pcebeb34962)" style="fill: #8e4a93"/>
   </g>
   <g id="patch_221">
    <path d="M 265.520146 177.319219 
L 267.724205 177.319219 
L 267.724205 143.500819 
L 265.520146 143.500819 
z
" clip-path="url(#pcebeb34962)" style="fill: #8e4a93"/>
   </g>
   <g id="patch_222">
    <path d="M 267.724205 177.319219 
L 269.928265 177.319219 
L 269.928265 128.532019 
L 267.724205 128.532019 
z
" clip-path="url(#pcebeb34962)" style="fill: #8e4a93"/>
   </g>
   <g id="patch_223">
    <path d="M 269.928265 177.319219 
L 272.132324 177.319219 
L 272.132324 111.345619 
L 269.928265 111.345619 
z
" clip-path="url(#pcebeb34962)" style="fill: #8e4a93"/>
   </g>
   <g id="patch_224">
    <path d="M 272.132324 177.319219 
L 274.336383 177.319219 
L 274.336383 115.780819 
L 272.132324 115.780819 
z
" clip-path="url(#pcebeb34962)" style="fill: #8e4a93"/>
   </g>
   <g id="patch_225">
    <path d="M 274.336383 177.319219 
L 276.540443 177.319219 
L 276.540443 108.573619 
L 274.336383 108.573619 
z
" clip-path="url(#pcebeb34962)" style="fill: #8e4a93"/>
   </g>
   <g id="patch_226">
    <path d="M 276.540443 177.319219 
L 278.744502 177.319219 
L 278.744502 108.573619 
L 276.540443 108.573619 
z
" clip-path="url(#pcebeb34962)" style="fill: #8e4a93"/>
   </g>
   <g id="patch_227">
    <path d="M 278.744502 177.319219 
L 280.948561 177.319219 
L 280.948561 88.615219 
L 278.744502 88.615219 
z
" clip-path="url(#pcebeb34962)" style="fill: #8e4a93"/>
   </g>
   <g id="patch_228">
    <path d="M 280.948561 177.319219 
L 283.152621 177.319219 
L 283.152621 55.905619 
L 280.948561 55.905619 
z
" clip-path="url(#pcebeb34962)" style="fill: #8e4a93"/>
   </g>
   <g id="patch_229">
    <path d="M 283.152621 177.319219 
L 285.35668 177.319219 
L 285.35668 32.066419 
L 283.152621 32.066419 
z
" clip-path="url(#pcebeb34962)" style="fill: #8e4a93"/>
   </g>
   <g id="patch_230">
    <path d="M 285.35668 177.319219 
L 287.560739 177.319219 
L 287.560739 55.905619 
L 285.35668 55.905619 
z
" clip-path="url(#pcebeb34962)" style="fill: #8e4a93"/>
   </g>
   <g id="patch_231">
    <path d="M 287.560739 177.319219 
L 289.764799 177.319219 
L 289.764799 15.988819 
L 287.560739 15.988819 
z
" clip-path="url(#pcebeb34962)" style="fill: #8e4a93"/>
   </g>
   <g id="patch_232">
    <path d="M 289.764799 177.319219 
L 291.968858 177.319219 
L 291.968858 68.656819 
L 289.764799 68.656819 
z
" clip-path="url(#pcebeb34962)" style="fill: #8e4a93"/>
   </g>
   <g id="patch_233">
    <path d="M 291.968858 177.319219 
L 294.172917 177.319219 
L 294.172917 66.993619 
L 291.968858 66.993619 
z
" clip-path="url(#pcebeb34962)" style="fill: #8e4a93"/>
   </g>
   <g id="patch_234">
    <path d="M 294.172917 177.319219 
L 296.376976 177.319219 
L 296.376976 66.439219 
L 294.172917 66.439219 
z
" clip-path="url(#pcebeb34962)" style="fill: #8e4a93"/>
   </g>
   <g id="patch_235">
    <path d="M 296.376976 177.319219 
L 298.581036 177.319219 
L 298.581036 82.516819 
L 296.376976 82.516819 
z
" clip-path="url(#pcebeb34962)" style="fill: #8e4a93"/>
   </g>
   <g id="patch_236">
    <path d="M 298.581036 177.319219 
L 300.785095 177.319219 
L 300.785095 65.884819 
L 298.581036 65.884819 
z
" clip-path="url(#pcebeb34962)" style="fill: #8e4a93"/>
   </g>
   <g id="patch_237">
    <path d="M 300.785095 177.319219 
L 302.989154 177.319219 
L 302.989154 63.112819 
L 300.785095 63.112819 
z
" clip-path="url(#pcebeb34962)" style="fill: #8e4a93"/>
   </g>
   <g id="patch_238">
    <path d="M 302.989154 177.319219 
L 305.193214 177.319219 
L 305.193214 77.527219 
L 302.989154 77.527219 
z
" clip-path="url(#pcebeb34962)" style="fill: #8e4a93"/>
   </g>
   <g id="patch_239">
    <path d="M 305.193214 177.319219 
L 307.397273 177.319219 
L 307.397273 116.889619 
L 305.193214 116.889619 
z
" clip-path="url(#pcebeb34962)" style="fill: #8e4a93"/>
   </g>
   <g id="patch_240">
    <path d="M 307.397273 177.319219 
L 309.601332 177.319219 
L 309.601332 125.205619 
L 307.397273 125.205619 
z
" clip-path="url(#pcebeb34962)" style="fill: #8e4a93"/>
   </g>
   <g id="patch_241">
    <path d="M 309.601332 177.319219 
L 311.805392 177.319219 
L 311.805392 139.620019 
L 309.601332 139.620019 
z
" clip-path="url(#pcebeb34962)" style="fill: #8e4a93"/>
   </g>
   <g id="patch_242">
    <path d="M 311.805392 177.319219 
L 314.009451 177.319219 
L 314.009451 140.174419 
L 311.805392 140.174419 
z
" clip-path="url(#pcebeb34962)" style="fill: #8e4a93"/>
   </g>
   <g id="patch_243">
    <path d="M 314.009451 177.319219 
L 316.21351 177.319219 
L 316.21351 145.718419 
L 314.009451 145.718419 
z
" clip-path="url(#pcebeb34962)" style="fill: #8e4a93"/>
   </g>
   <g id="patch_244">
    <path d="M 316.21351 177.319219 
L 318.41757 177.319219 
L 318.41757 153.480019 
L 316.21351 153.480019 
z
" clip-path="url(#pcebeb34962)" style="fill: #8e4a93"/>
   </g>
   <g id="patch_245">
    <path d="M 318.41757 177.319219 
L 320.621629 177.319219 
L 320.621629 157.360819 
L 318.41757 157.360819 
z
" clip-path="url(#pcebeb34962)" style="fill: #8e4a93"/>
   </g>
   <g id="patch_246">
    <path d="M 320.621629 177.319219 
L 322.825688 177.319219 
L 322.825688 165.122419 
L 320.621629 165.122419 
z
" clip-path="url(#pcebeb34962)" style="fill: #8e4a93"/>
   </g>
   <g id="patch_247">
    <path d="M 322.825688 177.319219 
L 325.029748 177.319219 
L 325.029748 159.578419 
L 322.825688 159.578419 
z
" clip-path="url(#pcebeb34962)" style="fill: #8e4a93"/>
   </g>
   <g id="patch_248">
    <path d="M 325.029748 177.319219 
L 327.233807 177.319219 
L 327.233807 171.220819 
L 325.029748 171.220819 
z
" clip-path="url(#pcebeb34962)" style="fill: #8e4a93"/>
   </g>
   <g id="patch_249">
    <path d="M 327.233807 177.319219 
L 329.437866 177.319219 
L 329.437866 171.775219 
L 327.233807 171.775219 
z
" clip-path="url(#pcebeb34962)" style="fill: #8e4a93"/>
   </g>
   <g id="patch_250">
    <path d="M 329.437866 177.319219 
L 331.641925 177.319219 
L 331.641925 173.438419 
L 329.437866 173.438419 
z
" clip-path="url(#pcebeb34962)" style="fill: #8e4a93"/>
   </g>
   <g id="patch_251">
    <path d="M 331.641925 177.319219 
L 333.845985 177.319219 
L 333.845985 174.547219 
L 331.641925 174.547219 
z
" clip-path="url(#pcebeb34962)" style="fill: #8e4a93"/>
   </g>
   <g id="patch_252">
    <path d="M 333.845985 177.319219 
L 336.050044 177.319219 
L 336.050044 174.547219 
L 333.845985 174.547219 
z
" clip-path="url(#pcebeb34962)" style="fill: #8e4a93"/>
   </g>
   <g id="patch_253">
    <path d="M 336.050044 177.319219 
L 338.254103 177.319219 
L 338.254103 171.220819 
L 336.050044 171.220819 
z
" clip-path="url(#pcebeb34962)" style="fill: #8e4a93"/>
   </g>
   <g id="patch_254">
    <path d="M 338.254103 177.319219 
L 340.458163 177.319219 
L 340.458163 177.319219 
L 338.254103 177.319219 
z
" clip-path="url(#pcebeb34962)" style="fill: #8e4a93"/>
   </g>
   <g id="patch_255">
    <path d="M 340.458163 177.319219 
L 342.662222 177.319219 
L 342.662222 177.319219 
L 340.458163 177.319219 
z
" clip-path="url(#pcebeb34962)" style="fill: #8e4a93"/>
   </g>
   <g id="patch_256">
    <path d="M 342.662222 177.319219 
L 344.866281 177.319219 
L 344.866281 176.764819 
L 342.662222 176.764819 
z
" clip-path="url(#pcebeb34962)" style="fill: #8e4a93"/>
   </g>
   <g id="patch_257">
    <path d="M 344.866281 177.319219 
L 347.070341 177.319219 
L 347.070341 176.764819 
L 344.866281 176.764819 
z
" clip-path="url(#pcebeb34962)" style="fill: #8e4a93"/>
   </g>
   <g id="patch_258">
    <path d="M 347.070341 177.319219 
L 349.2744 177.319219 
L 349.2744 177.319219 
L 347.070341 177.319219 
z
" clip-path="url(#pcebeb34962)" style="fill: #8e4a93"/>
   </g>
   <g id="patch_259">
    <path d="M 349.2744 177.319219 
L 351.478459 177.319219 
L 351.478459 177.319219 
L 349.2744 177.319219 
z
" clip-path="url(#pcebeb34962)" style="fill: #8e4a93"/>
   </g>
   <g id="patch_260">
    <path d="M 351.478459 177.319219 
L 353.682519 177.319219 
L 353.682519 177.319219 
L 351.478459 177.319219 
z
" clip-path="url(#pcebeb34962)" style="fill: #8e4a93"/>
   </g>
   <g id="patch_261">
    <path d="M 353.682519 177.319219 
L 355.886578 177.319219 
L 355.886578 177.319219 
L 353.682519 177.319219 
z
" clip-path="url(#pcebeb34962)" style="fill: #8e4a93"/>
   </g>
   <g id="patch_262">
    <path d="M 355.886578 177.319219 
L 358.090637 177.319219 
L 358.090637 177.319219 
L 355.886578 177.319219 
z
" clip-path="url(#pcebeb34962)" style="fill: #8e4a93"/>
   </g>
   <g id="patch_263">
    <path d="M 358.090637 177.319219 
L 360.294696 177.319219 
L 360.294696 177.319219 
L 358.090637 177.319219 
z
" clip-path="url(#pcebeb34962)" style="fill: #8e4a93"/>
   </g>
   <g id="patch_264">
    <path d="M 360.294696 177.319219 
L 362.498756 177.319219 
L 362.498756 177.319219 
L 360.294696 177.319219 
z
" clip-path="url(#pcebeb34962)" style="fill: #8e4a93"/>
   </g>
   <g id="patch_265">
    <path d="M 362.498756 177.319219 
L 364.702815 177.319219 
L 364.702815 177.319219 
L 362.498756 177.319219 
z
" clip-path="url(#pcebeb34962)" style="fill: #8e4a93"/>
   </g>
   <g id="patch_266">
    <path d="M 364.702815 177.319219 
L 366.906874 177.319219 
L 366.906874 176.764819 
L 364.702815 176.764819 
z
" clip-path="url(#pcebeb34962)" style="fill: #8e4a93"/>
   </g>
   <g id="patch_267">
    <path d="M 366.906874 177.319219 
L 369.110934 177.319219 
L 369.110934 177.319219 
L 366.906874 177.319219 
z
" clip-path="url(#pcebeb34962)" style="fill: #8e4a93"/>
   </g>
   <g id="patch_268">
    <path d="M 369.110934 177.319219 
L 371.314993 177.319219 
L 371.314993 177.319219 
L 369.110934 177.319219 
z
" clip-path="url(#pcebeb34962)" style="fill: #8e4a93"/>
   </g>
   <g id="patch_269">
    <path d="M 371.314993 177.319219 
L 373.519052 177.319219 
L 373.519052 177.319219 
L 371.314993 177.319219 
z
" clip-path="url(#pcebeb34962)" style="fill: #8e4a93"/>
   </g>
   <g id="patch_270">
    <path d="M 373.519052 177.319219 
L 375.723112 177.319219 
L 375.723112 177.319219 
L 373.519052 177.319219 
z
" clip-path="url(#pcebeb34962)" style="fill: #8e4a93"/>
   </g>
   <g id="patch_271">
    <path d="M 375.723112 177.319219 
L 377.927171 177.319219 
L 377.927171 177.319219 
L 375.723112 177.319219 
z
" clip-path="url(#pcebeb34962)" style="fill: #8e4a93"/>
   </g>
   <g id="patch_272">
    <path d="M 377.927171 177.319219 
L 380.13123 177.319219 
L 380.13123 177.319219 
L 377.927171 177.319219 
z
" clip-path="url(#pcebeb34962)" style="fill: #8e4a93"/>
   </g>
   <g id="patch_273">
    <path d="M 380.13123 177.319219 
L 382.33529 177.319219 
L 382.33529 177.319219 
L 380.13123 177.319219 
z
" clip-path="url(#pcebeb34962)" style="fill: #8e4a93"/>
   </g>
   <g id="patch_274">
    <path d="M 382.33529 177.319219 
L 384.539349 177.319219 
L 384.539349 177.319219 
L 382.33529 177.319219 
z
" clip-path="url(#pcebeb34962)" style="fill: #8e4a93"/>
   </g>
   <g id="patch_275">
    <path d="M 384.539349 177.319219 
L 386.743408 177.319219 
L 386.743408 177.319219 
L 384.539349 177.319219 
z
" clip-path="url(#pcebeb34962)" style="fill: #8e4a93"/>
   </g>
   <g id="patch_276">
    <path d="M 386.743408 177.319219 
L 388.947467 177.319219 
L 388.947467 177.319219 
L 386.743408 177.319219 
z
" clip-path="url(#pcebeb34962)" style="fill: #8e4a93"/>
   </g>
   <g id="patch_277">
    <path d="M 388.947467 177.319219 
L 391.151527 177.319219 
L 391.151527 177.319219 
L 388.947467 177.319219 
z
" clip-path="url(#pcebeb34962)" style="fill: #8e4a93"/>
   </g>
   <g id="patch_278">
    <path d="M 391.151527 177.319219 
L 393.355586 177.319219 
L 393.355586 177.319219 
L 391.151527 177.319219 
z
" clip-path="url(#pcebeb34962)" style="fill: #8e4a93"/>
   </g>
   <g id="patch_279">
    <path d="M 393.355586 177.319219 
L 395.559645 177.319219 
L 395.559645 177.319219 
L 393.355586 177.319219 
z
" clip-path="url(#pcebeb34962)" style="fill: #8e4a93"/>
   </g>
   <g id="patch_280">
    <path d="M 395.559645 177.319219 
L 397.763705 177.319219 
L 397.763705 177.319219 
L 395.559645 177.319219 
z
" clip-path="url(#pcebeb34962)" style="fill: #8e4a93"/>
   </g>
   <g id="patch_281">
    <path d="M 397.763705 177.319219 
L 399.967764 177.319219 
L 399.967764 177.319219 
L 397.763705 177.319219 
z
" clip-path="url(#pcebeb34962)" style="fill: #8e4a93"/>
   </g>
   <g id="patch_282">
    <path d="M 399.967764 177.319219 
L 402.171823 177.319219 
L 402.171823 177.319219 
L 399.967764 177.319219 
z
" clip-path="url(#pcebeb34962)" style="fill: #8e4a93"/>
   </g>
   <g id="matplotlib.axis_3">
    <g id="xtick_4">
     <g id="line2d_11">
      <g>
       <use xlink:href="#mf5dc0dac0f" x="252.29579" y="177.319219" style="stroke: #000000; stroke-width: 0.8"/>
      </g>
     </g>
     <g id="text_15">
      <!-- 0 -->
      <g transform="translate(249.11454 191.917656) scale(0.1 -0.1)">
       <use xlink:href="#DejaVuSans-30"/>
      </g>
     </g>
    </g>
    <g id="xtick_5">
     <g id="line2d_12">
      <g>
       <use xlink:href="#mf5dc0dac0f" x="307.397273" y="177.319219" style="stroke: #000000; stroke-width: 0.8"/>
      </g>
     </g>
     <g id="text_16">
      <!-- 500 -->
      <g transform="translate(297.853523 191.917656) scale(0.1 -0.1)">
       <use xlink:href="#DejaVuSans-35"/>
       <use xlink:href="#DejaVuSans-30" x="63.623047"/>
       <use xlink:href="#DejaVuSans-30" x="127.246094"/>
      </g>
     </g>
    </g>
    <g id="xtick_6">
     <g id="line2d_13">
      <g>
       <use xlink:href="#mf5dc0dac0f" x="362.498756" y="177.319219" style="stroke: #000000; stroke-width: 0.8"/>
      </g>
     </g>
     <g id="text_17">
      <!-- 1000 -->
      <g transform="translate(349.773756 191.917656) scale(0.1 -0.1)">
       <use xlink:href="#DejaVuSans-31"/>
       <use xlink:href="#DejaVuSans-30" x="63.623047"/>
       <use xlink:href="#DejaVuSans-30" x="127.246094"/>
       <use xlink:href="#DejaVuSans-30" x="190.869141"/>
      </g>
     </g>
    </g>
    <g id="text_18">
     <!-- Metabolite Mol. Weight (Da) -->
     <g transform="translate(257.417401 205.595781) scale(0.1 -0.1)">
      <defs>
       <path id="DejaVuSans-62" d="M 3116 1747 
Q 3116 2381 2855 2742 
Q 2594 3103 2138 3103 
Q 1681 3103 1420 2742 
Q 1159 2381 1159 1747 
Q 1159 1113 1420 752 
Q 1681 391 2138 391 
Q 2594 391 2855 752 
Q 3116 1113 3116 1747 
z
M 1159 2969 
Q 1341 3281 1617 3432 
Q 1894 3584 2278 3584 
Q 2916 3584 3314 3078 
Q 3713 2572 3713 1747 
Q 3713 922 3314 415 
Q 2916 -91 2278 -91 
Q 1894 -91 1617 61 
Q 1341 213 1159 525 
L 1159 0 
L 581 0 
L 581 4863 
L 1159 4863 
L 1159 2969 
z
" transform="scale(0.015625)"/>
      </defs>
      <use xlink:href="#DejaVuSans-4d"/>
      <use xlink:href="#DejaVuSans-65" x="86.279297"/>
      <use xlink:href="#DejaVuSans-74" x="147.802734"/>
      <use xlink:href="#DejaVuSans-61" x="187.011719"/>
      <use xlink:href="#DejaVuSans-62" x="248.291016"/>
      <use xlink:href="#DejaVuSans-6f" x="311.767578"/>
      <use xlink:href="#DejaVuSans-6c" x="372.949219"/>
      <use xlink:href="#DejaVuSans-69" x="400.732422"/>
      <use xlink:href="#DejaVuSans-74" x="428.515625"/>
      <use xlink:href="#DejaVuSans-65" x="467.724609"/>
      <use xlink:href="#DejaVuSans-20" x="529.248047"/>
      <use xlink:href="#DejaVuSans-4d" x="561.035156"/>
      <use xlink:href="#DejaVuSans-6f" x="647.314453"/>
      <use xlink:href="#DejaVuSans-6c" x="708.496094"/>
      <use xlink:href="#DejaVuSans-2e" x="736.279297"/>
      <use xlink:href="#DejaVuSans-20" x="768.066406"/>
      <use xlink:href="#DejaVuSans-57" x="799.853516"/>
      <use xlink:href="#DejaVuSans-65" x="892.855469"/>
      <use xlink:href="#DejaVuSans-69" x="954.378906"/>
      <use xlink:href="#DejaVuSans-67" x="982.162109"/>
      <use xlink:href="#DejaVuSans-68" x="1045.638672"/>
      <use xlink:href="#DejaVuSans-74" x="1109.017578"/>
      <use xlink:href="#DejaVuSans-20" x="1148.226562"/>
      <use xlink:href="#DejaVuSans-28" x="1180.013672"/>
      <use xlink:href="#DejaVuSans-44" x="1219.027344"/>
      <use xlink:href="#DejaVuSans-61" x="1296.029297"/>
      <use xlink:href="#DejaVuSans-29" x="1357.308594"/>
     </g>
    </g>
   </g>
   <g id="matplotlib.axis_4">
    <g id="ytick_8">
     <g id="line2d_14">
      <g>
       <use xlink:href="#m6f984c3e86" x="244.801989" y="177.319219" style="stroke: #000000; stroke-width: 0.8"/>
      </g>
     </g>
    </g>
    <g id="ytick_9">
     <g id="line2d_15">
      <g>
       <use xlink:href="#m6f984c3e86" x="244.801989" y="149.599219" style="stroke: #000000; stroke-width: 0.8"/>
      </g>
     </g>
    </g>
    <g id="ytick_10">
     <g id="line2d_16">
      <g>
       <use xlink:href="#m6f984c3e86" x="244.801989" y="121.879219" style="stroke: #000000; stroke-width: 0.8"/>
      </g>
     </g>
    </g>
    <g id="ytick_11">
     <g id="line2d_17">
      <g>
       <use xlink:href="#m6f984c3e86" x="244.801989" y="94.159219" style="stroke: #000000; stroke-width: 0.8"/>
      </g>
     </g>
    </g>
    <g id="ytick_12">
     <g id="line2d_18">
      <g>
       <use xlink:href="#m6f984c3e86" x="244.801989" y="66.439219" style="stroke: #000000; stroke-width: 0.8"/>
      </g>
     </g>
    </g>
    <g id="ytick_13">
     <g id="line2d_19">
      <g>
       <use xlink:href="#m6f984c3e86" x="244.801989" y="38.719219" style="stroke: #000000; stroke-width: 0.8"/>
      </g>
     </g>
    </g>
    <g id="ytick_14">
     <g id="line2d_20">
      <g>
       <use xlink:href="#m6f984c3e86" x="244.801989" y="10.999219" style="stroke: #000000; stroke-width: 0.8"/>
      </g>
     </g>
    </g>
   </g>
   <g id="patch_283">
    <path d="M 244.801989 177.319219 
L 244.801989 10.999219 
" style="fill: none; stroke: #000000; stroke-width: 0.8; stroke-linejoin: miter; stroke-linecap: square"/>
   </g>
   <g id="patch_284">
    <path d="M 409.665625 177.319219 
L 409.665625 10.999219 
" style="fill: none; stroke: #000000; stroke-width: 0.8; stroke-linejoin: miter; stroke-linecap: square"/>
   </g>
   <g id="patch_285">
    <path d="M 244.801989 177.319219 
L 409.665625 177.319219 
" style="fill: none; stroke: #000000; stroke-width: 0.8; stroke-linejoin: miter; stroke-linecap: square"/>
   </g>
   <g id="patch_286">
    <path d="M 244.801989 10.999219 
L 409.665625 10.999219 
" style="fill: none; stroke: #000000; stroke-width: 0.8; stroke-linejoin: miter; stroke-linecap: square"/>
   </g>
  </g>
 </g>
 <defs>
  <clipPath id="p68dea47b15">
   <rect x="46.965625" y="10.999219" width="164.863636" height="166.32"/>
  </clipPath>
  <clipPath id="pcebeb34962">
   <rect x="244.801989" y="10.999219" width="164.863636" height="166.32"/>
  </clipPath>
 </defs>
</svg>
